<?xml version="1.0" encoding="UTF-8" standalone="no"?>
<!--
*************Map created by Simplemaps.com********************		
*************Attribution is highly appreciated!***************
*************http://simplemaps.com****************************

The MIT License (MIT)

Copyright (c) 2020 Pareto Softare, LLC DBA Simplemaps.com

Permission is hereby granted, free of charge, to any person obtaining a copy
of this software and associated documentation files (the "Software"), to deal
in the Software without restriction, including without limitation the rights
to use, copy, modify, merge, publish, distribute, sublicense, and/or sell
copies of the Software, and to permit persons to whom the Software is
furnished to do so, subject to the following conditions:

The above copyright notice and this permission notice shall be included in
all copies or substantial portions of the Software.

THE SOFTWARE IS PROVIDED "AS IS", WITHOUT WARRANTY OF ANY KIND, EXPRESS OR
IMPLIED, INCLUDING BUT NOT LIMITED TO THE WARRANTIES OF MERCHANTABILITY,
FITNESS FOR A PARTICULAR PURPOSE AND NONINFRINGEMENT. IN NO EVENT SHALL THE
AUTHORS OR COPYRIGHT HOLDERS BE LIABLE FOR ANY CLAIM, DAMAGES OR OTHER
LIABILITY, WHETHER IN AN ACTION OF CONTRACT, TORT OR OTHERWISE, ARISING FROM,
OUT OF OR IN CONNECTION WITH THE SOFTWARE OR THE USE OR OTHER DEALINGS IN
THE SOFTWARE.

-->

<svg
   baseprofile="tiny"
   fill="#ececec"
   height="540"
   stroke="#000000"
   stroke-linecap="round"
   stroke-linejoin="round"
   stroke-width="0.2"
   version="1.2"
   viewbox="0 0 2000 857"
   width="960"
   id="svg301"
   sodipodi:docname="asia.svg"
   inkscape:version="1.3.2 (091e20e, 2023-11-25, custom)"
   xml:space="preserve"
   viewBox="1239.317 144.386 480 270"
   xmlns:inkscape="http://www.inkscape.org/namespaces/inkscape"
   xmlns:sodipodi="http://sodipodi.sourceforge.net/DTD/sodipodi-0.dtd"
   xmlns:xlink="http://www.w3.org/1999/xlink"
   xmlns="http://www.w3.org/2000/svg"
   xmlns:svg="http://www.w3.org/2000/svg"><defs
     id="defs301"><pattern
       inkscape:collect="always"
       xlink:href="#shading10"
       preserveAspectRatio="xMidYMid"
       id="pattern378"
       patternTransform="translate(231.9442,203.8797)" /><pattern
       inkscape:collect="always"
       xlink:href="#Strips2_1"
       preserveAspectRatio="xMidYMid"
       id="pattern373"
       patternTransform="scale(2)"
       x="0"
       y="0" /><pattern
       inkscape:collect="always"
       xlink:href="#Strips2_1"
       preserveAspectRatio="xMidYMid"
       id="pattern372"
       patternTransform="scale(2)"
       x="0"
       y="0" /><pattern
       inkscape:collect="always"
       xlink:href="#Strips2_1"
       preserveAspectRatio="xMidYMid"
       id="pattern371"
       patternTransform="scale(2)"
       x="0"
       y="0" /><pattern
       inkscape:collect="always"
       xlink:href="#Strips2_1"
       preserveAspectRatio="xMidYMid"
       id="pattern370"
       patternTransform="scale(2)"
       x="0"
       y="0" /><pattern
       inkscape:collect="always"
       xlink:href="#Strips2_1"
       preserveAspectRatio="xMidYMid"
       id="pattern357"
       patternTransform="scale(2)"
       x="0"
       y="0" /><pattern
       inkscape:collect="always"
       xlink:href="#Strips2_1"
       preserveAspectRatio="xMidYMid"
       id="pattern355"
       patternTransform="scale(2)"
       x="0"
       y="0" /><pattern
       inkscape:collect="always"
       xlink:href="#Strips2_1"
       preserveAspectRatio="xMidYMid"
       id="pattern354"
       patternTransform="scale(2)"
       x="0"
       y="0" /><pattern
       patternUnits="userSpaceOnUse"
       width="426.6123"
       height="55.4942"
       patternTransform="translate(231.9442,203.8797)"
       preserveAspectRatio="xMidYMid"
       id="shading10"
       style="fill:#ff0000"
       inkscape:label="Wave lines 1"
       inkscape:collect="always"
       inkscape:isstock="true"><path
         id="use37"
         style="stroke-width:0.315146;stroke-linecap:square;paint-order:markers fill stroke;stop-color:#000000"
         d="m 420.5733,0 h 0.2749 c 0.024,8.9645 5.7641,19.2925 5.7641,27.7471 0,8.4545 -5.7641,15.465 -5.7641,27.7471 h -0.2749 c 0,-12.8073 5.6908,-20.0005 5.6908,-27.7471 1e-4,-7.7466 -5.6292,-16.6995 -5.6908,-27.7471 z m -16.5687,0 h 1.0155 c 0.023,9.4488 5.2737,18.9076 5.2737,27.7471 0,8.8395 -5.2737,15.1536 -5.2737,27.7471 h -1.0155 c 0,-12.8543 5.2089,-19.5988 5.209,-27.7471 0,-8.1483 -5.1498,-16.3841 -5.209,-27.7471 z m -16.5687,0 h 1.7561 c 0.023,9.933 4.7832,18.5227 4.7832,27.7471 0,9.2244 -4.7832,14.8421 -4.7832,27.7471 h -1.7561 c 0,-12.9013 4.7271,-19.1972 4.7271,-27.7471 0,-8.55 -4.6704,-16.0687 -4.7271,-27.7471 z m -16.5687,0 h 2.4967 c 0.022,10.4173 4.2928,18.1377 4.2928,27.7471 0,9.6093 -4.2928,14.5307 -4.2928,27.7471 h -2.4967 c 0,-12.9482 4.2452,-18.7955 4.2452,-27.7471 1e-4,-8.9516 -4.191,-15.7533 -4.2452,-27.7471 z m -16.5687,0 h 3.2373 c 0.02,10.9016 3.8024,17.7528 3.8024,27.7471 0,9.9943 -3.8024,14.2192 -3.8024,27.7471 h -3.2373 c 0,-12.9952 3.7634,-18.3938 3.7634,-27.7471 0,-9.3533 -3.7117,-15.4379 -3.7634,-27.7471 z m -16.5687,0 h 3.9779 c 0.02,11.3858 3.3119,17.3679 3.3119,27.7471 0,10.3792 -3.3119,13.9077 -3.3119,27.7471 h -3.9779 c 0,-13.0422 3.2815,-17.9921 3.2815,-27.7471 0,-9.755 -3.2322,-15.1225 -3.2815,-27.7471 z M 321.161,0 h 4.7186 c 0.019,11.8701 2.8215,16.983 2.8215,27.7471 0,10.7641 -2.8215,13.5963 -2.8215,27.7471 h -4.7186 c 0,-13.0891 2.7997,-17.5905 2.7997,-27.7471 C 323.9608,17.5904 321.2079,12.94 321.161,0 Z m -16.5687,0 h 5.4592 c 0.018,12.3544 2.3311,16.598 2.3311,27.7471 0,11.149 -2.3311,13.2848 -2.3311,27.7471 h -5.4592 c 0,-13.1361 2.3179,-17.1888 2.3179,-27.7471 0,-10.5583 -2.2735,-14.4917 -2.3179,-27.7471 z m -16.5687,0 h 6.1998 c 0.017,12.8386 1.8406,16.2131 1.8406,27.7471 0,11.534 -1.8406,12.9733 -1.8406,27.7471 h -6.1998 c 0,-13.1831 1.836,-16.7871 1.836,-27.7471 0,-10.96 -1.7941,-14.1763 -1.836,-27.7471 z m -16.5687,0 h 6.9404 c 0.016,13.3229 1.3502,15.8282 1.3502,27.7471 0,11.9189 -1.3502,12.6619 -1.3502,27.7471 h -6.9404 c 0,-13.23 1.3541,-16.3854 1.3541,-27.7471 C 272.8091,16.3854 271.4943,13.8861 271.4549,0 Z m -16.5687,0 h 7.6811 c 0.015,13.8072 0.8597,15.4432 0.8597,27.7471 0,12.3038 -0.8597,12.3504 -0.8597,27.7471 h -7.6811 c 0,-13.277 0.8723,-15.9838 0.8723,-27.7471 0,-11.7634 -0.8353,-13.5456 -0.8723,-27.7471 z m -16.5687,0 h 8.4217 c 0.014,14.2914 0.3692,15.0583 0.3692,27.7471 0,12.6888 -0.3692,12.039 -0.3692,27.7471 h -8.4217 c 0,-13.324 0.3904,-15.5821 0.3904,-27.7471 0,-12.165 -0.3559,-13.2302 -0.3904,-27.7471 z m -16.5687,0 h 9.1623 c 0.013,14.7757 -0.1212,14.6734 -0.1212,27.7471 0,13.0737 0.1212,11.7275 0.1212,27.7471 h -9.1623 c 0,-13.3709 -0.091,-15.1804 -0.091,-27.7471 1e-4,-12.5667 0.1235,-12.9148 0.091,-27.7471 z m -16.5687,0 h 9.9029 c 0.012,15.26 -0.6116,14.2884 -0.6116,27.7471 0,13.4586 0.6116,11.416 0.6116,27.7471 h -9.9029 c 0,-13.4179 -0.5733,-14.7788 -0.5733,-27.7471 0,-12.9684 0.6028,-12.5994 0.5733,-27.7471 z m -16.5687,0 h 10.6435 c 0.011,15.7442 -1.102,13.9035 -1.102,27.7471 0,13.8436 1.102,11.1046 1.102,27.7471 h -10.6435 c 0,-13.4649 -1.0552,-14.3771 -1.0552,-27.7471 0,-13.3701 1.0823,-12.284 1.0552,-27.7471 z m -16.5688,0 h 11.3842 c 0.01,16.2285 -1.5925,13.5186 -1.5925,27.7471 0,14.2285 1.5925,10.7931 1.5925,27.7471 h -11.3842 c 0,-13.5118 -1.537,-13.9754 -1.537,-27.7471 1e-4,-13.7717 1.5617,-11.9686 1.537,-27.7471 z m -16.5687,0 h 12.1248 c 0.01,16.7128 -2.0829,13.1336 -2.0829,27.7471 0,14.6134 2.0829,10.4816 2.0829,27.7471 h -12.1248 c 0,-13.5588 -2.0188,-13.5737 -2.0188,-27.7471 0,-14.1734 2.041,-11.6532 2.0188,-27.7471 z m -16.5687,0 h 12.8654 c 0.01,17.197 -2.5733,12.7487 -2.5733,27.7471 0,14.9984 2.5733,10.1702 2.5733,27.7471 h -12.8654 c 0,-13.6058 -2.5007,-13.1721 -2.5007,-27.7471 0,-14.5751 2.5204,-11.3378 2.5007,-27.7471 z m -16.5687,0 h 13.606 c 0.01,17.6813 -3.0638,12.3638 -3.0638,27.7471 0,15.3833 3.0638,9.8587 3.0638,27.7471 h -13.606 c 0,-13.6527 -2.9826,-12.7704 -2.9826,-27.7471 1e-4,-14.9767 2.9999,-11.0224 2.9826,-27.7471 z m -16.5687,0 h 14.3466 c 0.01,18.1656 -3.5542,11.9788 -3.5542,27.7471 0,15.7682 3.5542,9.5472 3.5542,27.7471 h -14.3466 c 0,-13.6997 -3.4644,-12.3687 -3.4644,-27.7471 0,-15.3784 3.4792,-10.7071 3.4644,-27.7471 z M 89.1991,0 h 15.0872 c 0,18.6498 -4.0446,11.5939 -4.0446,27.7471 0,16.1532 4.0446,9.2358 4.0446,27.7471 H 89.1991 c 0,-13.7467 -3.9463,-11.967 -3.9463,-27.7471 C 85.2528,11.967 89.2114,17.3554 89.1991,0 Z M 72.6304,0 h 15.8278 c 0,19.1341 -4.5351,11.209 -4.5351,27.7471 0,16.5381 4.5351,8.9243 4.5351,27.7471 H 72.6304 c 0,-13.7936 -4.4282,-11.5654 -4.4282,-27.7471 C 68.2023,11.5653 72.6402,17.6708 72.6304,0 Z M 56.0617,0 h 16.5684 c 0,19.6184 -5.0255,10.824 -5.0255,27.7471 0,16.923 5.0255,8.6129 5.0255,27.7471 H 56.0617 c 0,-13.8406 -4.91,-11.1637 -4.91,-27.7471 0,-16.5834 4.9174,-9.7609 4.91,-27.7471 z M 39.493,0 h 17.3091 c 0,20.1026 -5.516,10.4391 -5.516,27.7471 0,17.3079 5.516,8.3014 5.516,27.7471 H 39.493 c 0,-13.8876 -5.3919,-10.762 -5.3919,-27.7471 C 34.1011,10.762 39.4979,18.3016 39.493,0 Z M 22.9242,0 H 40.974 c 9e-4,20.5869 -6.0064,10.0542 -6.0064,27.7471 0,17.6929 6.0064,7.9899 6.0064,27.7471 H 22.9242 c 0,-13.9346 -5.8737,-10.3604 -5.8737,-27.7471 0,-17.3868 5.8762,-9.1301 5.8737,-27.7471 z M 6.3555,0 h 18.7904 c 0,21.0712 -6.4969,9.6693 -6.4969,27.7471 0,18.0778 6.4969,7.6785 6.4969,27.7471 H 6.3555 C 6.3555,41.5127 0,45.5355 0,27.7471 0,9.9586 6.3555,18.9324 6.3555,0 Z"
         sodipodi:nodetypes="cczcczccczcczc" /></pattern><pattern
       inkscape:collect="always"
       xlink:href="#Strips2_1"
       preserveAspectRatio="xMidYMid"
       id="pattern314"
       patternTransform="scale(2)" /><pattern
       inkscape:collect="always"
       patternUnits="userSpaceOnUse"
       width="1.5"
       height="1"
       patternTransform="translate(0,0) scale(2,2)"
       preserveAspectRatio="xMidYMid"
       id="Strips2_1"
       style="fill:#ff0000"
       inkscape:stockid="Stripes 12 (2:1)"
       inkscape:isstock="true"
       inkscape:label="Stripes 12 (2:1)"><rect
         style="stroke:none"
         x="0"
         y="-0.5"
         width="1"
         height="2"
         id="rect197" /></pattern><clipPath
       clipPathUnits="userSpaceOnUse"
       id="clipPath5"><rect
         style="fill:#000000;stroke:#000000;stroke-width:0;stroke-linejoin:bevel;paint-order:stroke markers fill;stop-color:#000000"
         id="rect5-4"
         width="20"
         height="200"
         x="530"
         y="595" /></clipPath><clipPath
       clipPathUnits="userSpaceOnUse"
       id="clipPath1"><rect
         style="fill:none;fill-opacity:0;stroke:#000000;stroke-width:0.372959"
         id="rect2"
         width="479.94672"
         height="269.97003"
         x="1239.3168"
         y="144.38647" /></clipPath><clipPath
       clipPathUnits="userSpaceOnUse"
       id="clipPath2"><rect
         style="fill:none;fill-opacity:0;stroke:#000000;stroke-width:0.372959"
         id="rect3"
         width="479.94672"
         height="269.97003"
         x="1239.3168"
         y="144.38647" /></clipPath><clipPath
       clipPathUnits="userSpaceOnUse"
       id="clipPath3"><rect
         style="fill:none;fill-opacity:0;stroke:#000000;stroke-width:0.372959"
         id="rect4"
         width="479.94672"
         height="269.97003"
         x="1239.3168"
         y="144.38647" /></clipPath><clipPath
       clipPathUnits="userSpaceOnUse"
       id="clipPath4"><rect
         style="fill:none;fill-opacity:0;stroke:#000000;stroke-width:0.372959"
         id="rect5"
         width="479.94672"
         height="269.97003"
         x="1239.3168"
         y="144.38647" /></clipPath><clipPath
       clipPathUnits="userSpaceOnUse"
       id="clipPath6"><rect
         style="fill:none;fill-opacity:0;stroke:#000000;stroke-width:0.372959"
         id="rect6"
         width="479.94672"
         height="269.97003"
         x="1239.3168"
         y="144.38647" /></clipPath><clipPath
       clipPathUnits="userSpaceOnUse"
       id="clipPath7"><rect
         style="fill:none;fill-opacity:0;stroke:#000000;stroke-width:0.372959"
         id="rect7"
         width="479.94672"
         height="269.97003"
         x="1239.3168"
         y="144.38647" /></clipPath><clipPath
       clipPathUnits="userSpaceOnUse"
       id="clipPath8"><rect
         style="fill:none;fill-opacity:0;stroke:#000000;stroke-width:0.372959"
         id="rect8"
         width="479.94672"
         height="269.97003"
         x="1239.3168"
         y="144.38647" /></clipPath><clipPath
       clipPathUnits="userSpaceOnUse"
       id="clipPath9"><rect
         style="fill:none;fill-opacity:0;stroke:#000000;stroke-width:0.372959"
         id="rect9"
         width="479.94672"
         height="269.97003"
         x="1239.3168"
         y="144.38647" /></clipPath><clipPath
       clipPathUnits="userSpaceOnUse"
       id="clipPath10"><rect
         style="fill:none;fill-opacity:0;stroke:#000000;stroke-width:0.372959"
         id="rect10"
         width="479.94672"
         height="269.97003"
         x="1239.3168"
         y="144.38647" /></clipPath><clipPath
       clipPathUnits="userSpaceOnUse"
       id="clipPath11"><rect
         style="fill:none;fill-opacity:0;stroke:#000000;stroke-width:0.372959"
         id="rect11"
         width="479.94672"
         height="269.97003"
         x="1239.3168"
         y="144.38647" /></clipPath><clipPath
       clipPathUnits="userSpaceOnUse"
       id="clipPath12"><rect
         style="fill:none;fill-opacity:0;stroke:#000000;stroke-width:0.372959"
         id="rect12"
         width="479.94672"
         height="269.97003"
         x="1239.3168"
         y="144.38647" /></clipPath><clipPath
       clipPathUnits="userSpaceOnUse"
       id="clipPath13"><rect
         style="fill:none;fill-opacity:0;stroke:#000000;stroke-width:0.372959"
         id="rect13"
         width="479.94672"
         height="269.97003"
         x="1239.3168"
         y="144.38647" /></clipPath><clipPath
       clipPathUnits="userSpaceOnUse"
       id="clipPath14"><rect
         style="fill:none;fill-opacity:0;stroke:#000000;stroke-width:0.372959"
         id="rect14"
         width="479.94672"
         height="269.97003"
         x="1239.3168"
         y="144.38647" /></clipPath><clipPath
       clipPathUnits="userSpaceOnUse"
       id="clipPath15"><rect
         style="fill:none;fill-opacity:0;stroke:#000000;stroke-width:0.372959"
         id="rect15"
         width="479.94672"
         height="269.97003"
         x="1239.3168"
         y="144.38647" /></clipPath><clipPath
       clipPathUnits="userSpaceOnUse"
       id="clipPath16"><rect
         style="fill:none;fill-opacity:0;stroke:#000000;stroke-width:0.372959"
         id="rect16"
         width="479.94672"
         height="269.97003"
         x="1239.3168"
         y="144.38647" /></clipPath><clipPath
       clipPathUnits="userSpaceOnUse"
       id="clipPath17"><rect
         style="fill:none;fill-opacity:0;stroke:#000000;stroke-width:0.372959"
         id="rect17"
         width="479.94672"
         height="269.97003"
         x="1239.3168"
         y="144.38647" /></clipPath><clipPath
       clipPathUnits="userSpaceOnUse"
       id="clipPath18"><rect
         style="fill:none;fill-opacity:0;stroke:#000000;stroke-width:0.372959"
         id="rect18"
         width="479.94672"
         height="269.97003"
         x="1239.3168"
         y="144.38647" /></clipPath><clipPath
       clipPathUnits="userSpaceOnUse"
       id="clipPath19"><rect
         style="fill:none;fill-opacity:0;stroke:#000000;stroke-width:0.372959"
         id="rect19"
         width="479.94672"
         height="269.97003"
         x="1239.3168"
         y="144.38647" /></clipPath><clipPath
       clipPathUnits="userSpaceOnUse"
       id="clipPath20"><rect
         style="fill:none;fill-opacity:0;stroke:#000000;stroke-width:0.372959"
         id="rect20"
         width="479.94672"
         height="269.97003"
         x="1239.3168"
         y="144.38647" /></clipPath><clipPath
       clipPathUnits="userSpaceOnUse"
       id="clipPath21"><rect
         style="fill:none;fill-opacity:0;stroke:#000000;stroke-width:0.372959"
         id="rect21"
         width="479.94672"
         height="269.97003"
         x="1239.3168"
         y="144.38647" /></clipPath><clipPath
       clipPathUnits="userSpaceOnUse"
       id="clipPath22"><rect
         style="fill:none;fill-opacity:0;stroke:#000000;stroke-width:0.372959"
         id="rect22"
         width="479.94672"
         height="269.97003"
         x="1239.3168"
         y="144.38647" /></clipPath><clipPath
       clipPathUnits="userSpaceOnUse"
       id="clipPath23"><rect
         style="fill:none;fill-opacity:0;stroke:#000000;stroke-width:0.372959"
         id="rect23"
         width="479.94672"
         height="269.97003"
         x="1239.3168"
         y="144.38647" /></clipPath><clipPath
       clipPathUnits="userSpaceOnUse"
       id="clipPath24"><rect
         style="fill:none;fill-opacity:0;stroke:#000000;stroke-width:0.372959"
         id="rect24"
         width="479.94672"
         height="269.97003"
         x="1239.3168"
         y="144.38647" /></clipPath><clipPath
       clipPathUnits="userSpaceOnUse"
       id="clipPath25"><rect
         style="fill:none;fill-opacity:0;stroke:#000000;stroke-width:0.372959"
         id="rect25"
         width="479.94672"
         height="269.97003"
         x="1239.3168"
         y="144.38647" /></clipPath><clipPath
       clipPathUnits="userSpaceOnUse"
       id="clipPath26"><rect
         style="fill:none;fill-opacity:0;stroke:#000000;stroke-width:0.372959"
         id="rect26"
         width="479.94672"
         height="269.97003"
         x="1239.3168"
         y="144.38647" /></clipPath><clipPath
       clipPathUnits="userSpaceOnUse"
       id="clipPath27"><rect
         style="fill:none;fill-opacity:0;stroke:#000000;stroke-width:0.372959"
         id="rect27"
         width="479.94672"
         height="269.97003"
         x="1239.3168"
         y="144.38647" /></clipPath><clipPath
       clipPathUnits="userSpaceOnUse"
       id="clipPath28"><rect
         style="fill:none;fill-opacity:0;stroke:#000000;stroke-width:0.372959"
         id="rect28"
         width="479.94672"
         height="269.97003"
         x="1239.3168"
         y="144.38647" /></clipPath><clipPath
       clipPathUnits="userSpaceOnUse"
       id="clipPath29"><rect
         style="fill:none;fill-opacity:0;stroke:#000000;stroke-width:0.372959"
         id="rect29"
         width="479.94672"
         height="269.97003"
         x="1239.3168"
         y="144.38647" /></clipPath><clipPath
       clipPathUnits="userSpaceOnUse"
       id="clipPath30"><rect
         style="fill:none;fill-opacity:0;stroke:#000000;stroke-width:0.372959"
         id="rect30"
         width="479.94672"
         height="269.97003"
         x="1239.3168"
         y="144.38647" /></clipPath><clipPath
       clipPathUnits="userSpaceOnUse"
       id="clipPath31"><rect
         style="fill:none;fill-opacity:0;stroke:#000000;stroke-width:0.372959"
         id="rect31"
         width="479.94672"
         height="269.97003"
         x="1239.3168"
         y="144.38647" /></clipPath><clipPath
       clipPathUnits="userSpaceOnUse"
       id="clipPath32"><rect
         style="fill:none;fill-opacity:0;stroke:#000000;stroke-width:0.372959"
         id="rect32"
         width="479.94672"
         height="269.97003"
         x="1239.3168"
         y="144.38647" /></clipPath><clipPath
       clipPathUnits="userSpaceOnUse"
       id="clipPath33"><rect
         style="fill:none;fill-opacity:0;stroke:#000000;stroke-width:0.372959"
         id="rect33"
         width="479.94672"
         height="269.97003"
         x="1239.3168"
         y="144.38647" /></clipPath><clipPath
       clipPathUnits="userSpaceOnUse"
       id="clipPath34"><rect
         style="fill:none;fill-opacity:0;stroke:#000000;stroke-width:0.372959"
         id="rect34"
         width="479.94672"
         height="269.97003"
         x="1239.3168"
         y="144.38647" /></clipPath><clipPath
       clipPathUnits="userSpaceOnUse"
       id="clipPath35"><rect
         style="fill:none;fill-opacity:0;stroke:#000000;stroke-width:0.372959"
         id="rect35"
         width="479.94672"
         height="269.97003"
         x="1239.3168"
         y="144.38647" /></clipPath><clipPath
       clipPathUnits="userSpaceOnUse"
       id="clipPath36"><rect
         style="fill:none;fill-opacity:0;stroke:#000000;stroke-width:0.372959"
         id="rect36"
         width="479.94672"
         height="269.97003"
         x="1239.3168"
         y="144.38647" /></clipPath><clipPath
       clipPathUnits="userSpaceOnUse"
       id="clipPath37"><rect
         style="fill:none;fill-opacity:0;stroke:#000000;stroke-width:0.372959"
         id="rect37"
         width="479.94672"
         height="269.97003"
         x="1239.3168"
         y="144.38647" /></clipPath><clipPath
       clipPathUnits="userSpaceOnUse"
       id="clipPath38"><rect
         style="fill:none;fill-opacity:0;stroke:#000000;stroke-width:0.372959"
         id="rect38"
         width="479.94672"
         height="269.97003"
         x="1239.3168"
         y="144.38647" /></clipPath><clipPath
       clipPathUnits="userSpaceOnUse"
       id="clipPath39"><rect
         style="fill:none;fill-opacity:0;stroke:#000000;stroke-width:0.372959"
         id="rect39"
         width="479.94672"
         height="269.97003"
         x="1239.3168"
         y="144.38647" /></clipPath><clipPath
       clipPathUnits="userSpaceOnUse"
       id="clipPath40"><rect
         style="fill:none;fill-opacity:0;stroke:#000000;stroke-width:0.372959"
         id="rect40"
         width="479.94672"
         height="269.97003"
         x="1239.3168"
         y="144.38647" /></clipPath><clipPath
       clipPathUnits="userSpaceOnUse"
       id="clipPath41"><rect
         style="fill:none;fill-opacity:0;stroke:#000000;stroke-width:0.372959"
         id="rect41"
         width="479.94672"
         height="269.97003"
         x="1239.3168"
         y="144.38647" /></clipPath><clipPath
       clipPathUnits="userSpaceOnUse"
       id="clipPath42"><rect
         style="fill:none;fill-opacity:0;stroke:#000000;stroke-width:0.372959"
         id="rect42"
         width="479.94672"
         height="269.97003"
         x="1239.3168"
         y="144.38647" /></clipPath><clipPath
       clipPathUnits="userSpaceOnUse"
       id="clipPath43"><rect
         style="fill:none;fill-opacity:0;stroke:#000000;stroke-width:0.372959"
         id="rect43"
         width="479.94672"
         height="269.97003"
         x="1239.3168"
         y="144.38647" /></clipPath><clipPath
       clipPathUnits="userSpaceOnUse"
       id="clipPath44"><rect
         style="fill:none;fill-opacity:0;stroke:#000000;stroke-width:0.372959"
         id="rect44"
         width="479.94672"
         height="269.97003"
         x="1239.3168"
         y="144.38647" /></clipPath><clipPath
       clipPathUnits="userSpaceOnUse"
       id="clipPath45"><rect
         style="fill:none;fill-opacity:0;stroke:#000000;stroke-width:0.372959"
         id="rect45"
         width="479.94672"
         height="269.97003"
         x="1239.3168"
         y="144.38647" /></clipPath><clipPath
       clipPathUnits="userSpaceOnUse"
       id="clipPath46"><rect
         style="fill:none;fill-opacity:0;stroke:#000000;stroke-width:0.372959"
         id="rect46"
         width="479.94672"
         height="269.97003"
         x="1239.3168"
         y="144.38647" /></clipPath><clipPath
       clipPathUnits="userSpaceOnUse"
       id="clipPath47"><rect
         style="fill:none;fill-opacity:0;stroke:#000000;stroke-width:0.372959"
         id="rect47"
         width="479.94672"
         height="269.97003"
         x="1239.3168"
         y="144.38647" /></clipPath><clipPath
       clipPathUnits="userSpaceOnUse"
       id="clipPath48"><rect
         style="fill:none;fill-opacity:0;stroke:#000000;stroke-width:0.372959"
         id="rect48"
         width="479.94672"
         height="269.97003"
         x="1239.3168"
         y="144.38647" /></clipPath><clipPath
       clipPathUnits="userSpaceOnUse"
       id="clipPath49"><rect
         style="fill:none;fill-opacity:0;stroke:#000000;stroke-width:0.372959"
         id="rect49"
         width="479.94672"
         height="269.97003"
         x="1239.3168"
         y="144.38647" /></clipPath><clipPath
       clipPathUnits="userSpaceOnUse"
       id="clipPath50"><rect
         style="fill:none;fill-opacity:0;stroke:#000000;stroke-width:0.372959"
         id="rect50"
         width="479.94672"
         height="269.97003"
         x="1239.3168"
         y="144.38647" /></clipPath><clipPath
       clipPathUnits="userSpaceOnUse"
       id="clipPath51"><rect
         style="fill:none;fill-opacity:0;stroke:#000000;stroke-width:0.372959"
         id="rect51"
         width="479.94672"
         height="269.97003"
         x="1239.3168"
         y="144.38647" /></clipPath><clipPath
       clipPathUnits="userSpaceOnUse"
       id="clipPath52"><rect
         style="fill:none;fill-opacity:0;stroke:#000000;stroke-width:0.372959"
         id="rect52"
         width="479.94672"
         height="269.97003"
         x="1239.3168"
         y="144.38647" /></clipPath><clipPath
       clipPathUnits="userSpaceOnUse"
       id="clipPath53"><rect
         style="fill:none;fill-opacity:0;stroke:#000000;stroke-width:0.372959"
         id="rect53"
         width="479.94672"
         height="269.97003"
         x="1239.3168"
         y="144.38647" /></clipPath><clipPath
       clipPathUnits="userSpaceOnUse"
       id="clipPath54"><rect
         style="fill:none;fill-opacity:0;stroke:#000000;stroke-width:0.372959"
         id="rect54"
         width="479.94672"
         height="269.97003"
         x="1239.3168"
         y="144.38647" /></clipPath><clipPath
       clipPathUnits="userSpaceOnUse"
       id="clipPath55"><rect
         style="fill:none;fill-opacity:0;stroke:#000000;stroke-width:0.372959"
         id="rect55"
         width="479.94672"
         height="269.97003"
         x="1239.3168"
         y="144.38647" /></clipPath><clipPath
       clipPathUnits="userSpaceOnUse"
       id="clipPath56"><rect
         style="fill:none;fill-opacity:0;stroke:#000000;stroke-width:0.372959"
         id="rect56"
         width="479.94672"
         height="269.97003"
         x="1239.3168"
         y="144.38647" /></clipPath><clipPath
       clipPathUnits="userSpaceOnUse"
       id="clipPath57"><rect
         style="fill:none;fill-opacity:0;stroke:#000000;stroke-width:0.372959"
         id="rect57"
         width="479.94672"
         height="269.97003"
         x="1239.3168"
         y="144.38647" /></clipPath><clipPath
       clipPathUnits="userSpaceOnUse"
       id="clipPath58"><rect
         style="fill:none;fill-opacity:0;stroke:#000000;stroke-width:0.372959"
         id="rect58"
         width="479.94672"
         height="269.97003"
         x="1239.3168"
         y="144.38647" /></clipPath><clipPath
       clipPathUnits="userSpaceOnUse"
       id="clipPath59"><rect
         style="fill:none;fill-opacity:0;stroke:#000000;stroke-width:0.372959"
         id="rect59"
         width="479.94672"
         height="269.97003"
         x="1239.3168"
         y="144.38647" /></clipPath><clipPath
       clipPathUnits="userSpaceOnUse"
       id="clipPath60"><rect
         style="fill:none;fill-opacity:0;stroke:#000000;stroke-width:0.372959"
         id="rect60"
         width="479.94672"
         height="269.97003"
         x="1239.3168"
         y="144.38647" /></clipPath><clipPath
       clipPathUnits="userSpaceOnUse"
       id="clipPath61"><rect
         style="fill:none;fill-opacity:0;stroke:#000000;stroke-width:0.372959"
         id="rect61"
         width="479.94672"
         height="269.97003"
         x="1239.3168"
         y="144.38647" /></clipPath><clipPath
       clipPathUnits="userSpaceOnUse"
       id="clipPath62"><rect
         style="fill:none;fill-opacity:0;stroke:#000000;stroke-width:0.372959"
         id="rect62"
         width="479.94672"
         height="269.97003"
         x="1239.3168"
         y="144.38647" /></clipPath><clipPath
       clipPathUnits="userSpaceOnUse"
       id="clipPath63"><rect
         style="fill:none;fill-opacity:0;stroke:#000000;stroke-width:0.372959"
         id="rect63"
         width="479.94672"
         height="269.97003"
         x="1239.3168"
         y="144.38647" /></clipPath><clipPath
       clipPathUnits="userSpaceOnUse"
       id="clipPath64"><rect
         style="fill:none;fill-opacity:0;stroke:#000000;stroke-width:0.372959"
         id="rect64"
         width="479.94672"
         height="269.97003"
         x="1239.3168"
         y="144.38647" /></clipPath><clipPath
       clipPathUnits="userSpaceOnUse"
       id="clipPath65"><rect
         style="fill:none;fill-opacity:0;stroke:#000000;stroke-width:0.372959"
         id="rect65"
         width="479.94672"
         height="269.97003"
         x="1239.3168"
         y="144.38647" /></clipPath><clipPath
       clipPathUnits="userSpaceOnUse"
       id="clipPath66"><rect
         style="fill:none;fill-opacity:0;stroke:#000000;stroke-width:0.372959"
         id="rect66"
         width="479.94672"
         height="269.97003"
         x="1239.3168"
         y="144.38647" /></clipPath><clipPath
       clipPathUnits="userSpaceOnUse"
       id="clipPath67"><rect
         style="fill:none;fill-opacity:0;stroke:#000000;stroke-width:0.372959"
         id="rect67"
         width="479.94672"
         height="269.97003"
         x="1239.3168"
         y="144.38647" /></clipPath><clipPath
       clipPathUnits="userSpaceOnUse"
       id="clipPath68"><rect
         style="fill:none;fill-opacity:0;stroke:#000000;stroke-width:0.372959"
         id="rect68"
         width="479.94672"
         height="269.97003"
         x="1239.3168"
         y="144.38647" /></clipPath><clipPath
       clipPathUnits="userSpaceOnUse"
       id="clipPath69"><rect
         style="fill:none;fill-opacity:0;stroke:#000000;stroke-width:0.372959"
         id="rect69"
         width="479.94672"
         height="269.97003"
         x="1239.3168"
         y="144.38647" /></clipPath><clipPath
       clipPathUnits="userSpaceOnUse"
       id="clipPath70"><rect
         style="fill:none;fill-opacity:0;stroke:#000000;stroke-width:0.372959"
         id="rect70"
         width="479.94672"
         height="269.97003"
         x="1239.3168"
         y="144.38647" /></clipPath><clipPath
       clipPathUnits="userSpaceOnUse"
       id="clipPath71"><rect
         style="fill:none;fill-opacity:0;stroke:#000000;stroke-width:0.372959"
         id="rect71"
         width="479.94672"
         height="269.97003"
         x="1239.3168"
         y="144.38647" /></clipPath><clipPath
       clipPathUnits="userSpaceOnUse"
       id="clipPath72"><rect
         style="fill:none;fill-opacity:0;stroke:#000000;stroke-width:0.372959"
         id="rect72"
         width="479.94672"
         height="269.97003"
         x="1239.3168"
         y="144.38647" /></clipPath><clipPath
       clipPathUnits="userSpaceOnUse"
       id="clipPath73"><rect
         style="fill:none;fill-opacity:0;stroke:#000000;stroke-width:0.372959"
         id="rect73"
         width="479.94672"
         height="269.97003"
         x="1239.3168"
         y="144.38647" /></clipPath><clipPath
       clipPathUnits="userSpaceOnUse"
       id="clipPath74"><rect
         style="fill:none;fill-opacity:0;stroke:#000000;stroke-width:0.372959"
         id="rect74"
         width="479.94672"
         height="269.97003"
         x="1239.3168"
         y="144.38647" /></clipPath><clipPath
       clipPathUnits="userSpaceOnUse"
       id="clipPath75"><rect
         style="fill:none;fill-opacity:0;stroke:#000000;stroke-width:0.372959"
         id="rect75"
         width="479.94672"
         height="269.97003"
         x="1239.3168"
         y="144.38647" /></clipPath><clipPath
       clipPathUnits="userSpaceOnUse"
       id="clipPath76"><rect
         style="fill:none;fill-opacity:0;stroke:#000000;stroke-width:0.372959"
         id="rect76"
         width="479.94672"
         height="269.97003"
         x="1239.3168"
         y="144.38647" /></clipPath><clipPath
       clipPathUnits="userSpaceOnUse"
       id="clipPath77"><rect
         style="fill:none;fill-opacity:0;stroke:#000000;stroke-width:0.372959"
         id="rect77"
         width="479.94672"
         height="269.97003"
         x="1239.3168"
         y="144.38647" /></clipPath><clipPath
       clipPathUnits="userSpaceOnUse"
       id="clipPath78"><rect
         style="fill:none;fill-opacity:0;stroke:#000000;stroke-width:0.372959"
         id="rect78"
         width="479.94672"
         height="269.97003"
         x="1239.3168"
         y="144.38647" /></clipPath><clipPath
       clipPathUnits="userSpaceOnUse"
       id="clipPath79"><rect
         style="fill:none;fill-opacity:0;stroke:#000000;stroke-width:0.372959"
         id="rect79"
         width="479.94672"
         height="269.97003"
         x="1239.3168"
         y="144.38647" /></clipPath><clipPath
       clipPathUnits="userSpaceOnUse"
       id="clipPath80"><rect
         style="fill:none;fill-opacity:0;stroke:#000000;stroke-width:0.372959"
         id="rect80"
         width="479.94672"
         height="269.97003"
         x="1239.3168"
         y="144.38647" /></clipPath><clipPath
       clipPathUnits="userSpaceOnUse"
       id="clipPath81"><rect
         style="fill:none;fill-opacity:0;stroke:#000000;stroke-width:0.372959"
         id="rect81"
         width="479.94672"
         height="269.97003"
         x="1239.3168"
         y="144.38647" /></clipPath><clipPath
       clipPathUnits="userSpaceOnUse"
       id="clipPath82"><rect
         style="fill:none;fill-opacity:0;stroke:#000000;stroke-width:0.372959"
         id="rect82"
         width="479.94672"
         height="269.97003"
         x="1239.3168"
         y="144.38647" /></clipPath><clipPath
       clipPathUnits="userSpaceOnUse"
       id="clipPath83"><rect
         style="fill:none;fill-opacity:0;stroke:#000000;stroke-width:0.372959"
         id="rect83"
         width="479.94672"
         height="269.97003"
         x="1239.3168"
         y="144.38647" /></clipPath><clipPath
       clipPathUnits="userSpaceOnUse"
       id="clipPath84"><rect
         style="fill:none;fill-opacity:0;stroke:#000000;stroke-width:0.372959"
         id="rect84"
         width="479.94672"
         height="269.97003"
         x="1239.3168"
         y="144.38647" /></clipPath><clipPath
       clipPathUnits="userSpaceOnUse"
       id="clipPath85"><rect
         style="fill:none;fill-opacity:0;stroke:#000000;stroke-width:0.372959"
         id="rect85"
         width="479.94672"
         height="269.97003"
         x="1239.3168"
         y="144.38647" /></clipPath><clipPath
       clipPathUnits="userSpaceOnUse"
       id="clipPath86"><rect
         style="fill:none;fill-opacity:0;stroke:#000000;stroke-width:0.372959"
         id="rect86"
         width="479.94672"
         height="269.97003"
         x="1239.3168"
         y="144.38647" /></clipPath><clipPath
       clipPathUnits="userSpaceOnUse"
       id="clipPath87"><rect
         style="fill:none;fill-opacity:0;stroke:#000000;stroke-width:0.372959"
         id="rect87"
         width="479.94672"
         height="269.97003"
         x="1239.3168"
         y="144.38647" /></clipPath></defs><sodipodi:namedview
     id="namedview301"
     pagecolor="#ffffff"
     bordercolor="#000000"
     borderopacity="0.25"
     inkscape:showpageshadow="2"
     inkscape:pageopacity="0.0"
     inkscape:pagecheckerboard="0"
     inkscape:deskcolor="#d1d1d1"
     inkscape:zoom="1.4142136"
     inkscape:cx="411.53615"
     inkscape:cy="319.25871"
     inkscape:window-width="2560"
     inkscape:window-height="1417"
     inkscape:window-x="-8"
     inkscape:window-y="-8"
     inkscape:window-maximized="1"
     inkscape:current-layer="svg301" /><path
     id="rest"
     clip-path="url(#clipPath34)"
     d="m 1264.1,333.3 0.3,0.1 0.2,-0.1 0.4,0.7 -0.1,0.2 0.1,0.9 v 0.7 l -0.2,0.4 -0.1,-0.4 -0.6,-0.8 0.1,-0.4 -0.2,-0.7 v -0.4 z m 397.6,-102.3 -1.4,-1.1 -1.9,-3.3 2.5,-0.1 -3.9,-7.5 -4.7,-5.4 2.9,-2.2 6.9,1.1 -0.6,-6.2 -2.8,-6.8 0.3,-2.3 -1.3,-5.7 -6.9,1.9 -2.6,2.4 h -7.6 l -6,-5.8 -9,-4.5 -10,-2 -6.2,-6 -4.5,-3.8 -3.8,-2.7 -7.7,-6.2 -6,-2.2 -8.6,-1.9 -6.2,0.2 -5.1,1.1 -1.7,3.1 3.7,1.4 2.5,3.4 -1.3,2 0.2,6.5 1.9,2.8 -4.4,3.9 -7.4,-2.4 -5.6,0.6 -3.9,-2.1 -3.4,-0.7 -4.4,4.4 -5.9,1 -3.6,1.6 -6.8,-1 h -4.6 l -4.9,-3.2 -6.6,-2.9 -5.4,-0.9 -5.7,0.8 -4,1.2 -8.5,-2.6 -3.6,-4.6 -6.7,-1.6 -4.8,-0.8 -7,-2.5 -1.3,6.4 4,3.6 -2.4,4.4 -8,-1.6 -5,-0.2 -4.8,-2.9 -5.2,-0.1 -5.3,-1.9 -5.9,2.9 -6.7,5.3 -4.7,1.1 -1.7,0.5 -4.4,-3.8 -6,0.9 -3.3,-2.7 -4,-1.2 -4.1,-3.6 -3.3,-1.1 -6.2,1.6 -8.4,-3.5 -1.1,3.2 -18.3,-15.6 -8.4,-4.7 0.8,-2 -9.2,5.8 -4.4,0.3 -1.1,-3.3 -7.1,-2.1 -4.3,1.5 -4.4,-6.3 -9.1,-1.3 -3.1,2.5 -10.9,2.3 -1.7,1.5 -17,2.1 -1.4,2.1 5.1,4.2 -4,1.6 1.5,1.6 -3.5,3 9.4,4.3 -0.2,2.9 -7,-0.3 -0.8,1.9 -7.3,-3.2 -7.7,0.1 -4.4,2.6 -6.6,-2.5 -12,-4.3 -7.6,0.2 -8.1,6.7 0.6,4.5 -6,-3.6 -2.2,6.9 1.8,1.2 -1.7,4.8 5.3,4.2 3.6,-0.2 4.3,4.2 0.2,3.2 2.8,1.1 -1.4,3.7 -4.6,1 -3.6,6.5 6,6.1 0.4,4.2 7.3,7.5 -2.5,2.6 -0.6,1.6 -2.4,-0.5 -4.3,-3.8 -1.5,-0.2 -3.6,-1.5 -2.1,-2.6 -5.1,-1.3 -2.9,1 -1.2,-1.2 -7.6,-3.1 -7.7,-1 -4.6,-1.1 -0.4,0.8 -7.6,-5.4 -6.2,-2.4 -5.1,-3.7 3.6,-1 3.2,-5.2 -3.3,-2.5 6.9,-2.6 -0.4,-1.4 -4.3,1 -0.4,-2.7 2.2,-1.8 4.8,-0.4 0.3,-2.1 -1.8,-3.5 1.3,-3.2 -0.4,-1.9 -7.7,-2 -2.9,0.1 -3.6,-2.9 -3.6,1 -6.7,-2.2 -0.1,-1.2 -2.3,-2.7 -3.9,-0.3 -0.8,-1.9 0.9,-1.3 -3.8,-3.5 -4.9,0.6 -1.5,-0.3 -1,1.4 -1.8,-0.2 -2,-4 -1.5,-2 0.8,-0.6 3.9,0.2 1.6,-1.3 -1.7,-1.6 -3.4,-1.1 v -1.1 l -2.1,-1.1 -3.8,-4 0.7,-1.6 -1.1,-2.9 -4.8,-1.4 -2.4,0.7 -0.9,-1.5 -5.3,-1.5 -2.1,-3.6 -1,-2.9 -2.5,-1.3 1.6,-1.9 -2.4,-5.6 2.6,-3.4 -0.9,-1 4.5,-3.3 -5.4,-2.8 8,-7.4 3.4,-3.4 0.9,-2.9 -7.4,-3.9 0.9,-3.8 -4.9,-4.2 1.7,-4.8 -6.5,-6.3 2.9,-4.2 -7.3,-3.7 -0.4,-3.8 3.2,-0.5 6.4,-2.1 3.7,-1.9 7.7,3.2 11.7,1.3 17.7,6.2 4.1,2.6 1.5,3.7 -3.7,2.9 -6.5,1.5 -20.2,-4.2 -2.9,0.7 8.1,4.1 1,2.6 1.9,5.8 6.1,1.7 3.8,1.5 -0.2,-2.8 -3.4,-2.4 2.1,-2.2 11.6,3.6 3.2,-1.4 -4.3,-4.2 8.1,-5.4 4.1,0.3 4.6,1.9 1.1,-3.8 -4.7,-3.3 0.8,-3.3 -4.3,-3.4 12.3,1.8 3.6,3 -5.1,0.7 1.2,3.1 4.1,1.9 6,-1.2 -0.4,-3.5 7.7,-2.7 12.4,-4.6 3.2,0.2 -2.5,3.3 5.4,0.6 2.1,-1.9 7.7,-0.1 5,-2.3 6.4,3.3 2.8,-3.6 -6,-3.1 1.2,-1.8 13,1.6 6.6,1.7 18.6,6.2 1.1,-2.8 -5.9,-2.9 -0.8,-1.1 -5.3,-0.6 -0.2,-2.5 -4.7,-4.2 -1.1,-1.7 4.3,-4.7 -0.6,-4.8 2.2,-1 11.4,1.4 2.9,2.9 -0.9,4.2 3.7,1.7 3.8,3.7 3.8,7.4 6.7,3.3 0.5,3.7 -3.5,7.8 5.3,0.8 0.5,-2 3.8,-1.4 -0.5,-2.7 1.9,-2.7 -4.4,-3.1 -0.4,-3.6 -4.8,-0.4 -2.9,-3 -0.4,-5.4 -8.2,-4.3 4.7,-3.5 -3.7,-3.7 1.9,-0.1 4.2,2.8 2.1,5.1 5,1 -4.6,-3.8 5.1,-2.1 8.1,-0.3 9.6,3 -6.9,-4.3 -4.9,-5.5 5.9,-1 9.5,0.2 7.8,-0.7 -5.6,-2.6 1.3,-3.3 4.2,-0.2 4.9,-2.4 9.3,-0.7 -0.2,-1.4 9.3,-0.4 4.3,1.1 5.4,-2.6 7,0.1 -1.5,-2.2 0.9,-2 6.2,-2 8.3,1.6 -3.5,1.2 9.4,0.7 4.1,2.4 1.9,-1.2 10.9,0.1 11.6,2.4 5.5,1.8 2.5,2.6 -2.4,1.5 -6.6,2.8 -1.1,1.5 5.6,0.7 7.2,1.3 2.4,-1 5.8,3.3 0.2,-1.3 5.2,-0.8 13.6,0.8 3.8,2.4 17.4,0.8 -4.8,-3.9 9.5,0.9 6.1,-0.1 9.9,2.7 6,3.3 0.4,2.2 10.1,4.2 9,2.1 -3,-5.5 9.4,2.3 5,-1.4 9.8,1.6 1,-1.4 7.6,0.7 -9.4,-4.9 2.1,-2.2 40.4,3.4 7.9,3.1 16.3,4 14.8,-1 9.3,0.9 6.6,2.2 5.1,3.9 7.3,1.5 3.9,-1.1 7,-0.1 9.3,1 6.9,-0.6 14.3,4.8 2.5,-1.7 -8.5,-3.4 -1.8,-2.4 15.3,1.5 8,-0.3 15.8,2.5 9.5,2.4 33.2,22.1 -2,2.5 -6.2,-0.4 8.2,3 9.1,4.7 4.2,1.5 3.8,2.4 1,1.5 -10,-1.2 -6.6,4.3 -3,0.7 -1.6,4.1 -2,3.6 1.7,2.7 -11.5,-4.1 -6.1,4.6 -4.7,-2.2 -1.4,2.6 -7,-0.9 3.1,3.9 1.1,5.8 2.9,2.4 6.8,1.3 9.1,8.7 -4.1,0.3 3.4,5 4.7,2.6 -5,3.1 5.4,7 -5.7,1.5 4.5,6.2 -1.7,5.8 -5.7,-4.3 -10.5,-8.9 -16.2,-13.6 -6.5,-8.3 0.1,-3.6 -2.8,-2.8 5.7,-1.3 -0.2,-7.5 0.7,-6 2.5,-4.7 -6.6,-8.2 -4.7,0.5 3.2,4.8 -3.6,6.4 -12.3,-7.2 -9.1,2 v 9.8 l 7.7,3.6 -8.5,1.6 -6.4,0.6 -4.3,-4.3 -8,-0.9 -2.5,2.9 -15.1,-1 -13.2,1.7 -3.5,11.7 -5,14.2 8.2,0.8 5.7,3.8 5.8,1.3 0.4,-3 5.6,0.4 12.8,6.7 4.7,5.2 1.4,6.2 5.5,7.4 5.3,9.9 -1,9.1 1.3,4.3 -2,7.4 -2.1,7.3 -0.9,3.7 -4.6,3.7 -3.1,0.1 -5.2,-3.1 -4.1,4.7 z m 27.8,-53.6 13.7,11 -8.9,-2 3.7,9 9.6,6.4 3,4.4 -6.5,-3.8 0.1,4.9 -4.7,-5.3 -3.8,-6.1 -5.6,-6.7 -2.4,-4.8 -6.4,-8.2 -8,-6.1 -6.8,-8.4 1.9,-2.8 -4.4,-2.8 1.3,-0.9 4.9,4 6.9,5.9 5.2,6.1 z m -405.7,217.5 -4,1.7 -0.9,2.9 v 2.2 l -5.4,2.7 -8.8,3 -4.7,4.5 -2.5,0.4 -1.7,-0.4 -3.2,2.7 -3.5,1.2 -4.7,0.3 -1.4,0.4 -1.1,1.7 -1.5,0.5 -0.8,1.6 -2.8,-0.2 -1.7,0.9 -4,-0.3 -1.6,-3.8 v -3.5 l -1,-1.9 -1.3,-4.7 -1.8,-2.6 1.1,-0.4 -0.7,-2.9 0.6,-1.2 -0.4,-2.8 2.4,-2.1 -0.8,-2.7 1.3,-3.1 2.4,1.6 1.5,-0.6 6.4,-0.1 1.1,0.6 5.5,0.7 2.1,-0.3 1.5,2.1 2.6,-1.1 3.5,-6.7 5,-2.9 15.9,-2.5 5.2,10.6 z m 302.7,-31.4 -6.5,5.4 -3.7,6.1 -0.6,4.5 5.3,6.7 6.5,8.4 5.7,4 4.1,5.1 4,11.9 0.4,11.3 -4.3,4.2 -6.1,4.2 -4.2,5.3 -6.6,6 -2.3,-4.1 1.2,-4.4 -4.4,-3.6 4.6,-2.6 5.9,-0.5 -2.8,-3.8 9,-5 -0.1,-7.7 -1.8,-4.3 0.2,-6.4 -2,-4.5 -4.9,-4.5 -4.4,-5.6 -5.7,-7.6 -7.3,-3.9 1.2,-2.3 3.3,-1.7 -3,-5.6 h -6.8 l -3.5,-5.8 -4,-5.1 2.7,-1.6 4.4,0.1 5.3,-0.8 4.1,-3.4 3.1,2.4 5.3,1.2 -0.3,3.7 3.1,2.6 z m -233.8,-132.8 1.7,0.6 -3,4.1 4.6,2.4 3.2,-1.6 7.2,3.4 -5.3,4.6 -4.1,-0.6 -2.1,0.1 -1.3,-1.7 0.2,-3 -6.5,1.5 -0.5,4.1 -1.5,3.5 -4.4,-0.3 -0.6,2.8 4.2,1.5 2.4,4.8 -1.3,6.5 -4.3,-1.4 h -3 l -0.8,-3.9 -7.7,-2.8 -6.3,-3.1 -4.2,-3 -7.1,-4.4 -4.3,-6.6 -2.1,-1.2 -5.5,0.3 -2.3,-1.3 -1.9,-5 -7.9,-3.4 -3.4,3.7 -3.8,2.2 1.7,3.2 -5.9,0.1 -6.2,-23.4 12,-3.7 1.1,0.5 9.2,4.5 4.8,2.4 6.6,5.7 5.7,-0.9 8.6,-0.5 7.6,4.6 1.5,6.4 2.6,0.1 2.5,5.2 6.7,0.2 2.3,3 h 2 l 0.9,-4.6 5.4,-4.4 z m 305.2,124.8 -1.4,5.3 -4,-5.5 -1.5,-4.7 1.9,-6.3 3.3,-4.9 3,1.9 -0.1,3.9 z m -319.6,-93.5 -1.6,-0.2 -2.9,-1.7 -0.3,2.2 -4.2,1.3 0.2,5.1 -2.6,2 -4,0.9 -0.4,2.9 -3.9,0.9 -5.9,-2.5 -1.7,-5.3 -4,-0.3 -7.3,-5.6 -4.3,-0.7 -6.6,-3.3 -3.9,-0.6 -2,1.2 -3.6,-0.2 -3,3.7 -4.4,1.2 -1.9,-4.5 -0.6,-6.7 -4.6,-2.2 0.4,-4.3 -3.5,-0.4 -0.1,-5.4 5.3,1.6 4.1,-2 -4.7,-3.9 -2.4,-3.6 -3.8,1.6 0.6,4.7 -2.6,-4.1 1.8,-2.2 5.6,-1.3 3.9,1.8 4.8,5 2.6,-0.3 5.9,-0.1 -1.7,-3.2 3.8,-2.2 3.4,-3.7 7.9,3.4 1.9,5 2.3,1.3 5.5,-0.3 2.1,1.2 4.3,6.6 7.1,4.4 4.2,3 6.3,3.1 7.7,2.8 z m 18.7,-18.4 -1.4,1.9 -6,-1 0.6,3.6 5.5,-0.5 7.1,2.1 9.6,-1 3.1,6 1.5,-0.7 3.7,1.5 0.5,2.5 1.8,3.6 h -5.4 l -3.8,-0.5 -2.5,2.9 -2.2,0.6 -1.5,1.4 -2.7,-2.1 -0.9,-5.4 -1.7,-0.3 0.1,-2 -3.3,-1.4 -1.7,2.2 0.2,2.6 -0.6,0.9 -3.2,-0.1 -0.9,2.9 -2.1,-1.2 -3.4,2 -1.8,-0.7 1.3,-6.5 -2.4,-4.8 -4.2,-1.5 0.6,-2.8 4.4,0.3 1.5,-3.5 0.5,-4.1 6.5,-1.5 -0.2,3 1.3,1.7 z m 220.5,166.6 -5.3,-0.9 -7.1,1.2 -3.1,5.3 2.1,7.8 -5.3,-3 -4.8,0.2 0.3,-5.1 h -4.9 l 0.2,7.1 -2.2,9.4 -1.4,5.7 0.7,4.6 3.7,0.2 2.7,5.9 1.3,5.5 3.4,3.7 3.4,0.7 3.1,3.4 -1.7,2.6 -3.7,0.8 -0.6,-3.3 -4.8,-2.8 -0.9,1.1 -2.3,-2.4 -1.2,-3.2 -3.2,-3.6 -2.9,-3.1 -0.7,3.8 -1.3,-3.6 0.4,-4 1.2,-6.1 2.2,-6.6 2.6,-6 -2.7,-5.9 -0.2,-3 -1,-3.6 -4.3,-5.1 -1.8,-3.2 1.8,-1.2 1.4,-5.5 -2.9,-4.3 -4.1,-4.7 -3.5,-5.6 2.2,-1.2 1.5,-6.9 3.9,-0.3 2.8,-2.8 3,-1.5 2.7,2 0.9,3.9 3.8,0.3 -0.4,6.7 1,5.8 5.3,-3.8 1.9,1.1 3.2,-0.2 0.8,-2.2 4.3,0.4 5,5.2 1.3,6.4 5.3,5.6 0.4,5.4 z m -337,-95.2 5,0.6 1.7,3.1 3.9,-0.2 2.7,5.6 2.9,1.4 1.2,2.3 4,2.7 0.7,2.6 -0.4,2.2 0.9,2.1 1.8,1.8 0.9,2.1 1,1.6 1.8,1.3 1.5,-0.5 1.3,2.5 0.3,1.4 2.7,6.6 16.9,3.2 1,-1.4 3,4.6 -2.6,12.8 -16.3,6.4 -15.9,2.5 -5,2.9 -3.5,6.7 -2.6,1.1 -1.5,-2.1 -2.1,0.3 -5.5,-0.7 -1.1,-0.6 -6.4,0.1 -1.5,0.6 -2.4,-1.6 -1.3,3.1 0.8,2.7 -2.4,2.1 -0.9,-2.8 -1.8,-1.9 -0.5,-2.6 -3.1,-2.3 -3.3,-5.4 -1.9,-5.2 -4.1,-4.4 -2.5,-1.1 -4.1,-6.1 -0.9,-4.4 v -3.8 l -3.6,-7.2 -2.8,-2.5 -3,-1.3 -2.1,-3.7 0.2,-1.4 -1.8,-3.4 -1.7,-1.4 -2.5,-4.8 -3.8,-5.1 -3.1,-4.4 h -2.7 l 0.5,-3.5 0.1,-2.3 0.4,-2.6 6.2,1.1 2.1,-2 1.1,-2.3 4.1,-0.9 0.7,-2.2 1.6,-1 -6,-6.5 10.4,-3.2 0.9,-1 6.8,1.8 8.6,4.5 16.8,12.9 z m 29.6,28.7 -1.5,0.5 -1.8,-1.3 -0.8,-4.7 1.1,-3.3 1.5,-0.7 1.8,2 0.5,3.7 z m 390.2,-113.8 1.4,1.1 -2.2,-0.4 -1,2.2 -0.3,2.1 2.8,4.6 -1.9,1.4 -0.3,1.1 -0.9,1.9 -2.9,1.1 -1.4,1.7 1.3,2.7 -0.3,0.7 2.6,1.1 4.4,2.8 v 1.5 l -2,0.4 -3.6,0.4 -0.6,2.8 -2.5,-0.2 v 0.6 l -3.2,-1.2 -0.1,1.2 -1.3,0.5 -0.7,-1.2 -1.7,-0.6 -1.9,-1 0.1,-2.8 0.9,-0.8 -1,-1.1 -0.4,-3.5 -0.9,-1 -3.4,-0.7 -3.4,-1.7 2.1,-4.1 3.9,-3.4 1.1,-4.6 3.6,2 4.6,0.3 -2.8,-3.4 6.4,-2.7 v -3.6 z m 3.4,153.1 3.8,1.9 1.4,-1.7 0.8,1.6 -0.4,2.7 2.6,4.6 -0.6,5.3 -2.9,2.1 -0.1,5.2 2,5.1 3,0.7 2.4,-0.7 7.5,3.5 -0.1,3.5 2.1,1.6 -0.3,2.9 -4.7,-3.1 -2.5,-3.4 -1.2,2.4 -4,-3.9 -5,1 -3,-1.4 -0.1,-2.7 1.6,-1.6 -1.9,-1.5 -0.4,2.3 -3.3,-3.7 -1.3,-2.8 -1.1,-6.1 2.6,2.1 -1.1,-10.1 0.8,-5.8 z m -262.1,-109.1 -3.8,5.4 -5.7,1 -8.5,-1.6 -2,2.8 3.3,5.6 2.9,4.4 5.1,3.1 -3.8,3.7 1,4.6 -3.9,6.5 -2.2,6.5 -4.5,6.7 -6.5,-0.5 -4.9,6.8 4,2.8 1.4,5 3.5,3.2 1.8,5.5 h -12.1 l -3.2,4.3 -4.2,-1.6 -2.2,-4.6 -4.9,-4.9 -10,1.2 -9,0.1 -7.6,0.9 1.1,-7.4 7.5,-3.4 -0.9,-2.9 -2.7,-1.1 -1,-5.6 -5.7,-2.8 -2.8,-3.9 -3.2,-3.4 9.6,3.3 5.3,-1 3.4,0.8 0.9,-1.4 3.9,0.6 6.6,-2.7 -0.8,-5.4 2.3,-3.7 h 4.1 l 0.2,-1.7 4,-0.9 2.1,0.6 1.8,-1.8 -1.1,-3.9 1.4,-3.8 3.1,-1.7 -3.1,-4.2 5.2,0.2 0.9,-2.3 -0.8,-2.5 2,-2.7 -1.4,-3.2 -1.9,-2.7 2.4,-2.8 5.3,-1.3 5.9,-0.8 2.4,-1.1 2.9,-0.8 4.7,3 2.9,5 z m -105.4,62.8 -1.3,-2.2 1.4,-2.1 0.7,0.5 -0.2,2.7 z m -12.4,58.2 -2.2,-4.5 -5.2,-10.6 16.3,-6.4 2.6,-12.8 -3,-4.6 v -2.6 l 1.3,-2.6 -0.2,-2.6 2.4,-1.3 -1.1,-0.9 v -4.2 h 2.8 l 3,4.4 3.3,2.3 4.1,0.9 3.4,1.1 2.9,3.7 1.7,2.1 2,0.9 0.2,1.4 -1.7,3.8 -0.7,1.8 -2.2,2.1 -1.7,4.4 -2.5,-0.4 -1,1.6 -0.7,3.2 1.1,4.3 -0.5,0.8 h -2.5 l -3.3,2.4 -0.3,3.1 -1.2,1.4 -3.5,-0.1 -2,1.6 0.2,2.6 -2.6,1.8 -3.1,-0.6 -3.6,2.2 z m 185.2,-72 0.2,2.7 1.5,4.1 -0.1,2.5 -4.6,0.1 -6.9,-1.5 -4.3,-0.6 -3.8,-3.2 -7.7,-0.9 -7.8,-3.6 -5.8,-3.1 -5.8,-2.4 0.9,-6 2.8,-3 1.9,-1.5 4.8,2 6.4,4.2 3.3,0.9 2.5,3.1 4.5,1.2 5,2.9 6.5,1.4 z m 27.2,-141.4 4,-1.2 5.7,-0.8 5.4,0.9 6.6,2.9 4.9,3.2 h 4.6 l 6.8,1 3.6,-1.6 5.9,-1 4.4,-4.4 3.4,0.7 3.9,2.1 5.6,-0.6 0.6,4.7 0.3,6.3 2.8,2.5 2.3,-0.8 5.5,1 2.5,-2.3 5.2,2 7.2,4.4 0.8,2.2 -4.4,-0.7 -6.8,0.8 -2.5,1.8 -1.3,4.2 -6.4,2.4 -3.2,3.4 -5.9,-1.3 -3.2,-0.6 -0.5,4.1 2.9,2.4 1.9,2.1 -2.4,2.2 -2,3.4 -4.9,2.2 -7.6,0.2 -7.2,2.2 -4.4,3.4 -3.3,-1.9 h -6.2 l -9.4,-3.9 -5.6,-0.9 -6.4,0.9 -11.3,-1.5 -5.6,0.2 -4.7,-3.8 -5,-5.8 -3.4,-0.7 -8,-4 -7.2,-0.8 -6.5,-1.1 -3,-2.8 -1.4,-7.3 -5.8,-5.1 -8.2,-2.3 -5.7,-3.3 -3.3,-4.4 4.7,-1.1 6.7,-5.3 5.9,-2.9 5.3,1.9 5.2,0.1 4.8,2.9 5,0.2 8,1.6 2.4,-4.4 -4,-3.6 1.3,-6.4 7,2.5 4.8,0.8 6.7,1.6 3.6,4.6 z m 52.2,182.7 -4.1,4.2 -0.8,2.3 -3,1.5 -2.8,2.8 -3.9,0.3 -1.5,6.9 -2.2,1.2 3.5,5.6 4.1,4.7 2.9,4.3 -1.4,5.5 -1.8,1.2 1.8,3.2 4.3,5.1 1,3.6 0.2,3 2.7,5.9 -2.6,6 -2.2,6.6 -0.9,-4.8 1.3,-4.9 -2.2,-3.8 -0.2,-7 -2.6,-3.4 -2.7,-7.6 -2,-8.1 -3.1,-5.4 -3.2,3.3 -5.8,4.5 -3.3,-0.5 -3.6,-1.5 0.9,-8 -2,-6 -5.3,-7.4 0.3,-2.3 -3.4,-0.9 -4.6,-5.2 -1.1,-5.2 2.1,1 -0.6,-4.6 2.5,-1.5 -1,-2.7 1,-2.2 -0.9,-6.7 4.6,1.5 1.6,-5.3 -0.3,-3.1 2,-5.4 -0.9,-3.7 6.2,-4.4 4.2,1.1 -1.4,-3.9 1.7,-1.2 -1,-2.4 3.1,-0.5 2.7,3.8 2.7,1.5 1.3,4.9 0.9,5.3 -4.2,5.4 0.7,7.6 5.6,-1.1 2.4,5.9 3.7,1.3 -0.8,5.3 4.5,2.4 2.6,1.2 3.8,-1.9 z m 41.4,46.4 -5.3,-2.3 -2,4.4 -5,-2.5 1.5,-2.9 -0.4,-5.4 -5.3,-5.6 -1.3,-6.4 -5,-5.2 -4.3,-0.4 -0.8,2.2 -3.2,0.2 -1.9,-1.1 -5.3,3.8 -1,-5.8 0.4,-6.7 -3.8,-0.3 -0.9,-3.9 -2.7,-2 0.8,-2.3 4.1,-4.2 0.8,1.5 3,0.2 -2,-7.4 2.7,-0.9 4,5.1 3.5,5.8 h 6.8 l 3,5.6 -3.3,1.7 -1.2,2.3 7.3,3.9 5.7,7.6 4.4,5.6 4.9,4.5 2,4.5 z m -342.3,-101.2 1.5,2.8 -0.3,1.5 2.4,4.8 -3.9,0.2 -1.7,-3.1 -5,-0.6 3.3,-6.2 z m 405.4,-49.9 v -0.6 l 2.5,0.2 0.6,-2.8 3.6,-0.4 2,-0.4 V 254 l 8.3,7.5 3.3,4.2 3.4,7.4 -0.5,3.5 -4.3,1.2 -3.1,2.7 -4.6,0.5 -2.1,-3.5 -1.1,-4.8 -5.3,-6.6 3.4,-1.1 z m -63.1,151.1 1.8,4.3 0.1,7.7 -9,5 2.8,3.8 -5.9,0.5 -4.6,2.6 -4.8,-0.9 -2.6,-3.4 -3.5,-6.6 -2.1,-7.8 3.1,-5.3 7.1,-1.2 5.3,0.9 5,2.5 2,-4.4 z m -189.3,-180.4 -0.2,1.4 -6.9,3.4 -1,2.6 -6.4,0.7 -0.6,4.1 -5.8,-0.9 -3.2,1.3 -4.1,3 1.2,1.5 -1.1,1.4 -9.6,1 -7.1,-2.1 -5.5,0.5 -0.6,-3.6 6,1 1.4,-1.9 4.1,0.6 5.3,-4.6 -7.2,-3.4 -3.2,1.6 -4.6,-2.4 3,-4.1 -1.7,-0.6 0.3,-2.8 3.1,-0.9 9.2,2.2 -0.5,-3.7 2.5,-1.4 8.2,2.7 1.6,-0.7 8.6,0.2 7.9,0.6 3.4,2.3 z m -62.2,-69.7 4.4,-0.3 9.2,-5.8 -0.8,2 8.4,4.7 18.3,15.6 1.1,-3.2 8.4,3.5 6.2,-1.6 3.3,1.1 4.1,3.6 4,1.2 3.3,2.7 6,-0.9 4.4,3.8 -1.9,4.2 -3.8,0.6 2.5,6.2 -1.6,2.9 -10.8,-2.1 1,11.3 -2,1.4 -9.1,2.5 8.8,11 -2.9,1.6 1.7,3.7 -3.5,-1 -3.4,-2.3 -7.9,-0.6 -8.6,-0.2 -1.6,0.7 -8.2,-2.7 -2.5,1.4 0.5,3.7 -9.2,-2.2 -3.1,0.9 -0.3,2.8 -2.6,1.2 -5.4,4.4 -0.9,4.6 h -2 l -2.3,-3 -6.7,-0.2 -2.5,-5.2 -2.6,-0.1 -1.5,-6.4 -7.6,-4.6 -8.6,0.5 -5.7,0.9 -6.6,-5.7 -4.8,-2.4 -9.2,-4.5 -1.1,-0.5 -12,3.7 6.2,23.4 -2.6,0.3 -4.8,-5 -3.9,-1.8 -5.6,1.3 -1.8,2.2 -0.6,-1.6 0.6,-2.6 -1.5,-2.2 -6.5,-2.2 -3.7,-5.7 -3.2,-1.6 -0.6,-2.1 5.1,0.6 -1,-4.6 4.1,-1 4.7,0.9 -0.7,-6.1 -1.9,-3.9 -5,0.3 -4.7,-1.5 -5.1,2.7 -4.4,1.4 -2.8,-1.1 -0.2,-3.2 -4.3,-4.2 -3.6,0.2 -5.3,-4.2 1.7,-4.8 -1.8,-1.2 2.2,-6.9 6,3.6 -0.6,-4.5 8.1,-6.7 7.6,-0.2 12,4.3 6.6,2.5 4.4,-2.6 7.7,-0.1 7.3,3.2 0.8,-1.9 7,0.3 0.2,-2.9 -9.4,-4.3 3.5,-3 -1.5,-1.6 4,-1.6 -5.1,-4.2 1.4,-2.1 17,-2.1 1.7,-1.5 10.9,-2.3 3.1,-2.5 9.1,1.3 4.4,6.3 4.3,-1.5 7.1,2.1 z m 382.9,58.1 4.5,1.3 1.8,-2.6 6,7.1 -6.4,1.7 -0.4,6.3 -10.9,-4.3 1.6,6.9 -5.7,0.1 -4.7,-6.3 -0.6,-4.9 5.2,-0.3 -4.4,-8.8 -1.8,-4.9 10.5,6.6 z m 11.9,44.8 0.6,5.1 2.5,3.2 -0.6,4.5 -5.4,3 -9.2,0.4 -4.4,7.4 -4.7,-2.5 -2.4,-4.8 -8.6,1.4 -5.1,3 -6.2,0.2 7.4,4.7 0.8,10.9 -2.5,2.7 -3.6,-2.5 -0.9,-5.8 -4.1,-1.8 -4,-4.4 4.3,-2 1.1,-4.1 3.9,-3.3 2,-4.4 9.7,-1.9 6.3,1.3 v -11.4 l 5.1,3.1 4.5,-6.4 1.7,-2.5 -1,-7.8 -5.1,-7.2 -0.2,-4 4.8,-1.2 8.2,8.9 2.8,5.1 -1.3,6.5 z m -24.6,19.2 1.6,2.2 -1.3,3.9 -3.1,-2.1 -2.1,1.5 0.1,3.7 -4.3,-1.8 -1.2,-3 1.3,-3.9 3.4,0.8 1,-2.7 z m -485,-19.4 4.7,7.6 3.8,2 0.9,3.7 -2.3,2.2 -0.5,5 4.6,6.1 7.1,3.6 3.5,4.8 -0.2,4.7 h 1.7 l 0.5,3.4 3.5,3.4 -3.3,-0.3 -3.7,-0.6 -3.3,6.2 -10.2,-0.5 -16.8,-12.9 -8.6,-4.5 -6.8,-1.8 -3.1,-7.8 11,-6.7 1,-7.7 -1.2,-4.7 2.7,-1.6 2.1,-4 2.1,-1 6.3,0.9 2.1,1.6 z m 5.5,-10 1.8,-0.2 5.3,-4.7 1.9,-0.5 1.9,1.9 -1.2,3.1 3.9,3.4 1.3,-0.4 2.5,4.8 5.3,1.3 4.3,3.2 7.7,1.1 8,-1.7 0.2,-1.5 4.4,-1.2 3,-3.7 3.6,0.2 2,-1.2 3.9,0.6 6.6,3.3 4.3,0.7 7.3,5.6 4,0.3 1.7,5.3 -0.6,8 -0.5,4.7 2.5,1 -1.6,3.5 2.7,5.1 1.2,4.1 4.3,1.1 1.1,4.1 -3.9,5.8 3.2,3.4 2.8,3.9 5.7,2.8 1,5.6 2.7,1.1 0.9,2.9 -7.5,3.4 -1.1,7.4 -10.6,-1.9 -6.2,-1.5 -6.3,-0.8 -3.3,-7.9 -2.8,-1.1 -4.1,1.1 -5.1,3.1 -7,-2.1 -6.1,-5 -5.5,-1.8 -4.4,-6.1 -5.2,-8.5 -2.8,1 -3.7,-2.1 -1.7,2.5 -3.5,-3.4 -0.5,-3.4 h -1.7 l 0.2,-4.7 -3.5,-4.8 -7.1,-3.6 -4.6,-6.1 0.5,-5 2.3,-2.2 -0.9,-3.7 -3.8,-2 -4.7,-7.6 -3.8,-5.1 0.7,-2 -2.9,-7.3 3.3,-1.9 1.2,2.5 3.2,2.9 z m 198.6,54.8 -2.8,3 -0.9,6 5.8,2.4 5.8,3.1 7.8,3.6 7.7,0.9 3.8,3.2 4.3,0.6 6.9,1.5 4.6,-0.1 0.1,-2.5 -1.5,-4.1 -0.2,-2.7 3.1,-1.4 1.5,5.1 0.4,1.2 5.5,2.5 3.2,-1 4.7,0.4 4.5,-0.2 -0.5,-3.9 -2.6,-2.1 4.2,-0.8 3.9,-4.8 5.4,-4 4.9,1.5 3.2,-2.7 3.6,4 -1.2,2.7 6.1,1 1,2.4 -1.7,1.2 1.4,3.9 -4.2,-1.1 -6.2,4.4 0.9,3.7 -2,5.4 0.3,3.1 -1.6,5.3 -4.6,-1.5 0.9,6.7 -1,2.2 1,2.7 -2.5,1.5 -4.4,-10.2 h -1.5 l -0.3,4.2 -3.6,-3.4 1.2,-3.6 2.4,-0.4 1.6,-5.4 -3.4,-1.1 -5.1,0.1 -5.4,-0.9 -1.2,-4.5 -2.7,-0.3 -4.9,-2.8 -1.2,4.4 4.6,3.4 -3,2.4 -0.9,2.3 3.7,1.7 -0.3,3.9 2.6,4.8 1.6,5.3 -0.5,2.4 -3.8,-0.1 -6.6,1.3 0.9,4.8 -2.4,3.8 -7.5,4.4 -5.3,7.5 -3.8,4.1 -5,4.2 0.3,2.9 -2.6,1.6 -4.8,2.3 -2.6,0.3 -1.2,4.9 1.9,8.4 0.7,5.3 -1.9,6.1 0.7,10.9 -2.9,0.3 -2.3,4.9 1.9,2.2 -5.1,1.8 -1.7,4.3 -2.2,1.9 -5.6,-6 -3.1,-9 -2.5,-6.5 -2.2,-3 -3.4,-6.2 -2,-8 -1.4,-4 -5.9,-8.8 -3.5,-12.5 -2.6,-8.2 -0.8,-7.8 -1.7,-6 -7.7,3.9 -4,-0.8 -8.1,-7.8 2.4,-2.3 -1.9,-2.5 -7.1,-5.5 3.2,-4.3 h 12.1 l -1.8,-5.5 -3.5,-3.2 -1.4,-5 -4,-2.8 4.9,-6.8 6.5,0.5 4.5,-6.7 2.2,-6.5 3.9,-6.5 -1,-4.6 3.8,-3.7 -5.1,-3.1 -2.9,-4.4 -3.3,-5.6 2,-2.8 8.5,1.6 5.7,-1 3.8,-5.4 7.7,7.6 0.8,5.2 3,3.3 0.6,3.3 -4.1,-0.9 3.2,7.1 6.2,4 z m 198,-122.5 9,4.5 6,5.8 h 7.6 l 2.6,-2.4 6.9,-1.9 1.3,5.7 -0.3,2.3 2.8,6.8 0.6,6.2 -6.9,-1.1 -2.9,2.2 4.7,5.4 3.9,7.5 -2.5,0.1 1.9,3.3 -5.5,-3.8 v 3.6 l -6.4,2.7 2.8,3.4 -4.6,-0.3 -3.6,-2 -1.1,4.6 -3.9,3.4 -2.1,4.1 -6.3,1.8 -2.4,3 -4.8,1.8 1.3,-3 -2.3,-2.5 2,-4.3 -4.5,-3.3 -3.4,2.2 -3.6,4.5 -1.3,4.1 -5,0.3 -1.3,3 4.8,4.3 4.8,1.1 1.4,2.8 5.1,1.9 3.8,-4.6 5.9,2.5 3.5,0.2 2.3,3.3 -6.7,1.8 -1,3.5 -3.8,3.2 -0.9,4.5 7.1,3.5 4.6,6.3 5.5,5.9 5.5,4.9 1.6,4.8 -2.8,1.8 2.4,3.4 3.9,2 0.8,5.2 0.1,5.1 -2.8,0.6 -2.1,6.9 -2.3,8.5 -3.4,7.6 -6.4,5.9 -6.6,5.5 -6.1,0.7 -2.9,2.8 -2.3,-2 -2.5,3.1 -7.2,3.3 -5.8,0.9 -0.7,6.8 -3.1,0.4 -2.2,-4.7 0.9,-2.4 -7.8,-2.1 -2.4,1.1 -5.9,-1.7 -3.1,-2.6 0.3,-3.7 -5.3,-1.2 -3.1,-2.4 -4.1,3.4 -5.3,0.8 -4.4,-0.1 -2.7,1.6 -2.7,0.9 2,7.4 -3,-0.2 -0.8,-1.5 -0.5,-2.7 -3.8,1.9 -2.6,-1.2 -4.5,-2.4 0.8,-5.3 -3.7,-1.3 -2.4,-5.9 -5.6,1.1 -0.7,-7.6 4.2,-5.4 -0.9,-5.3 -1.3,-4.9 -2.7,-1.5 -2.7,-3.8 -3.1,0.5 -6.1,-1 1.2,-2.7 -3.6,-4 -3.2,2.7 -4.9,-1.5 -5.4,4 -3.9,4.8 -4.2,0.8 -2.8,-1.7 -2.9,-0.2 -4.3,-1.4 -2.6,1.6 -2.6,4.8 -1.5,-5.1 -3.1,1.4 -6.5,-0.7 -6.5,-1.4 -5,-2.9 -4.5,-1.2 -2.5,-3.1 -3.3,-0.9 -6.4,-4.2 -4.8,-2 -1.9,1.5 -8.6,-4.5 -6.2,-4 -3.2,-7.1 4.1,0.9 -0.6,-3.3 -3,-3.3 -0.8,-5.2 -7.7,-7.6 -9.5,-2.5 -2.9,-5 -4.7,-3 -1.5,-1.8 -1.8,-3.6 -0.5,-2.5 -3.7,-1.5 -1.5,0.7 -3.1,-6 1.1,-1.4 -1.2,-1.5 4.1,-3 3.2,-1.3 5.8,0.9 0.6,-4.1 6.4,-0.7 1,-2.6 6.9,-3.4 0.2,-1.4 -1.7,-3.7 2.9,-1.6 -8.8,-11 9.1,-2.5 2,-1.4 -1,-11.3 10.8,2.1 1.6,-2.9 -2.5,-6.2 3.8,-0.6 1.9,-4.2 1.7,-0.5 3.3,4.4 5.7,3.3 8.2,2.3 5.8,5.1 1.4,7.3 3,2.8 6.5,1.1 7.2,0.8 8,4 3.4,0.7 5,5.8 4.7,3.8 5.6,-0.2 11.3,1.5 6.4,-0.9 5.6,0.9 9.4,3.9 h 6.2 l 3.3,1.9 4.4,-3.4 7.2,-2.2 7.6,-0.2 4.9,-2.2 2,-3.4 2.4,-2.2 -1.9,-2.1 -2.9,-2.4 0.5,-4.1 3.2,0.6 5.9,1.3 3.2,-3.4 6.4,-2.4 1.3,-4.2 2.5,-1.8 6.8,-0.8 4.4,0.7 -0.8,-2.2 -7.2,-4.4 -5.2,-2 -2.5,2.3 -5.5,-1 -2.3,0.8 -2.8,-2.5 -0.3,-6.3 -0.6,-4.7 7.4,2.4 4.4,-3.9 -1.9,-2.8 -0.2,-6.5 1.3,-2 -2.5,-3.4 -3.7,-1.4 1.7,-3.1 5.1,-1.1 6.2,-0.2 8.6,1.9 6,2.2 7.7,6.2 3.8,2.7 4.5,3.8 6.2,6 z m -23.4,196.4 -4.3,3.1 -4.9,-2 -1,-5.5 2.2,-2.9 5.8,-1.8 3.3,0.1 1.6,2.5 -2,2.8 z m -113.4,-58.4 2.6,2.1 0.5,3.9 -4.5,0.2 -4.7,-0.4 -3.2,1 -5.5,-2.5 -0.4,-1.2 2.6,-4.8 2.6,-1.6 4.3,1.4 2.9,0.2 z m 11.8,36.8 0.6,4.6 -2.1,-1 1.1,5.2 -2.1,-3.3 -0.8,-3.3 -1.5,-3.1 -2.8,-3.7 -5.2,-0.3 0.9,2.7 -1.2,3.5 -2.6,-1.3 -0.6,1.2 -1.7,-0.7 -2.2,-0.6 -1.6,-5.3 -2.6,-4.8 0.3,-3.9 -3.7,-1.7 0.9,-2.3 3,-2.4 -4.6,-3.4 1.2,-4.4 4.9,2.8 2.7,0.3 1.2,4.5 5.4,0.9 5.1,-0.1 3.4,1.1 -1.6,5.4 -2.4,0.4 -1.2,3.6 3.6,3.4 0.3,-4.2 h 1.5 z m -265.3,-124.1 2.5,-2.6 3.5,3.3 3.6,4.6 2.5,0.3 1.9,1.7 -4.2,0.5 0.1,5 -0.4,2.2 -1.7,1.5 0.8,3.1 -1.3,0.4 -3.9,-3.4 1.2,-3.1 -1.9,-1.9 -1.9,0.5 -5.3,4.7 -0.9,-4.5 -2.5,-1 -2.6,-1.7 1.1,-2.1 -3.2,-2.2 0.7,-1.6 -2.2,-1.1 -1.4,-1.6 1.1,-1.1 4.2,1.9 2.9,0.3 0.6,-0.7 -3.3,-3.5 1.2,-0.8 1.5,0.2 4.3,3.8 2.4,0.5 z m 60.9,100.5 1.3,5.1 h -2.8 v 4.2 l 1.1,0.9 -2.4,1.3 0.2,2.6 -1.3,2.6 v 2.6 l -1,1.4 -16.9,-3.2 -2.7,-6.6 -0.3,-1.4 0.9,-0.4 0.4,1.8 4.2,-1 4.6,0.2 3.4,0.2 3.3,-4.4 3.7,-4.1 3,-4 z m 86.8,-75.1 1.5,1.8 -2.9,0.8 -2.4,1.1 -5.9,0.8 -5.3,1.3 -2.4,2.8 1.9,2.7 1.4,3.2 -2,2.7 0.8,2.5 -0.9,2.3 -5.2,-0.2 3.1,4.2 -3.1,1.7 -1.4,3.8 1.1,3.9 -1.8,1.8 -2.1,-0.6 -4,0.9 -0.2,1.7 h -4.1 l -2.3,3.7 0.8,5.4 -6.6,2.7 -3.9,-0.6 -0.9,1.4 -3.4,-0.8 -5.3,1 -9.6,-3.3 3.9,-5.8 -1.1,-4.1 -4.3,-1.1 -1.2,-4.1 -2.7,-5.1 1.6,-3.5 -2.5,-1 0.5,-4.7 0.6,-8 5.9,2.5 3.9,-0.9 0.4,-2.9 4,-0.9 2.6,-2 -0.2,-5.1 4.2,-1.3 0.3,-2.2 2.9,1.7 1.6,0.2 h 3 l 4.3,1.4 1.8,0.7 3.4,-2 2.1,1.2 0.9,-2.9 3.2,0.1 0.6,-0.9 -0.2,-2.6 1.7,-2.2 3.3,1.4 -0.1,2 1.7,0.3 0.9,5.4 2.7,2.1 1.5,-1.4 2.2,-0.6 2.5,-2.9 3.8,0.5 z"
     inkscape:label="rest" /><path
     style="fill:url(#pattern314);fill-opacity:1;stroke:#000000;stroke-width:0.1;stroke-dasharray:none"
     d="m 1495.3762,358.10539 0.464,-0.30936 0.3535,0.64081 -0.5082,0.26517 z"
     id="Chittagong"
     inkscape:label="Chittagong"
     clip-path="url(#clipPath13)" /><path
     style="fill:url(#pattern354);fill-opacity:1;stroke:#000000;stroke-width:0.1;stroke-dasharray:none;stroke-opacity:1"
     d="m 1480.8125,335 -1.3125,-4.625 3.3125,-1.1875 4.6875,0.4375 4.4375,-0.25 3.25,-1.25 4.1875,-0.875 4.8125,-3.5 6.625,-1.875 0.25,2.5625 2.1875,1.5625 -5.3125,1.9375 -3.5,2.375 -3.625,3.125 -2.1875,2.5 0.4375,1.25 0.3125,1.5625 -0.75,3.3125 -0.625,2.125 -1.4375,0.6875 -1.375,-0.8125 0.75,-2.5625 0.75,-2.375 -1.5625,-1.4375 -1.875,-2.875 -4.4375,-0.0625 -5.3125,0.0625 -1.8125,0.125 -0.125,2.5625 z"
     id="Assam"
     inkscape:label="Assam"
     clip-path="url(#clipPath12)" /><path
     style="fill:url(#pattern355);fill-opacity:1;stroke:#000000;stroke-width:0.1;stroke-dasharray:none;stroke-opacity:1"
     d="m 1479.1875,330.125 -5.125,-2.3125 -1.9375,-6.375 -2.9375,1.4375 -0.062,2.875 1.625,3.875 -0.1875,2.4375 2.0625,2.1875 1.3125,-4.3125 5.562,2.0625 z"
     id="Gorkhaland"
     inkscape:label="Gorkhaland"
     clip-path="url(#clipPath11)" /><path
     style="fill:url(#pattern378);fill-opacity:1;stroke:#000000;stroke-width:0.1;stroke-dasharray:none;stroke-opacity:1"
     d="m 1384.375,263.125 -2.875,1.125 -2.375,1.125 0.25,0.625 -4.25,1.375 0.25,2.875 -0.125,3.25 1.375,0.625 -0.125,3.25 1.375,4.875 1.75,3.875 2.75,3.125 10.75,5.375 1.5,-0.375 3.375,-4.75 5.5,1 6,1.875 4.25,0.875 -0.625,-3.625 -3.125,-2.875 -0.75,-4 3.5,-1.375 3.125,-2.875 0.625,-1.625 -1.625,-5.375 -1.375,-1.375 -4.375,-1.625 -7,5.75 -1.5,-0.75 -5.375,-1.5 -6,-5.875 z"
     id="Kashmir"
     inkscape:label="Kashmir"
     clip-path="url(#clipPath10)" /><path
     style="fill:url(#pattern357);fill-opacity:1;stroke:#000000;stroke-width:0.1;stroke-dasharray:none;stroke-opacity:1"
     d="m 1506.8003,348.60364 1.6352,-5.34749 -0.3977,-2.91682 -0.1326,-1.59099 -0.6629,1.06066 -2.8726,-0.26517 -2.4749,1.63519 -1.5468,5.34749 z"
     id="Manipur"
     inkscape:label="Manipur"
     clip-path="url(#clipPath9)" /><path
     style="fill:url(#pattern370);fill-opacity:1;stroke:#000000;stroke-width:0.1;stroke-dasharray:none;stroke-opacity:1"
     d="m 1423.5827,190.91883 6.0104,3.35876 8.3085,2.12132 5.4801,5.3033 1.2374,6.36396 3.0052,3.71231 14.319,1.59099 8.4852,4.59619 2.1214,0.35356 4.5962,5.48007 5.3033,4.06587 5.48,-0.35356 11.4905,1.41422 6.364,-0.88389 6.0104,1.23744 9.0156,3.71231 h 6.364 l 3.5355,1.94455 4.2426,-3.71231 6.7175,-2.12132 8.1318,0.35355 4.5962,-2.82843 1.9445,-3.35876 2.6517,-1.94454 -2.1214,-2.47487 -3.1819,-2.12132 0.8838,-4.06587 9.1924,1.94455 3.3588,-3.53554 6.5407,-2.47487 0.8839,-4.24264 3.0052,-1.76777 6.5408,-0.53033 4.2426,0.53033 -0.8839,-2.12132 -7.2478,-4.59619 -5.1266,-1.76777 -2.6516,2.12132 -4.773,-0.88388 -3.0052,0.53033 -3.182,-2.2981 -0.5303,-10.6066 7.6014,1.94454 4.5962,-3.88909 -2.1213,-2.65165 -0.3536,-6.36396 1.4142,-2.65165 -1.9445,-3.18198 -4.4194,-1.41421 2.2981,-2.82843 3.7123,4.06587 4.773,1.59099 4.7729,4.94974 2.8285,0.35356 5.6568,-4.24264 5.1265,1.59099 -1.4142,5.83363 1.591,6.54073 -0.8839,7.77818 -0.7071,6.71751 4.4194,2.47488 0.5304,4.24264 -4.0659,3.35876 -5.6569,0.17677 2.4749,7.07107 1.0607,5.48008 2.4749,10.78338 -17.8545,12.55114 -20.8596,8.83884 -17.1474,4.94974 -17.8544,6.18719 -7.0711,-3.18198 -4.4194,-4.24264 -10.9602,2.47487 -7.2478,-6.36396 -0.8839,-1.76777 -12.3744,-3.35876 -22.8042,-10.6066 3.7124,-7.07106 -15.3796,-2.2981 -12.5512,-10.6066 -7.7781,-13.78859 z"
     id="Inner_Mongolia"
     inkscape:label="Inner Mongolia"
     clip-path="url(#clipPath6)" /><path
     style="fill:url(#pattern371);fill-opacity:1;stroke:#000000;stroke-width:0.1;stroke-dasharray:none;stroke-opacity:1"
     d="m 1656.0625,339.375 -3.125,4.9375 -1.9375,6.1875 1.625,4.9375 3.9375,5.1875 1.4375,-5.75 1.0625,-9.4375 0.1875,-4.125 z"
     id="Taiwan"
     inkscape:label="Taiwan"
     clip-path="url(#clipPath4)" /><path
     style="fill:url(#pattern372);fill-opacity:1;stroke:#000000;stroke-width:0.1;stroke-dasharray:none;stroke-opacity:1"
     d="m 1513.2085,319.43549 6.1872,0.88388 2.4749,-0.70711 2.8284,-0.17677 -0.5303,-4.94975 0.7071,-7.42462 -1.9446,-7.77818 -6.7175,-10.25305 -2.2981,6.36397 -8.6621,-0.70711 -6.0104,-4.41942 -17.3241,-2.2981 -3.5355,-1.06066 -4.0659,-15.20279 -12.0208,-6.18719 -12.0208,-2.12132 -9.3692,-0.88388 -11.1369,-1.41421 -13.9654,-1.76777 -12.3743,-0.17678 -12.728,3.18198 -2.8284,3.18198 3.5356,5.3033 1.4142,1.06066 6.1872,1.23744 3.3587,1.94455 7.0711,6.71751 0.3535,10.96015 3.0052,7.07107 14.1422,7.95495 2.6516,-1.41421 5.4801,2.47487 5.8336,4.06587 3.5356,0.53033 1.9445,3.71231 4.9498,0.70711 5.3033,3.18198 12.1975,1.94454 3.0053,-1.59099 1.9445,5.3033 2.4749,-4.59619 3.1819,-1.94455 4.5962,1.41422 2.1214,0.17677 2.2981,1.94455 4.4194,-1.06066 4.0658,-4.77297 5.6569,-4.06587 4.773,1.41421 3.1819,-2.65165 3.5356,4.41942 z"
     id="Tibet"
     inkscape:label="Tibet"
     clip-path="url(#clipPath3)" /><path
     style="fill:url(#pattern373);fill-opacity:1;stroke:#000000;stroke-width:0.1;stroke-dasharray:none;stroke-opacity:1"
     d="m 1418.8097,186.49941 -1.9445,4.5962 -4.0659,0.53033 2.4749,5.65685 -1.4142,3.53553 -10.7834,-1.94454 0.8839,10.07627 v 1.06066 l -2.2981,1.59099 -8.6621,2.47488 8.6621,10.96015 -2.8284,1.41421 1.9445,3.71232 -0.5303,1.59099 -6.7175,3.18198 -0.8839,2.82842 -6.8943,0.35356 -0.5303,4.24264 -5.3033,-0.70711 -4.2427,1.23744 -3.3587,2.82842 1.2374,1.23744 -1.0606,1.94454 1.7677,3.35876 1.0607,2.47488 1.591,-0.70711 3.3587,0.88388 1.0607,3.35876 2.4749,3.71231 1.692,1.39194 2.25,1.375 3,-3.125 4.375,-1 6,-1.5 3.25,-0.625 6.5,-0.125 9.375,0.75 25.75,3.25 16.875,2.375 7.375,1.625 4.875,0.875 -0.125,-9.25 -5.125,-6.25 2.5,-7.75 10.5,-14.75 -0.875,-2.125 -1.672,-1.116 -2.74,-2.20971 -4.773,-5.83363 -3.0936,-0.26516 -7.8665,-4.33103 -14.0538,-1.5026 -3.0052,-3.53554 -2.0329,-6.89429 -4.8614,-5.03813 -8.5736,-2.20971 -5.6569,-3.35876 -3.5355,-4.5078 z"
     id="Uyghuristan"
     inkscape:label="Uyghuristan"
     clip-path="url(#clipPath2)" /></svg>
