<?xml version="1.0" encoding="UTF-8" standalone="no"?>
<!--
*************Map created by Simplemaps.com********************		
*************Attribution is highly appreciated!***************
*************http://simplemaps.com****************************

The MIT License (MIT)

Copyright (c) 2020 Pareto Softare, LLC DBA Simplemaps.com

Permission is hereby granted, free of charge, to any person obtaining a copy
of this software and associated documentation files (the "Software"), to deal
in the Software without restriction, including without limitation the rights
to use, copy, modify, merge, publish, distribute, sublicense, and/or sell
copies of the Software, and to permit persons to whom the Software is
furnished to do so, subject to the following conditions:

The above copyright notice and this permission notice shall be included in
all copies or substantial portions of the Software.

THE SOFTWARE IS PROVIDED "AS IS", WITHOUT WARRANTY OF ANY KIND, EXPRESS OR
IMPLIED, INCLUDING BUT NOT LIMITED TO THE WARRANTIES OF MERCHANTABILITY,
FITNESS FOR A PARTICULAR PURPOSE AND NONINFRINGEMENT. IN NO EVENT SHALL THE
AUTHORS OR COPYRIGHT HOLDERS BE LIABLE FOR ANY CLAIM, DAMAGES OR OTHER
LIABILITY, WHETHER IN AN ACTION OF CONTRACT, TORT OR OTHERWISE, ARISING FROM,
OUT OF OR IN CONNECTION WITH THE SOFTWARE OR THE USE OR OTHER DEALINGS IN
THE SOFTWARE.

-->

<svg
   baseprofile="tiny"
   fill="#ececec"
   height="540"
   stroke="#000000"
   stroke-linecap="round"
   stroke-linejoin="round"
   stroke-width="0.2"
   version="1.2"
   viewbox="0 0 2000 857"
   width="960"
   id="svg301"
   sodipodi:docname="north-america.svg"
   inkscape:version="1.3.2 (091e20e, 2023-11-25, custom)"
   xml:space="preserve"
   viewBox="26.622 0 914.28571 514.28571"
   xmlns:inkscape="http://www.inkscape.org/namespaces/inkscape"
   xmlns:sodipodi="http://sodipodi.sourceforge.net/DTD/sodipodi-0.dtd"
   xmlns:xlink="http://www.w3.org/1999/xlink"
   xmlns="http://www.w3.org/2000/svg"
   xmlns:svg="http://www.w3.org/2000/svg"><defs
     id="defs301"><pattern
       inkscape:collect="always"
       xlink:href="#Strips2_1"
       preserveAspectRatio="xMidYMid"
       id="pattern3"
       patternTransform="matrix(2.0132749,0,0,2.0158936,-3.4129782,0.0023707)" /><pattern
       inkscape:collect="always"
       xlink:href="#Strips2_1"
       preserveAspectRatio="xMidYMid"
       id="pattern1"
       patternTransform="matrix(2.0132749,0,0,2.0158936,-3.4129782,0.0023707)" /><pattern
       inkscape:collect="always"
       xlink:href="#Strips2_1"
       preserveAspectRatio="xMidYMid"
       id="pattern396"
       patternTransform="matrix(2.0132749,0,0,2.0158936,-205.82313,0.0023707)" /><pattern
       inkscape:collect="always"
       xlink:href="#Strips2_1"
       preserveAspectRatio="xMidYMid"
       id="pattern395"
       patternTransform="matrix(2.0132749,0,0,2.0158936,-205.82313,0.0023707)"
       x="0"
       y="0" /><pattern
       inkscape:collect="always"
       xlink:href="#Strips2_1"
       preserveAspectRatio="xMidYMid"
       id="pattern391"
       patternTransform="matrix(2.0132749,0,0,2.0158936,-205.82313,0.0023707)"
       x="0"
       y="0" /><pattern
       inkscape:collect="always"
       xlink:href="#Strips2_1"
       preserveAspectRatio="xMidYMid"
       id="pattern390"
       patternTransform="matrix(2.0132749,0,0,2.0158936,-205.82313,0.0023707)"
       x="0"
       y="0" /><pattern
       inkscape:collect="always"
       xlink:href="#Strips2_1"
       preserveAspectRatio="xMidYMid"
       id="pattern389"
       patternTransform="matrix(2.0132749,0,0,2.0158936,-205.82313,0.0023707)"
       x="0"
       y="0" /><pattern
       inkscape:collect="always"
       xlink:href="#Strips2_1"
       preserveAspectRatio="xMidYMid"
       id="pattern387"
       patternTransform="matrix(2.0132749,0,0,2.0158936,-205.82313,0.0023707)"
       x="0"
       y="0" /><pattern
       inkscape:collect="always"
       xlink:href="#Strips2_1"
       preserveAspectRatio="xMidYMid"
       id="pattern347"
       patternTransform="matrix(2.0132749,0,0,2.0158936,-205.82313,0.0023707)"
       x="0"
       y="0" /><pattern
       inkscape:collect="always"
       patternUnits="userSpaceOnUse"
       width="1.5"
       height="1"
       patternTransform="translate(0,0) scale(2,2)"
       preserveAspectRatio="xMidYMid"
       id="Strips2_1"
       style="fill:#ff0000"
       inkscape:stockid="Stripes 12 (2:1)"
       inkscape:isstock="true"
       inkscape:label="Stripes 12 (2:1)"><rect
         style="stroke:none"
         x="0"
         y="-0.5"
         width="1"
         height="2"
         id="rect197" /></pattern><clipPath
       clipPathUnits="userSpaceOnUse"
       id="clipPath5"><rect
         style="fill:#000000;stroke:#000000;stroke-width:0;stroke-linejoin:bevel;paint-order:stroke markers fill;stop-color:#000000"
         id="rect5-4"
         width="20"
         height="200"
         x="530"
         y="595" /></clipPath><clipPath
       clipPathUnits="userSpaceOnUse"
       id="clipPath1"><rect
         style="fill:#000000;fill-opacity:0;stroke:#000000;stroke-width:0.0833333"
         id="rect2"
         width="800"
         height="450"
         x="0.041666649"
         y="0.041666649" /></clipPath></defs><sodipodi:namedview
     id="namedview301"
     pagecolor="#ffffff"
     bordercolor="#000000"
     borderopacity="0.25"
     inkscape:showpageshadow="2"
     inkscape:pageopacity="0.0"
     inkscape:pagecheckerboard="0"
     inkscape:deskcolor="#d1d1d1"
     inkscape:zoom="1.4142136"
     inkscape:cx="519.72347"
     inkscape:cy="275.41808"
     inkscape:window-width="2560"
     inkscape:window-height="1417"
     inkscape:window-x="-8"
     inkscape:window-y="-8"
     inkscape:window-maximized="1"
     inkscape:current-layer="svg301" /><path
     id="rest"
     class="Guadeloupe"
     d="m 441.02376,395.80078 -0.29948,0.19857 -0.0993,0.20019 0.0993,0.60059 -0.20019,0.0993 -0.0993,0.60059 0.4004,0.29948 0.29947,-0.0993 1.30046,-0.29948 -0.5013,-0.40039 -0.39876,-0.10092 -0.2002,-0.29948 v -0.40039 z M 440.4248,397.5 v -0.2002 h -0.3011 l -0.0993,-0.20019 -0.49967,-0.29948 -0.30111,0.0993 -0.19856,0.30111 V 397.5 l 0.0993,0.49967 v 0.49968 l 0.0993,0.5013 0.2002,0.19857 v 0.20019 l 0.60058,-0.29948 0.2002,-0.20019 v -0.40039 -0.79915 l 0.20019,-0.10092 z m 1.39974,1.50065 -0.29947,0.29948 -0.10092,0.2002 0.2002,0.40039 h 0.29948 l 0.3011,-0.2002 v -0.20019 l -0.10091,-0.30111 z M 422.72439,383.8 l 0.4,0.3 -0.2,0.2 -0.3,-0.2 h -0.5 l 0.2,-0.2 z m 1.4,0.2 -0.2,0.2 h -0.5 V 384 l 0.3,-0.1 z m -0.7,3.8 0.3,0.3 -1.1,0.2 -0.1,-0.5 0.7,-0.2 z m 20.7,41.2 -0.1,0.5 -0.3,0.1 -0.4,0.3 h -0.2 l -0.7,0.4 -0.2,-0.2 0.3,-0.3 0.7,-0.5 z m -2.4,3.2 -0.2,0.5 -0.3,0.4 -0.2,0.1 -0.1,0.4 0.2,0.6 -0.2,0.1 v 0.7 l 0.2,0.3 0.2,0.2 -0.2,0.2 -0.1,0.3 v 0.7 l -0.2,0.1 -0.4,0.2 -0.5,0.1 h -0.3 l -0.5,0.1 -0.5,-0.1 -0.4,0.1 -0.3,-0.1 -0.5,0.2 -0.4,-0.2 h -0.6 l -0.3,0.2 -0.3,-0.1 0.5,-0.2 0.3,-0.3 0.4,-0.1 0.4,-0.3 0.2,-0.3 0.6,0.1 0.3,-0.4 -0.2,-0.8 0.2,-0.4 v -0.5 -0.2 l -0.3,-0.4 -0.3,-0.1 -0.4,-0.1 -0.1,-0.1 0.4,-0.3 1.1,-0.1 0.2,-0.2 h 1.1 l 0.1,-0.1 1.2,-0.2 z m -55.6,-71.3 v 0.5 l -0.5,-0.2 -0.1,-0.3 0.1,-0.1 z m -2.2,0.6 0.3,0.4 0.6,-0.1 -0.2,0.2 h -0.6 l -0.4,-0.2 z m 2.7,0.1 h 0.7 l 0.3,0.4 h -0.3 l -0.3,-0.1 -0.5,0.1 -0.1,-0.3 z m 24.5,21.4 0.6,0.1 h 0.6 l 0.3,0.1 0.6,-0.1 0.3,0.1 0.4,-0.1 0.2,0.1 0.5,-0.1 0.4,0.1 h 0.3 l 0.8,0.2 v -0.2 l 0.6,0.2 0.1,-0.1 0.8,0.1 0.2,0.2 h 0.2 l 0.6,0.3 0.2,-0.1 -0.1,0.7 0.2,0.3 -0.9,0.3 -0.3,0.4 -0.3,0.6 -0.3,0.2 -0.3,0.1 h -0.4 l -0.6,0.1 -0.3,0.2 -0.7,-0.1 -0.2,-0.2 -0.5,0.2 -0.3,-0.3 -0.7,0.2 -0.9,-0.1 -0.3,0.1 -0.6,0.1 -0.2,0.1 -0.2,-0.2 -0.4,-0.1 -0.3,0.2 -0.6,-0.1 0.3,-0.7 v -0.4 l 0.2,-0.4 -0.2,-0.6 -0.2,-0.1 -0.1,-0.4 0.4,-0.2 0.2,-0.1 v -0.5 l 0.4,-0.2 z m 9.5,2.4 h -0.2 l -0.9,0.3 h -0.6 l 0.2,-0.2 0.4,-0.2 0.4,-0.1 0.6,0.1 z m -14.6,0.5 -0.3,-0.2 0.1,-0.2 h 0.3 l 0.1,0.1 z m 28.5,4.6 -0.1,0.3 h -0.2 l -0.4,-0.2 -0.2,-0.2 0.3,-0.4 0.5,0.4 z m 0.7,1.5 h -0.3 l -0.1,-0.2 0.2,-0.4 h 0.2 l 0.1,0.2 z m -94.9,-16.6 -0.1,-0.1 0.8,-0.3 -0.2,0.3 z m -0.6,-0.1 -0.7,0.3 0.2,-0.3 z m -8.1,2.5 0.3,0.1 0.2,-0.4 0.4,0.1 h 0.5 l 0.1,0.2 -0.2,0.2 -0.2,-0.1 -0.4,0.1 -0.2,0.1 h -0.7 z m 26.5,-48.9 0.8,0.2 0.2,-0.1 0.4,0.3 0.9,1 0.2,0.6 0.4,0.1 0.7,0.5 v 0.2 l -0.2,0.5 0.2,0.7 h -0.4 l -0.5,0.4 -0.1,0.2 -0.3,1 -0.1,0.9 -0.2,0.2 -0.3,-0.2 -0.1,-0.4 -0.4,-0.1 0.3,-0.5 h 0.2 l 0.5,-0.4 -0.1,-0.4 0.2,-0.4 v -0.3 l 0.2,-0.3 V 332 l 0.2,-0.1 0.2,-0.3 0.1,-0.3 -0.3,-0.1 -0.5,-0.1 -0.1,-0.3 v -0.2 l -0.4,-0.2 v -0.3 l -0.3,-0.7 -0.2,-0.1 -0.3,0.1 -0.5,-0.1 h -0.3 l -0.6,-0.4 z m -4.3,1.3 0.5,0.2 h 0.1 l 0.7,0.1 0.2,-0.2 0.2,0.1 h 0.5 l 0.4,-0.2 h 0.4 l 0.3,-0.2 0.1,0.5 -0.1,0.2 h -0.3 -0.4 l -1.1,0.2 h -0.3 l -1.5,0.4 -0.7,0.4 h -0.4 l -0.2,-0.1 -0.3,-0.3 -0.5,-0.6 0.6,0.3 0.1,0.2 h 0.5 l 0.5,-0.2 0.4,-0.6 -0.3,-0.1 0.2,-0.3 0.1,-0.3 z m 8.8,7.5 0.1,0.2 0.3,0.4 0.8,0.7 0.5,0.1 0.1,0.1 0.2,0.4 0.3,0.4 0.5,0.4 v 0.2 l -0.2,0.8 -0.1,0.2 v 0.3 l -0.1,0.5 -0.2,0.3 -0.1,0.7 -0.1,0.1 -0.2,-0.6 -0.4,-0.3 0.1,-0.2 0.5,0.1 0.2,-0.2 -0.1,-0.2 0.1,-0.4 0.3,-0.4 0.1,-0.5 v -0.3 l -0.5,-0.4 -0.4,-0.7 -0.3,-0.2 -0.6,-0.3 -0.3,-0.3 -0.6,-0.2 -0.4,0.2 0.4,-0.9 z m -8.1,2.6 0.4,-0.2 0.3,0.3 -0.1,0.2 0.1,0.2 -0.2,0.4 0.3,0.3 0.2,0.9 0.2,0.3 0.4,0.5 -0.2,0.7 0.1,0.6 -0.2,0.3 -0.3,0.1 -0.4,0.4 -0.3,0.2 h -0.3 l -0.3,0.2 h -0.3 v -0.4 l -0.3,-0.2 0.1,-0.6 -0.3,0.3 -0.2,-0.1 -0.6,-0.4 -0.3,-0.3 -0.2,-0.3 0.7,-0.3 0.5,0.7 0.1,-0.6 -0.3,-0.1 -0.1,-0.3 0.1,-0.3 0.6,-0.6 0.2,-0.4 -0.1,-0.1 0.3,-0.4 v -0.5 l -0.2,-0.7 0.1,-0.1 h 0.3 z m 4.2,0.5 0.3,0.2 -0.6,0.3 -0.3,-0.1 -0.2,0.2 -0.5,-0.1 0.2,-0.3 0.4,-0.2 z m 10.3,5.5 0.1,0.5 -0.2,-0.1 -0.5,0.1 -0.4,0.1 -0.1,-0.2 0.3,-0.2 0.4,-0.3 V 346 l -0.4,-0.2 -0.2,-0.6 -0.1,-0.6 -0.4,-0.4 V 344 l -0.5,-0.5 0.3,-0.3 0.4,0.4 v 0.5 l 0.2,0.3 0.1,0.5 0.3,0.5 0.4,0.3 0.1,0.3 z m -13.5,0.6 0.4,0.2 0.2,-0.2 0.1,-0.5 0.2,-0.1 0.2,0.6 v 0.5 l -0.1,0.3 0.1,0.6 v 0.3 l -0.4,0.8 -0.2,0.1 -0.4,-0.2 0.2,-0.3 0.4,-0.2 -0.1,-0.1 -0.6,0.4 -0.2,-0.2 0.4,-0.3 h -0.4 l -0.2,0.1 -0.2,-0.2 v -0.7 l 0.1,-0.2 -0.4,-0.5 v -0.2 l 0.4,-0.2 0.1,-0.3 0.3,-0.1 0.1,-0.2 0.6,-0.3 0.1,0.4 -0.5,0.4 z m -0.2,-0.7 -0.3,0.1 -0.2,0.3 -0.3,-0.1 0.6,-0.4 z m 18.5,1.2 -0.4,0.6 h -0.4 l 0.2,-0.3 0.1,-0.6 0.4,-0.3 0.1,0.4 z m -10.5,0.5 -0.1,-0.1 -0.3,-0.7 h 0.2 z m 8.2,1.9 -0.3,0.2 -0.3,-0.1 -0.1,-0.2 0.6,-0.2 z m -2.9,0 0.3,0.6 0.2,0.5 v 0.4 l 0.2,0.2 0.2,0.7 v 0.9 l 0.2,0.3 0.5,0.2 0.4,0.6 v 0.8 l -0.4,-0.7 v -0.2 l -0.3,-0.4 -0.6,-0.2 0.2,-0.2 -0.3,-0.3 v -0.3 l 0.2,-0.3 -0.1,-0.5 -0.3,-0.4 0.1,-0.1 -0.3,-0.4 -0.1,-0.6 -0.2,0.1 z m -3.7,0 0.6,0.7 0.3,0.2 0.3,0.5 -0.3,-0.1 -0.1,-0.2 -0.3,-0.1 -0.4,-0.4 -0.2,-0.1 -0.2,-0.4 z m 9.2,5.9 0.1,0.1 h 0.4 l 0.4,0.2 -0.4,0.4 -0.1,-0.2 h -0.2 l -0.4,-0.1 -0.4,-0.2 -0.3,-0.6 0.3,-0.1 0.4,0.1 z m 1.9,0.3 -0.2,0.4 v 0.7 l -0.1,0.4 -0.4,0.3 -0.2,0.4 -0.4,0.3 -0.7,0.3 -0.1,0.2 -0.2,-0.2 0.1,-0.2 0.4,-0.1 0.2,-0.2 v -0.2 l 0.4,-0.1 0.2,-0.4 0.4,-0.1 0.3,-0.4 -0.2,-0.3 h -0.4 l -0.2,-0.2 0.4,-0.5 0.1,-0.1 z m 3.9,1.8 0.2,-0.1 0.5,0.3 h 0.4 l 0.4,0.1 0.3,0.2 v 0.3 l -0.2,0.1 -0.5,-0.4 h -0.4 l -0.1,-0.1 -0.5,0.2 -0.5,-0.2 v -0.1 l 0.2,-0.5 z m -0.4,6.5 -0.2,-0.6 0.6,-0.3 0.3,0.3 v 0.2 l -0.3,0.1 z m -0.2,1.7 -0.4,0.5 -0.2,0.5 -0.6,0.3 h -0.5 l -0.1,-0.1 -0.4,0.2 -0.5,0.1 -0.6,-0.2 -0.4,0.1 -0.1,-0.5 0.3,-0.2 0.2,-0.3 0.4,-0.2 0.3,-0.4 h 0.4 l 0.3,-0.2 0.2,0.3 0.5,0.2 0.5,-0.2 0.7,-1 h 0.3 v 0.2 z m 60.3,22.2 h 0.2 l 0.2,0.2 0.1,0.4 -0.1,0.3 -0.2,0.1 -0.1,-0.2 -0.3,-0.2 v -0.5 z m 0,3.7 0.6,0.3 -0.2,0.3 h -0.2 l -0.7,0.1 -0.2,-0.1 V 392 l 0.3,-0.1 0.1,-0.3 h 0.2 z m -101.2,-197.4 -6.1,2 -4.7,2.5 -4.6,2.7 -0.5,0.9 5.7,-1.3 2.1,2.1 4.6,-1.5 4.9,-2.1 5.4,-2.1 -3.1,3.3 2.5,0.8 2.5,2.4 5.1,-1.4 5.1,-0.5 0.3,1.8 1.5,0.2 1.2,0.2 1.5,2.5 -4.7,0.6 h -0.1 l -3.7,-0.7 -4.5,1.2 -3.7,0.6 -4.7,4.1 -3,2.3 0.4,0.7 5.5,-4.1 h 0.7 l -4.7,4.9 -2.9,4.4 -2.5,3.6 -0.6,3.1 -0.8,1.5 -0.6,1.7 0.1,3.3 0.3,0.5 1.8,-0.1 1.6,-0.7 1.4,-0.8 3.3,-3.1 1.8,-4.2 -0.1,-3.9 1.4,-2.7 2.6,-3.1 2.1,-2.2 2.7,-1.5 -0.4,2.1 2.2,-3.1 1.3,-0.6 1.7,-2.4 3.8,1.3 2.8,2.4 -0.8,2.9 -1.6,2.9 -3.8,2.5 -0.4,1.6 h 1 l 4.3,-2.7 1.6,0.6 -0.5,3.7 -0.7,2.6 -3.7,3.5 -2,2.2 -2.7,2.4 2.7,1.3 2.5,0.4 4,-0.9 3.7,-1.7 3,-0.9 4.6,-1.8 5.8,-3.8 0.1,-0.6 0.3,-1.9 2.7,-0.8 3.9,0.3 4,0.5 4.6,-2.1 0.6,-2.5 -0.2,-0.9 6.8,-4.4 2.7,-1.1 7.8,-0.1 h 9.3 l 1.1,-1.5 1.7,-0.3 2.5,-1 2.8,-2.9 3.2,-4.9 5.5,-4.7 1.1,1.6 3.7,-1 1.6,1.8 -2.9,8.5 2.2,3.6 0.2,2.1 -6.4,3 -6,2.2 -6,1.9 -4,3.8 -1.3,1.4 -1.2,3.4 0.7,3.3 2.1,0.2 0.2,-2.3 1.1,1.4 -1,1.8 -3.8,1 -2.5,-0.1 -4.2,1.1 -2.3,0.3 -3.1,0.3 -5,1.9 8.1,-1.2 1.1,1.2 -7.9,1.9 h -3.3 l 0.4,-0.8 -2.1,1.8 1.4,0.3 -2.5,4.6 -5.3,4.9 0.1,-1.7 -1.1,-0.3 -1.2,-1.6 v 3.5 l 1,1.1 -0.6,2.4 -2.4,2.5 -4.5,5.1 -0.4,-0.2 2.9,-4.4 -2,-2.4 1,-5.4 -1.9,2.8 v 4.1 l -3.2,-1 3,2 -1.5,6.1 1.4,0.5 v 2.2 l -1,6.4 -4.6,4.7 -6.1,1.9 -4.4,3.8 -2.8,0.4 -3.4,2.4 -1.3,2.1 -6.9,4.2 -3.8,3.1 -3.5,3.8 -1.9,4.5 v 4.5 l 0.6,5.5 1.5,4.5 -0.5,2.8 1.3,7.4 -1,4.4 -0.6,2.5 -2,3.9 -1.8,0.8 -2.6,-0.8 -0.4,-2.8 -1.8,-1.5 -2,-5.5 -1.6,-4.9 -0.4,-2.5 2,-4.3 -0.8,-3.5 -3.1,-5.4 -1.9,-1 -6.1,3 -0.9,-0.4 -2,-3 -3,-1.6 -6.4,0.9 -4.6,-0.8 -4.3,0.5 -2.5,1 0.6,1.7 -0.7,2.6 0.8,1.3 -1.2,0.8 -1.8,-0.9 -2.3,1.2 -3.9,-0.2 -3.3,-3.4 -4.9,0.8 -3.6,-1.5 -3.5,0.5 -5,1.5 -6.1,4.7 -6.1,2.8 -3.7,3 -1.9,2.9 -1,4.5 -0.4,3 0.6,2.2 -2.2,0.2 -3.6,-1.4 -3.9,-2 -0.9,-3 -0.2,-4.5 -2.4,-3.6 -0.9,-3.8 -1.6,-4.4 -3.2,-2.6 -4.5,0.2 -4.8,5 -4,-1.9 -2.3,-1.9 -0.4,-3.6 -0.8,-3.3 -2.4,-2.8 -2.1,-2.1 -1.3,-2.3 h -9.4 l -0.8,2.7 h -4.3 -10.80001 l -10.90002,-4.5 -7.00001,-3.1 0.9,-1.3 -7.10001,0.7 -6.30001,0.5 0.3,-3.2 -2.10001,-3.7 -2.2,-0.8 0.1,-1.8 -2.90001,-0.4 -1.2,-1.7 -4.8,-0.6 -0.90001,-1.1 0.80001,-3.5 -2.50001,-6.4 -0.5,-8.9 0.9,-1.5 -1.3,-2.1 -1.5,-5.4 1.8,-5.2 -0.9,-3.5 3.90001,-5.3 2.8,-5.4 1.1,-4.9 5.50001,-6 4.00001,-5.7 4.00001,-5.7 4.3,-8.5 1.80001,-5.3 0.4,-2.9 1.4,-1.3 5.80001,2.2 -1,5.9 2.2,-1.7 2.50001,-5.1 1.6,-5.1 h 14.10002 14.7 4.8 15.1 14.7 14.8 14.9 16.8 17 10.2 l 1.3,-2.4 h 1.7 l -0.9,3.4 1,1 3.3,0.4 4.6,1 3.9,1.9 4.4,-0.8 z m 217.7,-191.6 8.7,0.3 6.7,0.5 5.2,1 -1.1,1 -9.8,1.7 -9,0.8 -4,0.9 h 7.5 l -10.5,2.5 -6.8,1.2 -9.3,3.5 -8.1,0.7 -3.1,1 -11.3,0.4 4.4,0.6 -3.3,0.8 0.7,2.3 -5,1.6 -6.9,1.3 -3.5,1.8 -6.6,1.5 -0.5,1.1 6.5,-0.2 -1.1,1.2 -12.7,2.9 -8.5,-1.4 -11.7,0.8 -5,-0.6 -6.8,-0.3 2.1,-2.3 8,-1.1 2,-3.4 2.6,-0.3 7.5,2 -1.7,-3 -4.9,-0.9 5,-1.8 7.6,-1.1 2.8,-1.6 -3,-1.7 1.1,-2.2 9.4,0.1 2.2,0.5 7.3,-1.6 -7.3,-0.5 -12.6,0.3 -4.4,-1.4 -0.8,-1.7 -2.5,-1.2 1.1,-1.3 6,-0.8 4.2,-0.1 7.4,-0.6 6.8,-1.5 3.9,0.2 2.4,1.1 5,-2 5.2,-0.6 6.5,-0.4 10.4,-0.2 1.3,0.4 10.3,-0.6 7,0.2 z m -79.2,14 2.7,1.5 -6.5,1.3 -10.6,3.5 -6.8,0.3 -6.8,-0.6 -1.6,-1.9 2.1,-1.6 4.3,-1.2 h -6.6 l -2,-1.5 0.4,-1.9 4.9,-1.9 4.1,-1.3 4,-0.3 -0.3,-1 8.3,-0.2 1.6,2.2 4.7,0.9 4.8,0.9 z m -54.1,6.1 -1.1,1.9 -5.3,-0.5 -4,-1.5 -7.8,-0.2 5.3,-1.3 -2.8,-1.1 2.2,-1.8 6.1,0.6 7.5,1.7 z m 13.8,1.2 -6.6,1 -1.6,-1.1 0.6,-1.7 2.2,-1.9 4.4,0.2 1.7,0.3 2.3,1.6 z m -46.8,-2.5 -5.7,0.9 h -6 l 1,-0.7 5.7,-1.3 1.7,0.2 z m -7.8,4.2 -8.8,1.4 -3.3,-1.5 5.1,-1.5 6,-0.5 4.1,0.7 z m 58.8,0.9 -1.8,0.1 -6.6,-0.3 0.7,-1.3 7.2,0.1 1.6,0.8 z m -81.2,-0.6 -5.8,3.7 -5.3,1.7 -3.8,0.2 -9.9,2.1 -7.1,0.8 -3.6,-1.1 11.7,-3.7 12.2,-3.1 5.5,0.1 z m 75.7,2.6 2.3,1.6 h 7.4 l 1.4,1.6 -2.8,1.8 3.1,1.1 1.2,1.2 4.9,0.2 5.1,0.4 7.1,-1 8.1,-0.5 5.8,0.4 2.3,1.9 -1,2 -3.6,1.4 -6.7,1.1 -4.3,-0.7 -11.8,0.8 -8,0.1 -5.6,-0.6 -8.6,-1.6 1.6,-2.8 2.1,-2.4 -1.4,-2.2 -7,-0.6 -2.6,-1.5 3.8,-2 z m -55.7,4.4 -0.7,1.7 4.4,-0.8 3.6,0.2 -2.3,2.5 -5.1,2.3 -13.9,0.8 -12.3,2.2 -6,0.1 1.5,-1.6 10.7,-2.3 -17.9,0.6 -4.2,-0.9 11.7,-4.8 5.4,-1.4 8.3,1.7 2.9,2.9 6.1,0.4 0.7,-4.7 5.8,-1.8 3.1,0.5 z m 39.4,-2.6 0.2,2.3 -2.8,2.5 -5.8,3.8 -6.9,0.5 -3.2,-0.8 3.4,-2.9 -6.6,0.3 4.3,-3.8 3.8,0.2 7.7,-1.7 4.9,0.3 z m 8.8,8.7 -4.1,1.9 -5.2,-0.4 -3.2,-1.3 4.5,-2.2 6.9,-1.4 1.4,1.8 z m -125.2,18.4 -13.5,2.6 0.6,-2.3 -6,-2.8 4.4,-2.2 7.5,-3.8 7.6,-3.4 0.4,-3.1 14,-0.8 4.2,1.1 9.5,0.3 1.9,1.4 1.6,2.2 -6.5,1.3 -13.9,3.6 -9.2,3.7 z m 115.8,-7.2 -7.8,3.9 -4.4,-0.2 1.8,-4.6 2.6,-2.5 4.2,-2.2 5.2,-1.4 7.9,0.2 6.2,1.2 -10.1,4.6 z m -22.6,-5.5 3.6,1.1 7.6,-0.7 -0.5,1.5 -6.1,2.5 3.8,2.2 -5.2,4.7 -8.4,2 -3.4,-0.4 -0.9,-2 -5.9,-4 1.7,-1.7 7.4,0.6 -0.9,-3.3 z m 50.4,3.5 0.3,3.2 7.2,-4.1 11.7,-2.1 2.3,5.3 -3.2,3.4 9,-1.5 5.3,-2.1 6.8,2.6 3.7,2.5 -1.1,2.3 8.2,-1.2 1.9,3.4 8.4,2.1 2.2,2.1 0.9,5.1 -9.1,2.5 7.7,3.6 5.9,1.2 3.3,5 6.5,0.4 -3.3,3.9 -10.9,6.5 -4,-2.4 -3.8,-5.4 -5.9,0.7 -2.3,3.3 2.7,3.2 4.5,2.6 1,1.5 -0.1,5.7 -3.6,4.1 -4.7,-1.6 -8.6,-4.5 3.6,4.9 2.8,3.5 -0.3,2 -10.9,-2.3 -7.6,-3.4 -3.8,-2.7 2.4,-1.7 -4.8,-2.9 -4.7,-2.7 -0.9,1.6 -13.1,0.9 -2.4,-1.9 5.4,-4.2 8.1,-0.1 9.3,-0.7 -0.2,-2 3.1,-2.8 8.8,-5.4 0.4,-2.5 -0.5,-1.8 -4.7,-2.7 -7.1,-1.8 3.5,-1.4 -2,-3.4 -3.4,-0.3 -1.9,-1.8 -3.3,1.6 -7.9,0.7 -14,-1.2 -7.4,-1.6 -5.9,-0.8 -1.9,-1.9 6.3,-2.4 h -5.7 l 3.3,-5.3 7.1,-4.6 6,-2.1 11.2,-1.4 z m 39.8,0.3 -0.7,1.4 -4.1,-0.1 -4.1,-0.1 -4.9,0.7 -0.9,-0.4 -2.1,-2.7 1.7,-1.8 2.2,-0.4 8.4,0.6 z m -108.6,-1.6 -7,3.4 -2.3,-3.6 2.1,-0.8 5.5,-0.2 z m -39.5,1.5 -4.7,2.4 10.5,-1.5 2.6,2.6 7.3,-2.7 1.8,1.7 -2.2,5.1 4.3,-2.1 2.8,-5.3 4.3,-0.8 3,0.8 2.2,2.1 -2.7,5.1 -2.4,3.7 4.2,2.6 5,2.6 -2.6,2.3 -7.1,0.5 0.8,2 -3.2,2 -6.7,-0.8 -5.7,-1.5 -5.1,0.3 -9.5,1.9 -11.3,0.8 -7.9,0.5 0.3,-2.6 -4.1,-1.4 -4.3,0.6 -0.6,-4.3 3.3,-0.6 7.3,-0.9 5.5,0.3 6.2,-1 -6.5,-1.2 -9.1,0.4 -5.7,-0.1 v -1.9 l 11.7,-2.2 -6.3,0.1 -5.4,-1.4 7.8,-3.9 5.2,-2.1 14.2,-3.1 z m 106.5,163.8 -2.2,-3.6 2.9,-8.5 -1.6,-1.8 -3.7,1 -1.1,-1.6 -5.5,4.7 -3.2,4.9 -2.8,2.9 -2.5,1 -1.7,0.3 -1.1,1.5 h -9.3 l -7.8,0.1 -2.7,1.1 -6.8,4.4 v -0.1 l -0.9,-0.4 -2,0.9 -1.9,1.3 -1.8,-1.1 -4.7,0.8 -3.9,0.9 -1.9,0.8 -2.3,2.1 1.8,0.7 1.7,-0.4 h 0.3 l -0.3,1.9 -4.8,0.7 -2.8,0.8 -1.7,1 -2.6,-0.6 -1.6,0.3 -2.9,1.8 -4.6,2 -2.7,-0.4 2,-2.2 3.7,-3.5 4.1,-2.1 1.1,-1.8 0.9,-3 3.8,-3.5 0.9,-4 1.1,3.9 3.8,0.9 2.4,-2.1 -1.4,-4.8 -0.9,-2 -4,-1.2 -3.8,-0.7 h -3.9 l -3.4,-0.8 -0.4,-1.4 -1.4,0.9 -1.2,-0.2 1.9,-2.1 -1.8,-0.8 1.9,-2.4 -1.2,-1.8 1.7,-1.8 -5.2,-0.9 -0.1,-3.6 -0.8,-0.8 -3.3,-0.2 -4.1,-1.2 -1.5,0.8 -1.8,1.5 -3.3,1 -3.1,2.5 -5.4,-1.7 -4.4,0.8 -3.9,-1.9 -4.6,-1 -3.3,-0.4 -1,-1 0.9,-3.4 h -1.7 l -1.3,2.4 h -10.2 -17 -16.8 -14.9 -14.8 -14.7 -15.1 -4.8 -14.7 -14.10002 -0.7 l -5.40001,-6.1 -1.6,-2.7 -7.00002,-2.6 1.3,-5.5 3.60001,-3.7 -4.10001,-2.7 3.10001,-4.9 -2.1,-4.4 2.5,-3.2 5.10001,-2.9 3.20001,-3.8 -4.60001,-3.8 1.4,-6.9 1.1,-4.2 -1.6,-2.7 -0.8,-2.4 0.6,-3.1 -6.50001,1.9 -7.60002,3.3 -0.3,-3.8 -0.5,-2.6 -2.8,-1.6 -4.20001,-0.2 35.60006,-32.7 24.60001,-20.4 6,1.3 3.3,2.6 3.7,0.5 6.3,-2.2 7,-1.7 5.3,0.6 8.9,-2.3 8.2,-1.3 0.2,2.2 4.5,-1.3 3.9,-2.5 2.1,0.6 1.4,4.8 9.5,-3.7 -3.9,4.1 6,-0.9 3.2,-1.5 4.6,0.3 3.9,2.2 7.5,2 4.7,0.9 4.4,-0.3 2.9,2.8 -8.5,2.7 6.4,1.1 11.9,-0.6 4.4,-1 1.4,3.3 7.1,-2.7 -2.1,-2.4 4.5,-1.8 5.2,-0.3 3.9,-0.5 2.1,1.3 1.5,2.9 5,-0.4 5.3,2.5 7.2,-0.9 6,0.1 2.4,-3.4 4.5,-0.9 4.9,1.8 -4.3,5.2 6.2,-4.4 3.2,0.2 6.4,-5.5 -1.6,-3.3 -2.9,-2.2 5.5,-5.9 8.2,-3.8 4.5,0.9 2,2.3 0.4,6 -5.8,2.6 6.7,1.1 -4.4,5.5 8.9,-4.2 2.2,3.5 -4.3,4 1.3,3.7 7.3,-3.9 6.5,-4.8 4.7,-5.9 5.5,0.4 5.4,0.8 3.6,2.7 -1.7,2.7 -5.1,2.9 0.9,2.9 -2.4,2.7 -10.9,3.9 -6.5,0.9 -3.2,-1.7 -3.3,2.8 -7.4,4.7 -3,2.5 -7.7,3.8 -6.5,0.4 -5.1,2.4 -2.9,3.8 -5.7,0.7 -8.7,4.7 -9.4,6.5 -5,4.6 -4.9,6.9 6,1 -1.5,5.5 -0.8,4.6 7.3,-1.2 7,2.6 3.3,2.3 1.7,2.8 4.9,1.7 3.6,2.5 7.6,0.4 4.8,0.6 -3.6,5.2 -1.7,6.1 0.1,6.9 4.4,5.9 4.7,-2 5.6,-6.4 2.3,-9.6 -1.7,-3.2 9,-2.9 7.5,-4.2 4.8,-4.2 1.7,-4 -0.4,-5.1 -3.2,-4.5 8.9,-6.2 1,-5.3 3.9,-9 3.8,-1.4 6.7,1.6 4.2,0.6 4.5,-1.6 3.1,2 3.6,3.4 0.2,2.2 7.7,0.5 -2.6,4.9 -2.3,7.4 3.8,1 1.6,3.5 8.2,-3.3 7.5,-6.6 4.2,-2.7 1.1,5.3 2.6,7.5 2,7.2 -3.4,3.8 4.8,3.4 2.9,3.4 6.9,1.6 2.4,1.9 v 5.2 l 3.4,0.8 1.1,2.3 -2,6.9 -4.3,2.3 -4.2,2.2 -8.8,2.2 -7.9,5 -8.6,1.1 -10.1,-1.4 h -7.3 l -5.3,0.4 -5.7,4.5 -7.4,2.8 -10.1,8.2 -7.9,5.8 4.7,-1 10.9,-8.3 12.3,-5.2 7.6,-0.6 3.3,3.1 -6.1,4.2 -0.6,6.7 0.1,4.8 5.6,3.1 8.6,-0.9 7.2,-7.1 -1,4.6 2.5,2.3 -7.4,4.1 -12.4,3.8 -5.8,2.5 -7.2,4.6 -3.7,-0.5 1.5,-5.3 10.4,-5.3 -8.1,0.2 z m -53,-142.6 -4.1,1.9 -4.2,-1.6 -3.9,0.5 -3.4,-2.4 5,-1.7 4.9,-2.3 3,1.5 1.6,1 0.4,1 z m 74.5,10.7 -4.9,0.3 0.7,-2.7 3.8,-3.1 4.3,-0.7 2.3,1.5 -1.5,2.3 -0.9,0.8 z m -44.9,8.3 -0.9,2.5 2.7,-0.9 1.5,1.5 3.5,2 3.8,1.7 -1.4,2.7 3.5,-0.4 1.9,1.9 -5,1.8 -5.9,-1.4 -0.8,-2.6 -6.3,3.1 -8.2,2.9 0.7,-3.3 -6.3,0.5 5.7,-2.8 3.6,-4.5 5.1,-5.1 z m 3.1,16.8 -7.2,3.2 -3,-0.2 v -1.5 l 5,-2.7 6,0.1 z m 9.7,3.2 -3.6,3 -1.7,-0.5 -0.1,-1.7 0.4,-0.4 2.8,-1.7 1.7,0.1 z m 76.6,68.9 -5,5.4 3.9,-2.1 2.9,1.4 -2.4,2.1 3.8,1.7 2.8,-1.5 4.3,1.9 -2.8,4.6 3.8,-1.1 -0.3,3.3 0.5,3.9 -3.6,5.6 -2.4,0.2 -2.9,-1.2 2.5,-5.1 -1.2,-0.8 -7.3,5.4 -3,-0.2 4.4,-3 -4.4,-1.5 -5.5,0.4 -9.6,-0.2 -0.2,-1.8 3.8,-2.3 -1.7,-1.6 5.4,-3.8 8.2,-9.9 4.2,-3.5 5,-2.1 2.1,0.2 -1.5,1.7 z m -339.10003,13.5 -3.10001,0.9 -6.30001,-2.8 v -2.2 l -2.9,-2.2 0.3,-1.8 -4.30001,-1.1 0.6,-3.4 1.50001,-1.4 4.1,1.3 2.40001,1 4.1,0.6 0.2,2.2 0.4,2.9 3.20001,2.6 z m 307.90003,-3.7 -2.4,0.1 -5.8,-1.9 -3.5,-3 1.9,-0.5 5.9,1.6 4.2,2.6 z m -14.4,16 3.4,0.9 4.7,-0.2 -3.3,2.6 -2,0.4 -5.5,-2.7 -0.6,-2.1 2.5,-1.9 z m -21.9,203.3 v 0.2 l 0.4,-0.1 -0.2,0.5 0.2,0.2 v 0.2 l 0.2,0.2 0.2,0.9 -0.3,0.3 -0.1,-0.4 -0.1,0.1 -0.6,-0.1 h -0.4 l -0.2,-0.3 0.6,-0.5 h -0.4 l -0.4,-0.4 -0.1,-0.5 -0.2,-0.5 0.3,-0.4 0.4,0.1 0.5,0.3 z m -11.2,-18.2 h -0.1 l 0.1,-0.2 0.1,0.1 z m 1.5,0.9 -0.2,0.1 v -0.2 l 0.1,-0.1 z m -32.3,35 h -0.2 l -0.1,-0.5 0.1,-0.3 -0.1,-0.3 -0.4,-0.1 -0.3,-0.3 0.1,-0.3 1.2,0.6 -0.1,0.2 v 0.4 l -0.2,0.2 z m 24.1,-41.2 -0.4,0.2 h -0.1 l -0.3,0.2 -0.1,-0.1 0.1,-0.3 0.6,-0.1 z m 16.1,34 -0.1,0.1 -0.5,-0.3 v -0.4 l 0.2,-0.3 0.2,-0.5 h 0.4 l 0.1,0.4 -0.1,0.8 z m -8,-31.4 v 0.1 l -0.4,-0.1 v -0.1 z m 4,7.9 0.2,0.4 v 0.3 l -0.2,0.2 -0.2,-0.1 -0.1,-0.3 z m -4,-7.9 -0.4,-0.1 0.2,-0.3 0.3,-0.1 z m 9.5,27.8 -0.2,-0.2 -0.4,-0.2 -0.1,-0.2 v -0.6 l 0.1,-0.2 0.7,-1.1 0.3,0.2 v 0.7 l -0.1,0.8 -0.1,0.4 z m -4.5,10.7 -0.4,0.3 -0.2,-0.1 -0.1,-0.5 0.2,-0.5 0.3,-0.4 h 0.3 l 0.1,0.3 -0.1,0.7 z m 2.8,-22.8 0.5,0.1 0.2,0.5 v 0.6 l -0.1,0.8 -0.1,0.2 -0.2,0.1 -0.4,0.2 0.1,-0.4 -0.1,-0.2 -0.1,-0.7 -0.3,-0.5 v -0.3 l 0.1,-0.3 v -0.3 h 0.2 z m -43,22.8 h -0.3 l -0.4,-0.3 -0.3,-0.1 -0.3,-0.3 -0.1,-0.2 -0.3,-0.1 -0.2,-0.4 -0.3,-0.3 0.1,-0.5 0.5,0.3 0.1,0.5 0.4,0.4 0.7,0.2 0.2,0.3 0.3,0.4 z m 52.5,-6.5 -0.6,-0.2 -0.1,-0.5 v -0.8 l 0.2,-0.4 0.2,0.2 0.2,0.6 0.5,0.3 0.1,0.4 z m -14.2,-124 h -0.3 l -0.1,0.1 0.1,0.2 -0.4,0.2 -0.1,-0.1 0.2,-0.1 h 0.1 l 0.1,-0.3 0.3,-0.1 z m -2.1,93 -0.1,-0.3 0.3,0.1 z m -1,-2.1 h -0.2 l 0.3,-0.4 h 0.3 l -0.2,0.3 z m -41.3,37.1 -0.5,-0.2 -0.5,-0.5 0.1,-0.6 0.2,0.3 0.4,0.4 0.3,0.5 z m -100.4,-6.1 -0.7,1.5 -3.3,-0.1 -2,-0.6 -2.2,-1.3 -3,-0.4 -1.5,-1.4 0.3,-0.9 2,-1.6 1.2,-0.7 -0.3,-0.8 1.4,-0.4 1.6,0.6 1.1,1.2 1.6,1.1 0.1,0.8 2.5,-0.7 1.2,0.4 0.7,0.7 z m 56.8,30.3 -0.7,0.9 1.1,3.8 -1.1,1.9 -1.8,-0.5 -0.9,3.1 -1.8,-1.8 -1,-3.5 1.4,-1.7 -1.4,-0.4 -0.9,-2.1 -2.8,-1.8 -2.4,0.4 -1.3,2.2 -2.4,1.6 -1.2,0.2 -0.6,1.4 2.5,3.5 -1.6,0.8 -0.8,0.9 -2.7,0.4 -0.8,-3.9 -0.8,1.1 -1.8,-0.4 -1,-2.5 -2.3,-0.5 -1.5,-0.7 h -2.4 l -0.2,1.4 -0.6,-1 0.3,-1.3 0.6,-1.3 -0.2,-1.1 0.9,-0.8 -1.1,-0.9 0.1,-2.6 2.2,-0.6 1.9,2.3 -0.2,1.4 2.2,0.3 0.6,-0.6 1.5,1.6 2.8,-0.5 2.5,-1.6 3.5,-1.3 2,-1.9 3.1,0.4 -0.2,0.6 3.1,0.2 2.4,1.2 1.8,1.9 z m -29.7,-40.7 -0.5,0.7 -0.5,1.4 0.4,2.3 -1.5,2.2 -0.8,2.6 -0.5,2.8 0.2,1.7 -0.1,2.9 -0.9,0.6 -0.7,2.8 0.2,1.7 -1.2,1.6 0.1,1.7 0.8,1.1 -1.4,1.4 -1.7,-0.5 -0.8,-1.3 -1.8,-0.5 -1.3,0.8 -3.6,-1.7 -0.9,0.8 -1.8,-2 -2.5,-2.6 -1.1,-2.1 -2.2,-2.1 -2.5,-2.9 0.7,-1 0.8,1 0.5,-0.4 1.8,-0.3 0.8,-1.5 h 0.8 l 0.2,-3.2 1.3,-0.1 h 1.2 l 1.4,-1.7 1.5,1.3 0.6,-0.8 1.2,-0.8 2.1,-1.7 0.2,-1.4 0.5,0.1 0.9,-1.5 0.6,-0.2 0.9,1 1.1,0.2 1.3,-0.8 h 1.4 l 2,-0.8 0.9,-0.9 z m -70.3,-69.6 2.2,-0.2 -3.2,5.7 -1.8,4.6 -1.8,8.6 -1.1,3.1 0.4,3.5 1.3,3.2 0.4,4.9 3,4.8 0.8,3.7 1.7,3.1 5.7,1.7 1.9,2.7 5.2,-1.8 4.3,-0.6 4.4,-1.2 3.6,-1.1 3.9,-2.6 1.8,-3.7 1.2,-5.4 1.2,-1.9 4,-1.7 6.1,-1.5 4.9,0.3 3.4,-0.6 1.2,1.4 -0.6,3.1 -3.5,3.8 -1.8,3.9 0.9,1.1 -1.2,2.8 -2.1,5 -1.2,-1.7 -1.1,0.1 -1.1,0.1 -2.5,3.9 -0.9,-0.8 -0.7,0.3 -0.1,1 -5.2,-0.1 h -5.2 l -0.5,3.6 -2.5,0.1 1.8,2.1 1.9,1.5 0.5,1.4 0.8,0.4 -0.4,2.2 h -7.2 l -3.3,5.2 0.7,1.2 -0.8,1.5 -0.4,1.9 -5.6,-6.9 -2.6,-2.1 -4.4,-1.7 -3.2,0.5 -4.8,2.4 -2.9,0.6 -3.7,-1.7 -4.1,-1.2 -4.8,-2.9 -4.1,-0.9 -5.9,-3 -4.3,-3.1 -1.1,-1.7 -3.1,-0.4 -5.4,-2 -1.9,-2.9 -5.4,-3.7 -2.2,-4 -0.8,-3.2 1.9,-0.6 -0.3,-1.8 1.6,-1.7 0.4,-2.2 -1.5,-2.9 v -2.5 l -1.3,-3.3 -3.8,-6.4 -4.6,-5 -1.9,-4 -4.10001,-2.6 -0.7,-1.6 1.7,-3.9 -2.4,-1.5 -2.50001,-3.2 -0.2,-4.4 -2.8,-0.6 -2.3,-3.3 -1.70001,-3.2 0.3,-2 -1.5,-4.8 -0.3,-4.9 0.8,-2.5 -3.1,-2.6 -1.90001,0.3 -2.4,-1.7 -1.80001,2.6 -0.1,3 -1,4.9 1,2.6 2.80001,4.4 0.4,1.6 0.7,0.4 0.1,2.2 1,-0.1 v 4.2 l 1.30001,1.6 0.5,2.3 2.7,3.2 0.4,6 1,2.8 0.90001,3 -0.3,3.4 2.6,0.2 1.6,2.9 1.5,2.9 -0.3,1.2 -2.8,2.3 h -1 l -0.7,-3.9 -2.90001,-3.7 -3.4,-3.1 -2.50001,-1.6 1.2,-4.7 -0.1,-3.5 -2.1,-2 -3.10001,-2.8 -0.9,0.8 -1,-1.7 -3,-1.5 -2.20001,-3.8 0.5,-0.4 2.10001,0.3 2.7,-2.4 1,-2.9 -2.9,-4.6 -2.60001,-1.7 -0.8,-4 -0.6,-4.3 -0.8,-5.1 -0.2,-5.8 6.30001,-0.5 7.10001,-0.7 -0.9,1.3 7.00001,3.1 10.90002,4.5 h 10.80001 4.3 l 0.8,-2.7 h 9.4 l 1.3,2.3 2.1,2.1 2.4,2.8 0.8,3.3 0.4,3.6 2.3,1.9 4,1.9 4.8,-5 4.5,-0.2 3.2,2.6 1.6,4.4 0.9,3.8 2.4,3.6 0.2,4.5 0.9,3 3.9,2 z m 107.2,51.2 -1.8,1.1 -3,-1.1 -2.9,-2.3 0.8,-1.5 2.4,-0.4 1.3,0.2 3.7,0.6 2.7,1.5 0.8,1.8 z m 30.3,-11.8 0.1,3.4 -0.7,2.5 -1.5,1.1 1.3,1.9 -0.3,1.8 -3.6,-1.1 -2.7,0.4 -3.4,-0.4 -2.7,1.2 -2.8,-2 0.7,-2.1 5.1,0.9 4.1,0.5 2.2,-1.4 -2.3,-2.8 0.4,-2.5 -3.5,-1 1.5,-1.7 3.4,0.2 z m -67.2,30.2 -1.9,-0.1 -0.9,0.9 -2,0.8 h -1.4 l -1.3,0.8 -1.1,-0.2 -0.9,-1 -0.6,0.2 -0.9,1.5 -0.5,-0.1 -0.2,1.4 -2.1,1.7 -1.2,0.8 -0.6,0.8 -1.5,-1.3 -1.4,1.7 h -1.2 l -1.3,0.1 -0.2,3.2 h -0.8 l -0.8,1.5 -1.8,0.3 -0.8,-2 -1.7,-0.6 0.7,-2.6 -0.7,-0.7 -1.2,-0.4 -2.5,0.7 -0.1,-0.8 -1.6,-1.1 -1.1,-1.2 -1.6,-0.6 1.3,-1.6 -0.3,-1.3 0.5,-1.2 2.9,-1.8 2.8,-2.5 0.6,0.3 1.3,-1.1 1.6,-0.1 0.5,0.5 0.9,-0.3 2.6,0.6 2.6,-0.2 1.8,-0.7 0.8,-0.7 1.7,0.3 1.3,0.4 1.5,-0.1 1.2,-0.6 2.5,0.9 0.8,0.2 1.6,1.2 1.5,1.4 1.9,1 z m -31.5,-18 -0.7,5.1 -1.3,7.2 h 1.7 l 1.7,1.2 0.6,-1 1.5,0.8 -2.8,2.5 -2.9,1.8 -0.5,1.2 0.3,1.3 -1.3,1.6 -1.4,0.4 0.3,0.8 -1.2,0.7 -2,1.6 -0.3,0.9 -2.8,-1.1 -3.5,-0.1 -2.4,-1.3 -2.8,-2.6 0.4,-1.9 0.8,-1.5 -0.7,-1.2 3.3,-5.2 h 7.2 l 0.4,-2.2 -0.8,-0.4 -0.5,-1.4 -1.9,-1.5 -1.8,-2.1 2.5,-0.1 0.5,-3.6 h 5.2 z m 408.2,-386.1 19.9,3 -6.7,1.4 -13,0.2 -18.5,0.4 1.4,0.7 12.3,-0.5 9.7,1.4 7,-1.2 2.4,1.4 -4.5,2.4 9.2,-1.6 17.1,-1.5 10,0.8 1.7,1.7 -14.8,2.9 -2.2,1 -11.4,0.8 8.1,0.2 -4.9,3.2 -3.6,2.9 -1.2,5.2 3.7,3.2 -5.9,0.1 -6.5,1.6 6.3,2.6 -0.1,4.2 -4.2,0.5 4.1,4.3 -8.7,0.4 4,2 -1.6,1.8 -5.7,0.8 -5.5,0.1 4.2,3.4 -0.5,2.4 -7.3,-2.2 -2.4,1.4 5,1.3 4.6,3.2 0.6,4.3 -7.4,1 -2.7,-2.1 -4.2,-3 0.5,3.6 -5.4,2.8 10.7,0.2 5.5,0.3 -11.9,4.7 -12.2,4.3 -12.7,1.8 -4.6,0.1 -4.9,2.1 -7.5,5.8 -10.2,3.9 -3,0.3 -6.1,1.3 -6.6,1.4 -4.8,3.4 -1.4,4 -3.4,3.8 -8.6,4.6 0.3,4.5 -3.6,4.8 -4.1,5.7 -6.5,0.4 -5,-4.8 -9,-0.1 -3.2,-3.2 -0.8,-5.6 -4.8,-7.2 -0.7,-3.7 1.5,-5.1 -3.7,-5.1 3.3,-4.1 -1.9,-2 7,-6.4 7.2,-2.1 2.6,-2.2 2.8,-4.2 -5.5,1.9 -2.6,0.8 -4.1,0.7 -4.2,-1.7 1.5,-3.7 3,-2.8 3.8,-0.1 7.6,1.5 -5.3,-3.4 -2.7,-1.8 -4.4,0.7 -2.6,-1.3 7,-4.8 -1.3,-2 -1.1,-3.5 -1.4,-5.4 -3.6,-1.9 1.4,-2.1 -8.1,-2.9 -7.7,-0.4 -10.1,0.2 -9.5,0.4 -3.1,-1.6 -3.8,-3.1 11,-1.5 7.6,-0.2 -14.6,-1.3 -6.5,-1.9 2.2,-1.8 15.7,-2.2 15,-2.2 2.8,-1.6 -8.1,-1.6 4.6,-1.7 14.7,-2.9 5.4,-0.4 0.2,-1.8 9,-1.1 11,-0.6 h 10.4 l 2.8,1.2 10.6,-2.2 7.1,1.5 4.6,0.3 6.2,1.3 -6.7,-2.1 1.6,-1.7 12.7,-2.2 11.6,0.2 5.1,-1.4 11.9,-0.3 z m -310.6,384.6 0.3,-1.8 -1.3,-1.9 1.5,-1.1 0.7,-2.5 -0.1,-3.4 0.8,-1.1 h 4.3 l 3.2,1.6 1.5,-0.1 0.7,2.3 3.1,-0.2 -0.4,1.9 2.5,0.3 2.5,2.3 -2.3,2.6 -2.6,-1.4 -2.6,0.3 -1.8,-0.3 -1.1,1.2 -2.2,0.4 -0.7,-1.6 -1.9,0.9 -2.7,4.4 -1.3,-1 z m -40.9,-30.3 1.9,2.3 5.2,-0.7 1.8,1.5 4.2,4 3.2,2.9 1.8,-0.1 3.2,1.3 -0.6,1.8 4,0.3 3.9,2.6 -0.8,1.5 -3.8,0.8 -3.8,0.3 -3.7,-0.5 -8.1,0.6 4.2,-3.5 -2.1,-1.7 -3.6,-0.4 -1.7,-1.9 -0.8,-3.6 -3.2,0.2 -5,-1.7 -1.5,-1.4 -7.1,-1 -1.8,-1.2 2.3,-1.6 -5.4,-0.3 -4.4,3.3 -2.3,0.1 -1,1.6 -2.8,0.7 -2.3,-0.7 3.2,-1.9 1.5,-2.4 2.7,-1.4 3,-1.2 4.3,-0.6 1.4,-0.8 4.7,0.5 4.4,0.1 z m -30.2,75.9 1.2,3.5 2,2.6 2.5,2.7 -2.2,0.6 -0.1,2.6 1.1,0.9 -0.9,0.8 0.2,1.1 -0.6,1.3 -0.3,1.3 -3,-1.4 -1.1,-1.4 0.7,-1.1 -0.1,-1.4 -1.5,-1.5 -2.2,-1.3 -1.8,-0.8 -0.3,-1.9 -1.4,-1.1 0.2,1.8 -1.2,1.6 -1.2,-1.8 -1.7,-0.7 -0.7,-1.2 0.1,-2 0.9,-2 -1.5,-0.9 1.4,-1.3 0.9,-0.8 3.6,1.7 1.3,-0.8 1.8,0.5 0.8,1.3 1.7,0.5 z m -26.8,-31.8 h -1.7 l 1.3,-7.2 0.7,-5.1 0.1,-1 0.7,-0.3 0.9,0.8 2.5,-3.9 1.1,-0.1 -0.1,1 h 1 l -0.3,1.8 -1.3,2.7 0.4,1 -0.9,2.3 0.3,0.6 -1,3.3 -1.3,1.7 -1.1,0.2 z"
     inkscape:label="rest"
     clip-path="url(#clipPath1)" /><path
     style="fill:url(#pattern1);fill-opacity:1;stroke:#000000;stroke-width:0.100729"
     d="m 438.95172,391.3692 -0.0236,0.53547 0.33816,0.2441 0.0786,0.17326 0.173,-0.11813 0.13372,-0.33073 -0.10226,-0.39373 -0.23592,-0.18111 -0.17302,-0.008 z"
     id="Barbuda"
     inkscape:label="Barbuda" /><path
     style="fill:url(#pattern3);fill-opacity:1;stroke:#000000;stroke-width:0.100729;stroke-dasharray:none;stroke-opacity:1"
     d="m 432.63936,387.45804 -0.33366,0.53453 0.44487,-0.11134 0.31143,-0.33411 z"
     id="Anguilla"
     inkscape:label="Anguilla" /><path
     style="fill:url(#pattern347);fill-opacity:1;stroke:#000000;stroke-width:0.100729;stroke-dasharray:none;stroke-opacity:1"
     d="m 604.89747,7.6879647 -2.76825,-1.2599334 -13.84127,0.1259934 -8.05309,0.5039733 -8.68225,0.8819534 -0.37749,2.0158936 -5.03319,0.251987 -4.78153,1.007947 -6.66897,1.259933 -4.02655,0.881954 -4.15238,1.637913 7.42396,1.385927 0.50331,0.37798 -2.76825,1.51192 -30.82827,4.283774 -2.13911,1.763906 6.16565,2.141887 14.72208,1.13394 -7.54978,0.37798 -10.82136,1.511921 3.52323,3.023839 3.39741,1.637915 17.23867,-0.629967 10.31803,0.251987 8.0531,3.149833 -1.50996,2.141887 3.64907,1.763906 1.38412,6.047682 1.00663,2.897846 1.63579,2.141887 -7.17229,4.787748 2.5166,1.385926 4.40404,-0.881953 8.17892,5.417713 -7.54978,-1.385927 -3.90072,-0.125993 -3.27157,2.897847 -1.38412,3.7798 4.2782,1.51192 4.78152,-0.75596 7.29813,-2.519866 -2.51659,4.031787 -2.64243,2.267879 -7.04645,2.141887 -7.42396,6.299667 2.01327,2.267882 -3.3974,4.157784 3.7749,5.165716 -1.50996,4.787758 0.50332,3.653806 0.75497,1.38592 4.27821,6.42566 0.75498,5.66971 3.52323,3.27582 8.68225,-0.12598 5.03319,4.78774 6.66898,-0.37798 7.80144,-10.58345 -0.50333,-4.66175 8.80807,-4.53576 3.52324,-4.03179 1.2583,-3.905789 5.03318,-3.527814 13.08629,-2.645869 2.39076,-0.125988 10.69552,-4.157778 2.13911,-1.763907 5.03319,-3.905795 5.15902,-2.267879 h 4.78152 l 12.7088,-1.889901 19.12611,-6.80364 5.15902,-2.393874 -16.48369,-0.251986 5.15902,-2.771855 -0.25166,-3.653805 7.04646,5.039733 7.54978,-1.007948 -0.75498,-4.409765 -4.742,-3.055422 -4.80467,-1.336361 2.22438,-1.425451 7.20699,2.227269 0.53384,-2.583632 -4.18182,-3.207266 h 5.78337 l 5.42748,-0.890908 1.60155,-1.959996 -3.9149,-2.049088 8.71955,-0.267271 -4.09285,-4.365448 4.2708,-0.712726 -0.089,-4.098175 -6.0503,-2.49454 6.58415,-1.603634 5.87236,-0.08909 -3.64798,-3.296358 0.97873,-5.078173 8.49287,-6.425474 h -7.80143 l 11.32467,-0.881953 1.76161,-1.007946 15.35122,-2.897848 -2.13911,-1.7639066 -9.8147,-0.75596 -17.3645,1.5119204 -8.80808,1.6379132 4.15238,-2.5198669 -2.26494,-1.5119202 -7.17228,1.5119202 -9.43723,-1.6379134 -12.45714,0.6299665 -1.50995,-1.0079467 31.45741,-0.3779799 6.7948,-1.5119201 -19.75526,-2.897847 -26.55005,-0.37798 -12.07965,0.1259933 -5.03319,1.5119201 -11.828,-0.2519867 -12.3313,2.2678803 -1.88744,1.7639067 6.41731,1.8899002 -5.914,-0.8819535 -3.77489,-0.3779798 -2.51658,-0.3779802 -5.41069,-1.2599333 z"
     id="Greenland"
     inkscape:label="Greenland" /><path
     style="fill:url(#pattern387);fill-opacity:1;stroke:#000000;stroke-width:0.100729;stroke-dasharray:none;stroke-opacity:1"
     d="m 421.18615,214.94702 h -8.80809 l 0.50333,15.87515 4.02655,-0.50396 1.50995,-10.58344 z"
     id="Vermont"
     inkscape:label="Vermont" /><path
     style="fill:url(#pattern389);fill-opacity:1;stroke:#000000;stroke-width:0.100729;stroke-dasharray:none;stroke-opacity:1"
     d="m 341.03265,342.20029 -3.64906,2.0159 -3.14574,0.88196 1.25829,1.00794 4.15238,-1.51191 2.01328,-1.13394 z"
     id="Conch_Republic"
     inkscape:label="Conch Republic" /><path
     style="fill:url(#pattern390);fill-opacity:1;stroke:#000000;stroke-width:0.100729;stroke-dasharray:none;stroke-opacity:1"
     d="m 234.42524,196.35839 -4.80464,3.38545 -12.27855,2.85089 0.71181,4.81091 -1.95747,3.02908 2.66925,20.84724 4.98261,-1.0691 4.80466,3.74182 8.36365,2.67272 h 1.24564 l 11.92265,1.24727 7.4739,-5.87997 -3.02514,-7.30546 -10.49905,-6.94908 -3.38105,-8.19634 -0.53386,-7.12726 z"
     id="Republic_of_Lakotah"
     inkscape:label="Republic of Lakotah" /><path
     style="fill:url(#pattern391);fill-opacity:1;stroke:#000000;stroke-width:0.100729;stroke-dasharray:none;stroke-opacity:1"
     d="m 151.3225,260.50372 -0.7118,3.02909 1.95744,0.53454 0.71181,-6.41454 -3.91491,-0.8909 1.60156,2.67273 z"
     id="Republic_of_Molossia"
     inkscape:label="Republic of Molossia" /><path
     style="fill:url(#pattern396);fill-opacity:1;stroke:#000000;stroke-width:0.100729;stroke-dasharray:none;stroke-opacity:1"
     d="m 439.69062,400.42075 -0.3559,-0.26728 -0.44487,-0.26727 -0.40039,0.48999 0.089,1.15819 0.17796,0.97999 0.40039,-0.0446 0.62282,-0.53454 0.0445,-0.80184 0.66732,-0.31181 1.51257,-0.17817 -0.48936,-0.49 -0.48936,-0.13364 -0.13346,-0.57909 -0.31142,-0.53455 -0.62283,0.40091 0.35591,0.62364 z"
     id="Guadeloupe"
     inkscape:label="Guadeloupe" /><path
     style="fill:url(#pattern395);fill-opacity:1;stroke:#000000;stroke-width:0.100729;stroke-dasharray:none;stroke-opacity:1"
     d="m 441.38115,409.55255 -0.40039,0.44544 0.31142,1.0691 0.80077,0.31181 -0.62283,0.49 0.22244,0.31183 1.29014,0.35635 0.3559,-0.4009 -0.17795,-0.71272 -0.26692,-0.53455 v -0.71273 l -0.44487,-0.0446 z"
     id="Martinique"
     inkscape:label="Martinique" /></svg>
