<?xml version="1.0" encoding="UTF-8" standalone="no"?>
<!--
*************Map created by Simplemaps.com********************		
*************Attribution is highly appreciated!***************
*************http://simplemaps.com****************************

The MIT License (MIT)

Copyright (c) 2020 Pareto Softare, LLC DBA Simplemaps.com

Permission is hereby granted, free of charge, to any person obtaining a copy
of this software and associated documentation files (the "Software"), to deal
in the Software without restriction, including without limitation the rights
to use, copy, modify, merge, publish, distribute, sublicense, and/or sell
copies of the Software, and to permit persons to whom the Software is
furnished to do so, subject to the following conditions:

The above copyright notice and this permission notice shall be included in
all copies or substantial portions of the Software.

THE SOFTWARE IS PROVIDED "AS IS", WITHOUT WARRANTY OF ANY KIND, EXPRESS OR
IMPLIED, INCLUDING BUT NOT LIMITED TO THE WARRANTIES OF MERCHANTABILITY,
FITNESS FOR A PARTICULAR PURPOSE AND NONINFRINGEMENT. IN NO EVENT SHALL THE
AUTHORS OR COPYRIGHT HOLDERS BE LIABLE FOR ANY CLAIM, DAMAGES OR OTHER
LIABILITY, WHETHER IN AN ACTION OF CONTRACT, TORT OR OTHERWISE, ARISING FROM,
OUT OF OR IN CONNECTION WITH THE SOFTWARE OR THE USE OR OTHER DEALINGS IN
THE SOFTWARE.

-->

<svg
   baseprofile="tiny"
   fill="#ececec"
   height="540"
   stroke="#000000"
   stroke-linecap="round"
   stroke-linejoin="round"
   stroke-width="0.2"
   version="1.2"
   viewbox="0 0 2000 857"
   width="960"
   id="svg301"
   sodipodi:docname="south-caucasus.svg"
   inkscape:version="1.3.2 (091e20e, 2023-11-25, custom)"
   xml:space="preserve"
   viewBox="1184.655 221.571 65.306122 36.734694"
   xmlns:inkscape="http://www.inkscape.org/namespaces/inkscape"
   xmlns:sodipodi="http://sodipodi.sourceforge.net/DTD/sodipodi-0.dtd"
   xmlns:xlink="http://www.w3.org/1999/xlink"
   xmlns="http://www.w3.org/2000/svg"
   xmlns:svg="http://www.w3.org/2000/svg"><defs
     id="defs301"><pattern
       inkscape:collect="always"
       xlink:href="#Wave 2"
       preserveAspectRatio="xMidYMid"
       id="pattern304"
       patternTransform="translate(435,777)"
       x="10"
       y="0" /><pattern
       inkscape:collect="always"
       xlink:href="#Strips2_1"
       preserveAspectRatio="xMidYMid"
       id="pattern321"
       patternTransform="scale(2)"
       x="0"
       y="0" /><pattern
       inkscape:collect="always"
       xlink:href="#Strips2_1"
       preserveAspectRatio="none"
       id="pattern320"
       patternTransform="scale(1.6,1.5)"
       x="0"
       y="0" /><pattern
       inkscape:collect="always"
       xlink:href="#shading21"
       preserveAspectRatio="none"
       id="pattern318"
       patternTransform="matrix(0.91,0,0,0.11,197.79912,1278.2888)"
       x="0"
       y="0" /><pattern
       patternUnits="userSpaceOnUse"
       width="333.7083"
       height="14.758"
       patternTransform="translate(197.79912,1278.2888)"
       preserveAspectRatio="xMidYMid"
       id="shading21"
       style="fill:#00ff00"
       inkscape:label="Vertical lines shading"
       inkscape:collect="always"
       inkscape:isstock="true"><path
         style="fill-rule:nonzero;stroke:none;stroke-width:0.0293182;stroke-linecap:square;paint-order:markers fill stroke;stop-color:#000000"
         d="m 0,7.379 c 0,0 0,7.379 0,7.379 66.7417,0 266.9666,-7.379 333.7083,-7.379 C 266.9666,7.379 66.7417,0 0,0 0,0 0,7.379 0,7.379 Z"
         id="use28"
         inkscape:linked-fill="path21" /></pattern><pattern
       inkscape:collect="always"
       xlink:href="#Wave 2"
       preserveAspectRatio="none"
       id="pattern316"
       patternTransform="matrix(0.2,0,0,1,435,777)"
       x="0"
       y="0" /><pattern
       patternUnits="userSpaceOnUse"
       width="30"
       height="9"
       patternTransform="translate(435,777)"
       preserveAspectRatio="xMidYMid"
       style="fill:#ff5d00"
       id="Wave 2"
       inkscape:collect="always"
       inkscape:isstock="true"
       inkscape:label="Wave 2"><path
         id="path315"
         style="stroke:none;stroke-linecap:butt;stroke-linejoin:bevel;paint-order:stroke markers fill;stop-color:#000000"
         d="M 8,9 15,5.5 22,9 Z M 0,9 V 4 L 8,0 h 14 l 8,4 V 9 L 15,1 Z"
         sodipodi:nodetypes="cccccccccccc" /></pattern><pattern
       inkscape:collect="always"
       patternUnits="userSpaceOnUse"
       width="1.5"
       height="1"
       patternTransform="translate(0,0) scale(2,2)"
       preserveAspectRatio="xMidYMid"
       id="Strips2_1"
       style="fill:#ff0000"
       inkscape:stockid="Stripes 12 (2:1)"
       inkscape:isstock="true"
       inkscape:label="Stripes 12 (2:1)"><rect
         style="stroke:none"
         x="0"
         y="-0.5"
         width="1"
         height="2"
         id="rect197" /></pattern><clipPath
       clipPathUnits="userSpaceOnUse"
       id="clipPath5"><rect
         style="fill:#000000;stroke:#000000;stroke-width:0;stroke-linejoin:bevel;paint-order:stroke markers fill;stop-color:#000000"
         id="rect5-4"
         width="20"
         height="200"
         x="530"
         y="595" /></clipPath><clipPath
       clipPathUnits="userSpaceOnUse"
       id="clipPath1"><rect
         style="fill:#000000;fill-opacity:0;stroke:#000000;stroke-width:0.00680115"
         id="rect2"
         width="65.290764"
         height="36.726051"
         x="1184.6547"
         y="221.57056" /></clipPath><clipPath
       clipPathUnits="userSpaceOnUse"
       id="clipPath2"><rect
         style="fill:#000000;fill-opacity:0;stroke:#000000;stroke-width:0.00680115"
         id="rect3"
         width="65.290764"
         height="36.726051"
         x="1184.6547"
         y="221.57056" /></clipPath><clipPath
       clipPathUnits="userSpaceOnUse"
       id="clipPath3"><rect
         style="fill:#000000;fill-opacity:0;stroke:#000000;stroke-width:0.00680115"
         id="rect4"
         width="65.290764"
         height="36.726051"
         x="1184.6547"
         y="221.57056" /></clipPath><clipPath
       clipPathUnits="userSpaceOnUse"
       id="clipPath4"><rect
         style="fill:#000000;fill-opacity:0;stroke:#000000;stroke-width:0.00680115"
         id="rect5"
         width="65.290764"
         height="36.726051"
         x="1184.6547"
         y="221.57056" /></clipPath><clipPath
       clipPathUnits="userSpaceOnUse"
       id="clipPath6"><rect
         style="fill:#000000;fill-opacity:0;stroke:#000000;stroke-width:0.00680115"
         id="rect6"
         width="65.290764"
         height="36.726051"
         x="1184.6547"
         y="221.57056" /></clipPath><clipPath
       clipPathUnits="userSpaceOnUse"
       id="clipPath7"><rect
         style="fill:#000000;fill-opacity:0;stroke:#000000;stroke-width:0.00680115"
         id="rect7"
         width="65.290764"
         height="36.726051"
         x="1184.6547"
         y="221.57056" /></clipPath><clipPath
       clipPathUnits="userSpaceOnUse"
       id="clipPath8"><rect
         style="fill:#000000;fill-opacity:0;stroke:#000000;stroke-width:0.00680115"
         id="rect8"
         width="65.290764"
         height="36.726051"
         x="1184.6547"
         y="221.57056" /></clipPath><clipPath
       clipPathUnits="userSpaceOnUse"
       id="clipPath9"><rect
         style="fill:#000000;fill-opacity:0;stroke:#000000;stroke-width:0.00680115"
         id="rect9"
         width="65.290764"
         height="36.726051"
         x="1184.6547"
         y="221.57056" /></clipPath><clipPath
       clipPathUnits="userSpaceOnUse"
       id="clipPath10"><rect
         style="fill:#000000;fill-opacity:0;stroke:#000000;stroke-width:0.00680115"
         id="rect10"
         width="65.290764"
         height="36.726051"
         x="1184.6547"
         y="221.57056" /></clipPath><clipPath
       clipPathUnits="userSpaceOnUse"
       id="clipPath11"><rect
         style="fill:#000000;fill-opacity:0;stroke:#000000;stroke-width:0.00680115"
         id="rect11"
         width="65.290764"
         height="36.726051"
         x="1184.6547"
         y="221.57056" /></clipPath><clipPath
       clipPathUnits="userSpaceOnUse"
       id="clipPath12"><rect
         style="fill:#000000;fill-opacity:0;stroke:#000000;stroke-width:0.00680115"
         id="rect12"
         width="65.290764"
         height="36.726051"
         x="1184.6547"
         y="221.57056" /></clipPath><clipPath
       clipPathUnits="userSpaceOnUse"
       id="clipPath13"><rect
         style="fill:#000000;fill-opacity:0;stroke:#000000;stroke-width:0.00680115"
         id="rect13"
         width="65.290764"
         height="36.726051"
         x="1184.6547"
         y="221.57056" /></clipPath><clipPath
       clipPathUnits="userSpaceOnUse"
       id="clipPath14"><rect
         style="fill:#000000;fill-opacity:0;stroke:#000000;stroke-width:0.00680115"
         id="rect14"
         width="65.290764"
         height="36.726051"
         x="1184.6547"
         y="221.57056" /></clipPath><clipPath
       clipPathUnits="userSpaceOnUse"
       id="clipPath15"><rect
         style="fill:#000000;fill-opacity:0;stroke:#000000;stroke-width:0.00680115"
         id="rect15"
         width="65.290764"
         height="36.726051"
         x="1184.6547"
         y="221.57056" /></clipPath><clipPath
       clipPathUnits="userSpaceOnUse"
       id="clipPath16"><rect
         style="fill:#000000;fill-opacity:0;stroke:#000000;stroke-width:0.00680115"
         id="rect16"
         width="65.290764"
         height="36.726051"
         x="1184.6547"
         y="221.57056" /></clipPath><clipPath
       clipPathUnits="userSpaceOnUse"
       id="clipPath17"><rect
         style="fill:#000000;fill-opacity:0;stroke:#000000;stroke-width:0.00680115"
         id="rect17"
         width="65.290764"
         height="36.726051"
         x="1184.6547"
         y="221.57056" /></clipPath><clipPath
       clipPathUnits="userSpaceOnUse"
       id="clipPath18"><rect
         style="fill:#000000;fill-opacity:0;stroke:#000000;stroke-width:0.00680115"
         id="rect18"
         width="65.290764"
         height="36.726051"
         x="1184.6547"
         y="221.57056" /></clipPath><clipPath
       clipPathUnits="userSpaceOnUse"
       id="clipPath19"><rect
         style="fill:#000000;fill-opacity:0;stroke:#000000;stroke-width:0.00680115"
         id="rect19"
         width="65.290764"
         height="36.726051"
         x="1184.6547"
         y="221.57056" /></clipPath></defs><sodipodi:namedview
     id="namedview301"
     pagecolor="#ffffff"
     bordercolor="#000000"
     borderopacity="0.25"
     inkscape:showpageshadow="false"
     inkscape:pageopacity="0.0"
     inkscape:pagecheckerboard="0"
     inkscape:deskcolor="#d1d1d1"
     inkscape:zoom="0.90509668"
     inkscape:cx="528.12038"
     inkscape:cy="355.21067"
     inkscape:window-width="2560"
     inkscape:window-height="1417"
     inkscape:window-x="-8"
     inkscape:window-y="-8"
     inkscape:window-maximized="1"
     inkscape:current-layer="svg301"
     borderlayer="true" /><path
     id="rest"
     clip-path="url(#clipPath7)"
     class="Russian Federation"
     d="m 1224.1,215.8 6,6.1 0.4,4.2 7.3,7.5 -2.5,2.6 -0.6,1.6 -2.4,-0.5 -4.3,-3.8 -1.5,-0.2 -3.6,-1.5 -2.1,-2.6 -5.1,-1.3 -2.9,1 -1.2,-1.2 -7.6,-3.1 -7.7,-1 -4.6,-1.1 -0.4,0.8 -7.6,-5.4 -6.2,-2.4 z m -22.4,19.5 5.5,-0.3 5.6,3.2 1.3,2.2 0.1,3.1 4.2,1.6 2.4,1.8 -3.3,1.9 2.9,7.3 -0.7,2 3.8,5.1 -2.4,1.1 -2.1,-1.6 c -11.6114,-0.9267 -24.4095,1.19107 -35.9,4 l -1.9,-1.2 -3.3,-28.9 7.9,2.5 5.8,-1 4.6,0.6 z m 27.3,17.9 1.8,-0.2 5.3,-4.7 1.9,-0.5 1.9,1.9 -1.2,3.1 3.9,3.4 1.3,-0.4 2.5,4.8 -22.9,2.6 -3.8,-5.1 0.7,-2 -2.9,-7.3 3.3,-1.9 1.2,2.5 3.2,2.9 z m -13.3,-25.3 5.1,1.3 2.1,2.6 3.6,1.5 -1.2,0.8 3.3,3.5 -0.6,0.7 -2.9,-0.3 -4.2,-1.9 -1.1,1.1 -7,1 -5.6,-3.2 -5.5,0.3 0.3,-2.7 -2.1,-4.3 -3.4,-2.4 -3,-0.7 -2.2,-1.9 0.4,-0.8 4.6,1.1 7.7,1 7.6,3.1 1.2,1.2 z m 19.6,8.3 2.5,-2.6 3.5,3.3 3.6,4.6 2.5,0.3 1.9,1.7 -4.2,0.5 0.1,5 -0.4,2.2 -1.7,1.5 0.8,3.1 -1.3,0.4 -3.9,-3.4 1.2,-3.1 -1.9,-1.9 -1.9,0.5 -5.3,4.7 -0.9,-4.5 -2.5,-1 -2.6,-1.7 1.1,-2.1 -3.2,-2.2 0.7,-1.6 -2.2,-1.1 -1.4,-1.6 1.1,-1.1 4.2,1.9 2.9,0.3 0.6,-0.7 -3.3,-3.5 1.2,-0.8 1.5,0.2 4.3,3.8 2.4,0.5 z m -6.3,17 -3.8,-0.9 -3.2,-2.9 -1.2,-2.5 1,-0.1 1.9,1.7 h 2.3 l 0.2,1 z m 1.8,-0.2 -1.8,0.2 -2.8,-3.7 -0.2,-1 h -2.3 l -1.9,-1.7 -1,0.1 -2.4,-1.8 -4.2,-1.6 -0.1,-3.1 -1.3,-2.2 7,-1 1.4,1.6 2.2,1.1 -0.7,1.6 3.2,2.2 -1.1,2.1 2.6,1.7 2.5,1 z"
     inkscape:label="rest"
     sodipodi:nodetypes="cccccccccccccccccccccccccccccccccccccccccccccccccccccccccccccccccccccccccccccccccccccccccccccccccccccccccccccccccccccccccccccccccccccccccccccccccc" /><path
     style="fill:url(#pattern316);fill-opacity:1;stroke:#000000;stroke-width:0.202041;stroke-dasharray:none"
     d="m 1191.4158,223.26236 2.1721,1.9579 2.9062,0.70363 3.4264,2.38619 1.8967,-1.40724 0.4589,-2.53916 -5.9349,-0.76481 -4.5889,-1.10132 z"
     id="Abkhazia"
     inkscape:label="Abkhazia"
     clip-path="url(#clipPath6)" /><path
     style="fill:url(#pattern318);fill-opacity:1;stroke:#000000;stroke-width:0.2;stroke-dasharray:none;stroke-opacity:1"
     d="m 1230,248.21875 -0.031,-2.5625 -2.125,-1.65625 2.9688,-1.71875 1.3437,1.15625 -1.375,1.625 3.6563,1.25 -1.7813,3.0625 z"
     id="Republic_of_Artsakh"
     inkscape:label="Republic of Artsakh"
     clip-path="url(#clipPath4)" /><path
     style="fill:url(#pattern304);fill-opacity:1;stroke:#000000;stroke-width:0.202041;stroke-dasharray:none"
     d="m 1212.2,228.3 -0.9261,1.5097 0.1768,1.54679 1.2493,0.64351 0.8625,-0.59931 1.1143,0.59931 1.4143,-1.6 -1.8411,-2 -1.45,0.5 z"
     id="South_Ossetia"
     inkscape:label="South Ossetia"
     clip-path="url(#clipPath3)" /><path
     style="fill:url(#pattern320);fill-opacity:1;stroke:#000000;stroke-width:0.2;stroke-dasharray:none;stroke-opacity:1"
     d="m 1232.2812,237.09375 -0.2187,-2.34375 4.625,-2.3125 1.9062,1.875 -1.5625,1.125 -0.4687,1.4375 -1.875,0.90625 1.1562,1.6875 -0.4687,1.25 -1.4063,-0.0937 z"
     id="Lezgistan"
     inkscape:label="Lezgistan"
     clip-path="url(#clipPath2)" /><path
     style="fill:url(#pattern321);fill-opacity:1;stroke:#000000;stroke-width:0.2;stroke-dasharray:none;stroke-opacity:1"
     d="m 1238.6964,252.85697 3.867,3.27036 1.3037,-0.35355 -0.7292,-3.09359 1.6794,-1.5468 -0.8397,-0.26516 -1.1932,1.19324 -0.7071,-0.0221 -0.2431,-1.63518 0.3756,-1.5026 -0.6408,-1.50261 -1.2374,-0.33145 -1.2154,0.86178 -1.0606,-0.17677 1.7898,1.94454 z"
     id="Talysh-Mughan_Autonomous_Republic"
     inkscape:label="Talysh-Mughan Autonomous Republic"
     clip-path="url(#clipPath1)" /></svg>
