<?xml version="1.0" encoding="UTF-8" standalone="no"?>
<!--
*************Map created by Simplemaps.com********************		
*************Attribution is highly appreciated!***************
*************http://simplemaps.com****************************

The MIT License (MIT)

Copyright (c) 2020 Pareto Softare, LLC DBA Simplemaps.com

Permission is hereby granted, free of charge, to any person obtaining a copy
of this software and associated documentation files (the "Software"), to deal
in the Software without restriction, including without limitation the rights
to use, copy, modify, merge, publish, distribute, sublicense, and/or sell
copies of the Software, and to permit persons to whom the Software is
furnished to do so, subject to the following conditions:

The above copyright notice and this permission notice shall be included in
all copies or substantial portions of the Software.

THE SOFTWARE IS PROVIDED "AS IS", WITHOUT WARRANTY OF ANY KIND, EXPRESS OR
IMPLIED, INCLUDING BUT NOT LIMITED TO THE WARRANTIES OF MERCHANTABILITY,
FITNESS FOR A PARTICULAR PURPOSE AND NONINFRINGEMENT. IN NO EVENT SHALL THE
AUTHORS OR COPYRIGHT HOLDERS BE LIABLE FOR ANY CLAIM, DAMAGES OR OTHER
LIABILITY, WHETHER IN AN ACTION OF CONTRACT, TORT OR OTHERWISE, ARISING FROM,
OUT OF OR IN CONNECTION WITH THE SOFTWARE OR THE USE OR OTHER DEALINGS IN
THE SOFTWARE.

-->

<svg
   baseprofile="tiny"
   fill="#ececec"
   height="540"
   stroke="#000000"
   stroke-linecap="round"
   stroke-linejoin="round"
   stroke-width="0.2"
   version="1.2"
   viewbox="0 0 2000 857"
   width="960"
   id="svg301"
   xml:space="preserve"
   viewBox="0 0 960 540"
   sodipodi:docname="south-america.svg"
   inkscape:version="1.3.2 (091e20e, 2023-11-25, custom)"
   xmlns:inkscape="http://www.inkscape.org/namespaces/inkscape"
   xmlns:sodipodi="http://sodipodi.sourceforge.net/DTD/sodipodi-0.dtd"
   xmlns:xlink="http://www.w3.org/1999/xlink"
   xmlns="http://www.w3.org/2000/svg"
   xmlns:svg="http://www.w3.org/2000/svg"><sodipodi:namedview
     id="namedview1"
     pagecolor="#ffffff"
     bordercolor="#000000"
     borderopacity="0.25"
     inkscape:showpageshadow="2"
     inkscape:pageopacity="0.0"
     inkscape:pagecheckerboard="0"
     inkscape:deskcolor="#d1d1d1"
     inkscape:zoom="1.2683728"
     inkscape:cx="384.74493"
     inkscape:cy="285.79926"
     inkscape:window-width="2560"
     inkscape:window-height="1417"
     inkscape:window-x="-8"
     inkscape:window-y="-8"
     inkscape:window-maximized="1"
     inkscape:current-layer="svg301" /><defs
     id="defs301"><pattern
       xlink:href="#Strips2_1"
       preserveAspectRatio="xMidYMid"
       id="pattern405"
       patternTransform="matrix(2.4831439,0,0,2.4831439,-321.07302,-523.81922)"
       x="0"
       y="0" /><pattern
       xlink:href="#Strips2_1"
       preserveAspectRatio="xMidYMid"
       id="pattern332"
       patternTransform="matrix(2.4831439,0,0,2.4831439,-321.07302,-523.81922)"
       x="0"
       y="0" /><pattern
       xlink:href="#Strips2_1"
       preserveAspectRatio="xMidYMid"
       id="pattern331"
       patternTransform="matrix(2.4831439,0,0,2.4831439,-321.07302,-523.81922)"
       x="0"
       y="0" /><pattern
       xlink:href="#Strips2_1"
       preserveAspectRatio="xMidYMid"
       id="pattern330"
       patternTransform="matrix(2.4831439,0,0,2.4831439,-321.07302,-523.81922)"
       x="0"
       y="0" /><pattern
       xlink:href="#Strips2_1"
       preserveAspectRatio="xMidYMid"
       id="pattern313"
       patternTransform="matrix(2.4831439,0,0,2.4831439,-321.07302,-523.81922)" /><pattern
       xlink:href="#Strips2_1"
       preserveAspectRatio="xMidYMid"
       id="pattern310"
       patternTransform="matrix(5.7179538,0,0,5.7179538,13.535504,-1.1261268e-5)"
       x="0"
       y="0" /><pattern
       patternUnits="userSpaceOnUse"
       width="1.5"
       height="1"
       patternTransform="translate(0,0) scale(2,2)"
       preserveAspectRatio="xMidYMid"
       id="Strips2_1"
       style="fill:#ff0000"
       inkscape:label="Strips2_1"><rect
         style="stroke:none"
         x="0"
         y="-0.5"
         width="1"
         height="2"
         id="rect197" /></pattern><clipPath
       clipPathUnits="userSpaceOnUse"
       id="clipPath5"><rect
         style="fill:#000000;stroke:#000000;stroke-width:0;stroke-linejoin:bevel;paint-order:stroke markers fill;stop-color:#000000"
         id="rect5-4"
         width="20"
         height="200"
         x="530"
         y="595" /></clipPath></defs><path
     id="rest"
     class="Falkland Islands"
     d="m 533.50094,504.5748 -0.62078,-0.12411 0.12411,-0.24832 z m 8.4427,1.36572 h 0.86909 l 0.24831,0.24833 0.24832,-0.24833 0.24832,0.12412 0.2483,0.37248 -0.2483,0.12411 -0.49664,-0.12411 -0.49662,-0.24831 -0.99326,-0.12412 0.12412,-0.2483 z m 6.20784,0.49663 h 0.74494 l 0.12413,-0.12412 0.62078,-0.12411 0.49663,0.24831 0.49662,0.37247 0.12412,0.37247 v 0.12412 l -0.62078,0.12411 -0.24833,-0.37248 -0.2483,-0.12411 -0.12412,0.37248 0.24831,0.12411 0.12411,0.37247 0.37248,-0.24831 0.24832,0.12411 0.12411,0.49663 0.37246,0.12411 0.12411,-0.12411 0.6208,0.37248 0.12411,-0.49664 -0.99326,-0.2483 0.12412,-0.62079 0.37248,-0.24832 1.86235,-0.12411 0.8691,0.74494 0.24832,0.12411 v 0.49663 l -0.74495,-0.12412 -0.62079,-0.24831 -0.74493,0.24831 0.37246,0.24833 0.49663,0.12411 1.11742,0.12412 0.37247,0.12411 0.12411,0.24833 -0.2483,0.62078 h -0.62078 l -0.12412,0.12411 -0.8691,0.12413 -0.62078,0.24831 0.37246,0.24832 -1.11741,0.49662 -0.49663,-0.12411 -0.62079,0.12411 h -0.86908 l -0.74496,-0.2483 -0.74493,-0.49664 v 0.37247 l 0.37247,0.24833 0.74494,0.2483 0.37248,0.37248 0.2483,-0.12413 0.49663,0.12413 0.49663,0.37247 -0.24832,0.12411 0.24832,0.62079 h -0.24832 l -0.37246,-0.37247 -0.49664,-0.12412 -0.62078,0.49663 -0.24832,-0.37247 -0.37246,-0.24831 h -0.37247 l -0.62079,-0.24832 -0.24832,0.12413 0.24832,0.49662 h 0.37247 l 0.24832,0.24831 -0.24832,0.12412 0.8691,0.74495 -0.24831,0.12412 -0.49663,-0.24832 h -0.37248 l -0.37247,-0.37247 -0.37247,-0.12411 -0.37247,-0.12413 -0.12411,0.74495 0.62078,0.12413 v 0.37247 l -0.12411,0.24831 -0.49664,-0.12411 -0.12412,-0.24833 -0.62078,-0.24831 -0.12411,-0.2483 h -0.24832 l -0.49662,-0.62081 0.37246,-0.49662 v -0.24832 l -0.49663,-0.62078 v -0.24831 l 0.62079,-0.24831 -0.12411,-0.24833 0.62078,-0.12411 -0.12411,-0.37246 0.74495,-0.49664 0.74493,-0.24831 0.49663,0.49662 v 0.49663 l 0.37248,-0.12412 -0.62079,-0.74494 0.12411,-0.37246 -0.74496,-0.24833 -0.49662,-0.37247 0.12411,-0.24831 0.49664,0.24831 0.12411,-0.62079 -0.8691,-0.2483 0.12411,-0.37248 0.24833,0.12411 0.37248,-0.2483 h 0.37245 l 0.24833,-0.37248 -0.37248,-0.37246 h 0.49662 z m -8.93932,-0.12412 0.74496,-0.12411 0.2483,0.37246 -0.37246,0.49664 -0.24832,-0.12412 -0.37248,0.12412 -0.37246,-0.24832 0.37246,-0.24832 0.37248,0.24832 0.12412,-0.24832 -0.62079,-0.12412 z m 1.73821,0.24832 h -0.37247 l -0.12411,-0.37246 0.49662,0.12411 z m 1.24158,0 h 0.37247 l 0.37246,0.37247 -0.37246,0.12412 h -0.37247 z m -1.98653,2.35899 -0.49662,-0.24832 -0.62079,-0.37246 -0.99326,-0.37248 0.12412,-0.49663 -0.86911,-0.12411 -0.37247,-0.12413 -0.37247,-0.49661 0.24831,-0.12412 0.99327,0.37248 0.99325,0.49663 0.62078,0.12411 0.49664,0.12412 0.37247,-0.37246 0.12411,-0.37248 0.24832,0.12411 0.49662,-0.2483 0.12413,0.2483 h 0.62079 v 0.37248 h 0.37246 l 1.11742,-0.24832 0.12411,0.24832 h 0.37246 l 0.49664,-0.12411 -0.37248,-0.24832 -0.12411,-0.37246 h 0.49662 l 0.74495,0.2483 0.12413,0.49664 -0.49664,0.62078 0.12412,0.37247 -0.24831,0.24831 h -0.49663 l -0.37247,0.99326 -0.37248,0.37247 -0.37246,0.74494 -0.12412,0.37248 -0.62078,0.37247 -0.12413,-0.24831 h -0.49662 v 0.37247 l -0.99326,-0.12412 -0.12412,0.12412 0.37248,0.49664 -0.12412,0.12411 -0.24831,0.49663 h -0.49662 l -0.37248,0.49662 -0.37246,0.12412 h -0.24833 l -0.24831,-0.37247 -0.49663,-0.37246 v -0.24832 h -0.62078 l 0.74494,0.49662 h -0.49664 l -0.62078,-0.37248 -0.2483,-0.12411 -0.49664,-0.24831 -0.37247,-0.24832 v -0.24831 l 0.86911,0.24831 0.74494,-0.24831 -0.62079,-0.24832 -0.12412,-0.12411 h 1.11742 l 0.49663,0.12411 0.37246,0.24832 v -0.24832 l 0.49663,-0.12411 0.12412,-0.37248 -0.49663,-0.24831 -0.24831,-0.62079 0.12411,-0.24832 h 0.74495 l 0.24831,0.12413 0.49663,-0.12413 -0.12411,-0.37246 h -0.99326 v 0.12412 l -0.49663,0.24831 h -0.74494 l -0.6208,-0.37246 v -0.37248 l 0.86911,0.2483 0.74494,-0.2483 h 0.37247 l 0.62078,-0.12412 0.49664,0.24831 v -0.12412 z m -3.60055,1.61405 v 0.2483 l 0.12412,0.37248 -0.49663,0.12412 -0.37248,-0.12412 -0.2483,-0.24832 -0.37248,-0.12412 -0.12412,-0.49663 h 0.24832 l 0.12411,-0.24831 0.37246,-0.12411 0.24833,0.12411 -0.37248,0.37246 0.37248,0.12412 0.37245,-0.37247 z m 15.02303,1.11741 0.2483,0.12411 -0.12411,0.49664 -0.37247,-0.12413 -0.24832,-0.37247 0.37246,-0.24831 z m -7.69776,0.99326 0.24832,0.2483 0.49663,0.12413 0.12412,0.49662 -0.37247,0.12412 -0.12412,-0.49662 -0.24832,-0.24832 z m 0.86911,1.73819 0.49662,-0.12411 v 0.49662 l -0.99325,-0.37247 0.37247,-0.37248 0.24831,-0.12411 z m -24.95559,-433.556899 1.86235,-3.476401 0.62078,-3.600558 1.24157,-3.352244 -2.60729,-4.717974 -0.37247,-5.462916 3.84887,-6.828645 2.35897,0.8691 5.09045,1.862359 7.32527,6.704487 0.99326,3.228087 -4.22134,7.325274 -2.23483,5.835388 -2.73145,3.10393 -3.35225,0.496628 -0.99325,-2.234829 -1.61405,-0.248314 -2.11068,2.110672 z m -78.0949,199.644759 1.11742,1.98652 -1.48989,8.31853 -6.95282,3.84887 1.98652,13.28482 -0.99326,2.6073 2.48314,3.10392 -4.09718,4.9663 -3.2281,7.44943 -1.11741,7.32528 2.11067,7.69774 -2.60731,8.19437 6.08372,13.78145 1.98652,1.4899 1.7382,7.32525 -1.98652,7.69776 1.73821,6.70449 -3.72472,5.2146 1.98651,7.20111 4.09719,7.82192 -3.10392,2.85561 0.2483,7.07695 0.99327,8.07022 4.0972,9.68426 -2.11069,1.61405 4.59383,9.06346 3.84888,2.97977 -0.99327,3.35226 3.47642,1.48988 1.73819,2.97978 -2.23483,1.48988 2.23483,4.59382 1.36574,10.30504 -0.8691,6.7045 2.23483,3.97302 -0.12411,4.84213 -3.35226,3.4764 3.84887,8.07021 3.22808,2.85562 3.84889,-0.49662 2.35898,5.71122 4.3455,4.46967 15.02303,0.99326 6.0837,1.24157 h -5.33876 l -2.11068,1.86234 -4.22134,2.73147 2.11066,7.07696 -2.35897,0.12412 -7.82191,-2.359 -9.31179,-5.33875 -9.43594,-4.3455 -3.97304,-4.84214 -0.37248,-4.46965 -5.21461,-5.21461 -6.20786,-13.16065 -0.24832,-7.44944 4.22135,-5.95954 -10.30506,-2.35898 3.35225,-6.82865 -2.48315,-13.03651 8.07023,2.73147 -2.23483,-16.26459 -4.9663,-2.11068 1.24158,9.80841 -4.34551,-1.11741 -1.86237,-11.17415 -2.48314,-14.65054 1.36573,-5.46292 -4.0972,-7.69774 -2.97977,-8.93932 2.73146,-0.37248 0.74495,-12.78818 1.48989,-12.78819 0.12414,-11.79494 -4.09719,-12.04324 0.74495,-6.58034 -2.60731,-9.80841 2.23483,-9.68426 -1.11741,-15.39549 v -16.63707 l 0.12416,-17.75447 -1.86237,-13.0365 -2.6073,-11.29831 3.47641,-1.98652 1.36572,-4.09719 3.97304,5.46292 1.48989,5.71123 3.97304,3.35224 -1.36574,7.69775 4.59383,8.93931 3.84888,11.05 z m 50.53199,236.02281 7.44943,16.88539 h 6.20787 l 3.72472,0.24831 -0.6208,2.97977 -3.97302,2.35898 -2.97977,-0.24831 -3.84889,-0.62078 -5.21459,-2.23483 -6.7045,-1.11741 -9.31178,-4.22136 -7.94606,-3.97303 -12.1674,-8.56685 5.71122,1.61405 10.67752,5.09045 9.06348,2.73146 1.48989,-3.4764 -0.37248,-5.21461 4.22135,-3.22808 z m -7.94605,-483.964715 -5.83539,4.717973 -0.62078,2.855616 2.23483,2.979772 -1.73821,1.489886 -4.34551,1.241572 v 3.724717 l -1.9865,2.234829 4.5938,5.959545 0.86911,2.234828 -2.6073,3.10393 -7.94607,2.979773 -5.09044,1.241571 -2.11067,1.862359 -5.58707,-1.986515 -5.09045,-0.993259 -1.36574,0.744944 3.10394,1.986515 -0.37247,5.338759 0.8691,5.090445 5.95955,0.620785 0.37247,1.738201 -5.09045,2.23483 -0.8691,3.352244 -2.97978,1.36573 -5.21461,1.862356 -1.36573,2.483145 -5.46293,0.496628 -3.84888,-4.221344 -1.98651,-7.94606 -1.86237,-2.855615 -2.48314,-1.738202 3.60056,-3.973029 -0.24831,-1.738201 -1.86236,-2.358986 -1.36574,-5.33876 0.74495,-5.711231 1.61404,-2.731456 1.48989,-4.221345 -2.48314,-1.36573 -3.97304,0.8691 -5.09045,-0.372471 -2.85563,0.869101 -4.71797,-6.952803 -4.0972,-0.993258 -9.06349,0.744944 -1.48989,-2.731459 -1.73821,-0.620785 -0.12416,-1.738201 0.86911,-2.979772 -0.37247,-3.10393 -1.48989,-1.862358 -0.74494,-3.600558 -3.60056,-0.496628 2.23483,-4.717975 1.11741,-5.71123 2.23483,-2.979772 2.85562,-2.23483 1.98653,-3.9730297 4.59382,-1.3657291 -0.24832,1.8623579 -4.22135,0.9932574 2.11068,3.6005585 -0.37248,4.221344 -3.35224,4.593817 2.35899,6.332016 3.10394,-0.496629 1.86235,-5.835387 -2.11067,-2.731459 v -6.08374 l 8.93933,-3.2280865 -0.74494,-3.7247156 2.60729,-2.6073009 2.11069,5.7112307 4.96629,0.1241567 4.22136,4.3455016 0.24831,2.731458 h 6.20787 l 7.5736,-0.744943 3.84888,3.476402 5.21462,0.993256 4.09718,-2.483143 0.12416,-1.986515 8.81516,-0.496628 8.31853,-0.124155 -6.0837,2.358987 2.23483,3.848873 5.58708,0.496628 5.2146,3.97303 0.86909,6.332017 3.60057,-0.124155 z m 63.32016,335.845195 -1.98652,5.09044 -6.70448,4.3455 -5.21461,-1.61405 -3.47639,0.86911 -6.82865,-3.35224 -4.46966,0.24832 -4.84214,-4.46966 -0.49662,-5.09046 1.11742,-1.73819 -1.48989,-7.94606 0.49662,-8.19438 0.62079,-6.45618 4.22134,-0.86908 7.82191,6.20785 2.35899,-0.24831 7.8219,5.09044 5.95955,4.46966 4.71797,5.33875 -2.23483,3.84887 z m -23.21739,-314.986787 -3.84887,6.828645 0.37247,5.462916 2.73146,4.717974 -1.36574,3.352244 -0.62078,3.724715 -1.86235,3.352244 -3.97304,-1.738201 -3.35224,0.8691 -2.85561,-0.744942 -0.74495,2.358987 1.24157,1.489885 -0.74494,1.738201 -3.84888,-0.744943 -4.09719,-6.952803 -0.86909,-4.469658 h -2.23483 l -2.97978,-5.711231 1.36574,-4.221343 -0.37247,-1.862359 4.3455,-1.986515 1.24156,-7.201117 8.4427,1.614044 0.74494,-1.489886 5.71123,-0.620786 z m -22.96909,206.721717 2.48315,4.3455 0.49663,10.80168 7.32528,1.61404 2.73145,-1.61404 4.84214,2.23482 1.48987,2.35899 1.36574,7.32528 0.99325,2.97977 2.60731,0.37247 2.48313,-1.24157 2.60731,1.36574 0.37247,4.46966 -0.37247,4.71797 -0.8691,4.59381 -0.37246,6.9528 -5.33877,6.20786 -5.2146,1.24157 -7.82191,-1.24157 -7.20112,-2.11067 5.21461,-12.16741 -1.36573,-3.47639 -7.32527,-3.10394 -9.06348,-5.95954 -5.71123,-1.24158 -14.02976,-12.91235 1.86235,-9.56009 -0.24831,-4.34551 2.6073,-6.9528 11.91909,-2.35899 6.45617,0.12411 6.7045,4.09718 z m -89.39324,-126.64032 -6.33203,-0.37248 -0.99326,1.24156 -5.71124,1.48989 -7.82192,5.46292 -0.37247,3.72472 -1.7382,2.73145 0.8691,4.3455 -4.22136,2.23483 0.24832,3.47641 -1.86236,1.36573 3.22809,7.20112 4.0972,4.84212 -1.24157,3.47641 4.71797,0.37247 2.85563,4.3455 6.20786,0.12411 5.46293,-4.5938 0.12416,12.04324 3.22809,0.8691 3.97303,-1.36573 6.82866,12.91235 -1.36573,2.6073 v 5.71123 l 0.37248,6.70449 -2.35899,3.97303 1.48989,2.97977 -1.36575,2.73146 3.60058,6.70448 -3.60058,8.56685 -1.36572,4.09719 -3.47641,1.98652 -7.32528,-4.59382 -0.99326,-3.22809 -14.52643,-7.94607 -13.28483,-8.81514 -5.8354,-4.84214 -3.47641,-6.58033 0.99326,-2.35899 -6.7045,-10.4292 -7.94608,-14.65055 -7.44944,-15.89212 -2.97978,-3.72471 -2.48315,-5.83538 -5.71124,-5.21461 -5.09045,-3.22809 2.11067,-3.4764 -3.72472,-7.69775 2.11068,-5.58707 5.46292,-4.96628 0.86911,3.35224 -1.98653,1.86235 0.37248,2.85563 2.85562,-0.6208 2.85562,0.8691 3.10393,4.0972 3.84888,-3.35226 1.11743,-5.33874 4.22135,-6.95281 8.31854,-3.10394 7.5736,-8.44268 2.11068,-5.09045 -0.99325,-6.0837 1.86235,-0.744943 4.71799,3.724713 2.23483,3.84887 3.2281,1.98652 4.3455,8.31853 5.21461,1.11742 3.84888,-2.11068 2.6073,1.36573 4.22136,-0.74494 5.46292,3.72472 -4.34551,8.19438 2.11068,0.12411 z m 89.88987,-81.819598 -1.24156,7.201117 -4.3455,1.986515 0.37247,1.862359 -1.36574,4.221343 2.97978,5.711231 h 2.23483 l 0.86909,4.469658 4.09719,6.952803 -1.61404,0.372472 -3.97302,-0.744944 -2.23483,2.110674 -3.22809,1.365728 -2.23484,0.372472 -0.74494,1.614043 -3.47639,-0.372472 -4.34551,-3.724715 -0.37247,-3.724716 -1.7382,-4.097187 1.24157,-6.704489 1.98652,-2.855615 -1.48989,-3.724715 -2.48314,-1.117415 0.99325,-3.600558 -1.48989,-1.738201 -3.72472,0.248315 -4.5938,-5.959545 1.9865,-2.234829 v -3.724717 l 4.34551,-1.241572 1.73821,-1.489886 -2.23483,-2.979772 0.62078,-2.855616 5.83539,-4.717973 4.46966,2.979773 4.09718,5.090445 0.12413,4.221344 2.6073,0.124155 3.72471,3.848873 z m -128.99945,48.793778 0.99325,6.0837 -2.11067,5.09044 -7.57361,8.4427 -8.31854,3.10393 -4.22135,6.9528 -1.11742,5.33875 -3.84888,3.35225 -3.10394,-4.09719 -2.85562,-0.8691 -2.85562,0.62079 -0.37247,-2.85562 1.98652,-1.86235 -0.8691,-3.35228 3.60056,-5.95955 -1.61405,-3.4764 -2.6073,3.72471 -4.3455,-3.60056 1.36573,-2.23483 -1.24159,-7.20111 2.48315,-1.24158 1.24158,-4.96628 2.60731,-5.090448 -0.37248,-3.228087 3.84888,-1.7382 4.84214,-3.103929 6.95282,4.469658 1.36573,-0.124154 1.73821,3.476402 5.95955,1.117415 1.98652,-1.241573 3.4764,2.607302 z m 31.53598,-95.1044088 -4.59383,1.3657291 -1.98652,3.9730297 -2.85562,2.23483 -2.23483,2.979772 -1.11741,5.71123 -2.23484,4.717975 3.60057,0.496628 0.74494,3.600558 1.48989,1.862358 0.37247,3.10393 -0.86911,2.979772 0.12416,1.738201 1.7382,0.620785 1.48989,2.731459 9.0635,-0.744944 4.0972,0.993258 4.71797,6.952803 2.85563,-0.869101 5.09045,0.372471 3.97304,-0.8691 2.48314,1.36573 -1.48989,4.221345 -1.61405,2.731456 -0.74494,5.711231 1.36574,5.33876 1.86235,2.358986 0.24832,1.738201 -3.60056,3.973029 2.48314,1.738202 1.86237,2.855615 1.98651,7.94606 -1.36573,0.993257 -1.24157,-4.717972 -1.98652,-2.607301 -2.359,2.855616 -13.65731,-0.248315 v 4.966286 l 4.0972,0.869101 -0.24832,3.10393 -1.36573,-0.869101 -3.97304,1.241573 -0.12415,5.835386 3.22809,2.97977 1.11742,4.46966 -0.12416,3.4764 -2.73146,21.85168 -3.60057,-4.22136 -2.11067,-0.12411 4.3455,-8.19438 -5.46291,-3.72472 -4.22136,0.74495 -2.6073,-1.36573 -3.84888,2.11067 -5.21461,-1.11741 -4.34551,-8.31854 -3.22809,-1.98651 -2.23484,-3.84887 -4.71798,-3.724718 -1.86236,0.744938 -2.97979,-1.862354 -3.4764,-2.6073 -1.98652,1.241572 -5.95955,-1.117415 -1.73821,-3.476402 -1.36572,0.124155 -6.95282,-4.46966 -0.86911,-2.483143 2.60731,-0.620787 -0.24831,-3.97303 1.7382,-2.979772 3.47641,-0.496629 3.10393,-4.966286 2.73146,-4.221346 -2.48314,-1.862357 1.48989,-4.593817 -1.36574,-7.325273 1.61405,-2.110673 -0.86909,-6.704488 -2.73148,-4.345501 1.11743,-3.848873 2.23483,0.620786 1.36573,-2.358987 -1.36573,-4.717972 0.86909,-1.117416 3.60057,0.248316 5.58708,-5.587075 2.97978,-0.8691 0.12416,-2.607302 1.7382,-6.828644 4.22135,-3.600559 4.34552,-0.248314 0.74493,-1.6140434 5.46293,0.620786 5.71125,-3.9730301 2.85562,-1.7382005 3.60056,-3.84887289 2.48315,0.49662875 1.61405,2.11067214 z m 101.06403,78.7156568 3.84888,0.744943 0.74494,-1.738201 -1.24157,-1.489885 0.74495,-2.358987 2.85561,0.744942 3.35224,-0.8691 3.97304,1.738201 3.10391,1.614044 2.11068,-2.110672 1.61405,0.248314 0.99325,2.234829 3.35225,-0.496628 2.73145,-3.10393 2.23483,-5.835388 4.22134,-7.325274 2.48315,-0.372472 1.61405,4.469658 3.72472,13.905606 3.84886,1.36573 0.12413,5.462915 -5.33877,6.580331 2.11068,2.358987 12.53988,1.241569 0.24831,8.07022 5.33875,-5.2146 8.81516,2.85561 11.79493,4.84213 3.47642,4.59382 -1.11742,4.46966 8.19437,-2.48315 13.65729,4.22134 10.55336,-0.2483 10.4292,6.58033 9.18764,8.93932 5.46291,2.23483 5.95954,0.37246 2.60731,2.48315 2.48314,10.18089 1.36574,4.84213 -2.60731,13.16066 -3.35224,5.21461 -9.56012,11.04999 -4.22133,9.06346 -4.96629,6.82865 -1.7382,0.24832 -1.61405,5.83538 1.11742,14.89887 -1.36572,12.29156 -0.37248,5.2146 -1.98652,3.22809 -0.62078,10.67751 -6.45617,10.30505 -0.62078,8.31854 -5.33877,3.35223 -1.36572,4.84214 h -7.44943 l -10.55337,2.97978 -4.59381,3.60055 -7.44944,2.35899 -7.57358,6.33201 -5.09046,7.94606 -0.37246,5.95954 1.61405,4.3455 -0.37248,8.07022 -0.99325,3.84887 -4.22136,4.46967 -5.58706,14.02976 -4.96628,6.20786 -3.97304,3.84886 -1.86235,7.57359 -3.60056,4.46967 -2.60731,-4.46967 2.23483,-3.84887 -4.71797,-5.33875 -5.95955,-4.46966 -7.8219,-5.09044 -2.35899,0.24831 -7.8219,-6.20785 -4.22134,0.86908 7.44942,-10.80167 6.58033,-7.82189 4.0972,-3.22809 5.2146,-4.3455 -0.49663,-6.33202 -3.97304,-4.71798 -3.22809,1.61405 0.86911,-4.59381 0.37248,-4.71797 -0.37248,-4.46966 -2.6073,-1.36574 -2.48314,1.24157 -2.6073,-0.37247 -0.99326,-2.97977 -1.36573,-7.32528 -1.48988,-2.35899 -4.84214,-2.23482 -2.73145,1.61404 -7.32528,-1.61404 -0.49662,-10.80168 -2.48316,-4.3455 1.98652,-1.7382 -0.99325,-4.46966 1.61403,-3.4764 0.74496,-6.33201 -2.11068,-4.9663 -3.97303,-2.23481 -0.99325,-3.10394 0.62078,-4.59382 -13.28482,-0.37247 -3.4764,-9.31179 2.11066,-0.12412 -0.37245,-3.35225 -1.48989,-2.35897 -0.6208,-4.59382 -4.22134,-2.35899 h -4.3455 l -3.10393,-2.23483 -4.84213,-1.61404 -2.85561,-2.97978 -7.94606,-1.36572 -8.07024,-7.07698 0.37248,-5.33875 -1.11742,-3.10392 0.49664,-5.95955 -9.0635,1.36573 -3.60057,2.97977 -5.95955,3.22809 -1.36573,2.35899 -3.60057,0.24831 -5.21461,-0.74495 -3.97304,1.36573 -3.22809,-0.86909 -0.12416,-12.04325 -5.46292,4.59381 -6.20787,-0.12411 -2.85562,-4.34551 -4.71798,-0.37247 1.24157,-3.47639 -4.09719,-4.84214 -3.2281,-7.20112 1.86237,-1.36572 -0.24832,-3.47642 4.22135,-2.23483 -0.86909,-4.3455 1.73819,-2.73145 0.37248,-3.72472 7.82191,-5.46292 5.71125,-1.48987 0.99325,-1.24158 6.33203,0.37248 2.73146,-21.85167 0.12416,-3.4764 -1.11741,-4.46966 -3.2281,-2.97977 0.12416,-5.835391 3.97304,-1.241572 1.36573,0.8691 0.2483,-3.10393 -4.09718,-0.8691 v -4.966288 l 13.65731,0.248315 2.35898,-2.855615 1.98653,2.6073 1.24157,4.717973 1.36573,-0.993257 3.84888,4.221345 5.46293,-0.49663 1.36573,-2.483143 5.21461,-1.862357 2.97979,-1.36573 0.86909,-3.352244 5.09046,-2.23483 -0.37248,-1.7382 -5.95955,-0.620786 -0.86911,-5.090445 0.37248,-5.338759 -3.10393,-1.986515 1.36573,-0.744943 5.09044,0.993258 5.58709,1.986515 2.11067,-1.862358 5.09044,-1.241573 7.94606,-2.979771 2.60731,-3.10393 -0.86911,-2.234829 3.72472,-0.248316 1.48989,1.738201 -0.99327,3.600559 2.48316,1.117415 1.48988,3.724716 -1.98652,2.855615 -1.24157,6.704487 1.73821,4.097189 0.37245,3.724715 4.34551,3.724716 3.47641,0.372472 0.74493,-1.614045 2.23485,-0.372471 3.22808,-1.365729 2.23483,-2.110673 3.97303,0.744943 z m -4.09719,176.054892 -0.37246,-2.48315 -6.7045,-4.09717 -6.45617,-0.12412 -11.91909,2.359 -2.6073,6.95279 0.24831,4.3455 -1.86235,9.5601 -1.24157,-1.73819 -7.94607,-0.37247 -1.9865,6.45618 -4.59383,-5.71124 -9.31179,-1.98652 -4.9663,7.20112 -4.84214,1.11742 -3.84888,-11.04999 -4.59382,-8.93931 1.36573,-7.69776 -3.97304,-3.35224 -1.48989,-5.71124 -3.97303,-5.46291 3.60056,-8.56685 -3.60056,-6.70449 1.36573,-2.73145 -1.48989,-2.97978 2.35899,-3.97302 -0.37248,-6.70448 v -5.71125 l 1.36573,-2.60729 -6.82866,-12.91236 5.21463,0.74496 3.60056,-0.24832 1.36573,-2.35899 5.95955,-3.22809 3.60056,-2.97976 9.0635,-1.36574 -0.49663,5.95955 1.11741,3.10392 -0.37246,5.33877 8.07022,7.07696 7.94606,1.36572 2.85561,2.97978 4.84214,1.61404 3.10393,2.23483 h 4.3455 l 4.22134,2.35899 0.62079,4.59382 1.48989,2.35899 0.37247,3.35223 -2.11067,0.12412 3.4764,9.3118 13.28482,0.37246 -0.62078,4.59382 0.99324,3.10394 3.97304,2.23483 2.11067,4.96628 -0.74495,6.33201 -1.61404,3.47641 0.99326,4.46965 z m -29.67356,16.5129 14.02976,12.91235 5.71123,1.24158 9.06348,5.95954 7.32527,3.10394 1.36573,3.47639 -5.21461,12.16741 7.20112,2.11067 7.82191,1.24157 5.2146,-1.24157 5.33877,-6.20786 0.37246,-6.9528 3.22809,-1.61405 3.97303,4.71798 0.49663,6.33202 -5.2146,4.3455 -4.0972,3.22809 -6.58033,7.82189 -7.44943,10.80167 -0.62079,6.45618 -0.49662,8.19438 1.48989,7.94606 -1.11742,1.73819 0.49662,5.09046 0.37248,4.22134 9.68427,6.82864 0.24831,5.46292 4.84213,3.47641 0.37248,3.84886 -4.0972,10.1809 -8.691,4.3455 -12.66404,1.61403 -7.44942,-0.86909 2.6073,4.84212 0.12412,5.83539 2.23483,3.97304 -3.10394,2.85561 -6.33202,1.11741 -6.9528,-2.97978 -1.86236,2.11069 3.10394,7.8219 4.96629,2.35898 2.85561,-2.48314 3.10392,4.09719 -5.2146,2.48314 -3.60054,4.96628 1.48987,7.82192 -0.12412,4.22133 h -5.95954 l -3.72472,3.97304 0.12411,5.95955 8.07022,5.71123 6.45618,1.48988 0.24833,7.07695 -5.71125,4.3455 -0.74494,9.06348 -4.3455,2.97978 -1.1174,3.60056 5.21458,8.07023 5.71124,4.34548 -2.60731,-0.37246 -6.08369,-1.24157 -15.02302,-0.99326 -4.3455,-4.46967 -2.35899,-5.71122 -3.84888,0.49662 -3.22808,-2.85562 -3.84887,-8.07021 3.35224,-3.4764 0.12413,-4.84213 -2.23483,-3.97302 0.86909,-6.7045 -1.36573,-10.30504 -2.23483,-4.59382 2.23483,-1.48988 -1.73819,-2.97978 -3.47642,-1.48988 0.99327,-3.35226 -3.84889,-2.97977 -4.59382,-9.06346 2.11067,-1.61405 -4.09718,-9.68426 -0.99327,-8.07022 -0.24832,-7.07695 3.10394,-2.85561 -4.09719,-7.82192 -1.98653,-7.20111 3.72473,-5.2146 -1.7382,-6.70449 1.98651,-7.69776 -1.7382,-7.32525 -1.98651,-1.4899 -6.08372,-13.78145 2.60731,-8.19437 -2.11068,-7.69774 1.11742,-7.32528 3.22809,-7.44943 4.09719,-4.9663 -2.48315,-3.10392 0.99326,-2.6073 -1.98651,-13.28482 6.95282,-3.84887 1.48989,-8.31853 -1.11743,-1.98652 4.96629,-7.20112 9.31181,1.98652 4.59382,5.71124 1.98651,-6.45617 7.94606,0.37246 z m 37.86795,257.00539 -3.72472,-0.24831 h -6.20787 l -7.44943,-16.88539 3.84888,3.47641 5.33875,5.71123 9.68427,4.59381 9.06347,1.86236 -0.99327,3.72472 -5.46291,0.37247 z"
     style="stroke-width:0.248315" /><path
     style="fill:url(#pattern313);fill-opacity:1;stroke:#000000;stroke-width:0.124157"
     d="m 499.60602,416.3611 -65.49296,-31.34968 -3.72472,9.62218 4.96629,40.66148 2.48316,1.70715 2.17275,15.83004 -7.91503,-2.48314 2.32795,12.57092 -3.25913,7.13905 10.08779,2.48313 -4.03512,5.58708 0.3104,8.22542 6.20786,12.8813 4.9663,5.12148 0.62079,4.5007 8.07022,9.77737 11.79494,7.91502 16.76122,8.07022 6.82863,1.08639 5.74229,2.63833 6.51824,0.46558 4.1903,-2.32793 10.08778,-0.62078 1.08638,-3.72473 -8.8462,-1.70716 -9.77738,-4.3455 -7.91502,-11.95013 -5.27669,-4.03512 -5.12148,-8.22541 0.93118,-3.72472 4.3455,-3.10391 0.77599,-9.15661 5.74227,-4.3455 -0.3104,-6.82864 -6.51825,-1.55197 -7.60464,-5.27668 -0.77598,-6.36306 4.34551,-4.03511 5.27669,-0.15519 0.46559,0.15519 0.15519,-4.65589 -1.86236,-6.98382 4.03511,-5.27669 4.96628,-2.63834 -3.10392,-4.03511 -2.32796,2.48313 -5.27666,-2.01754 -3.41434,-7.91502 2.32796,-2.17277 6.67344,2.94875 6.20787,-1.08638 2.94871,-3.25913 -2.17274,-3.8799 z"
     id="Patagonia" /><path
     style="fill:url(#pattern310);fill-opacity:1;stroke:#000000;stroke-width:0.145755;stroke-dasharray:none"
     d="m 420.55316,397.56193 27.2157,-16.2416 8.99871,3.5117 5.926,15.36368 -10.97405,35.33642 1.97532,9.87664 -7.68185,4.38963 -8.77924,-25.02084 1.97533,-10.75456 -12.29096,-1.97534 z"
     id="Mapuche" /><path
     style="fill:url(#pattern330);fill-opacity:1;stroke:#000000;stroke-width:0.124157;stroke-dasharray:none;stroke-opacity:1"
     d="m 514.38133,339.94817 7.79158,-10.97405 5.81625,-7.24287 9.7669,-7.90131 10.09612,0.43898 7.5721,3.62141 6.36495,7.90132 5.04805,-0.5487 -1.86558,4.49936 2.52403,2.41429 -3.84091,10.20587 -1.64611,4.17013 -5.04807,6.03573 -3.84091,3.73117 -1.97534,7.57211 -3.40194,4.60909 -2.63377,-4.60909 2.1948,-3.73119 -4.71884,-5.37728 -6.03573,-4.82857 -7.9013,-4.8286 -2.41429,0.32924 -7.68184,-6.36497 z"
     id="Rio_Grande_do_Sul" /><path
     style="fill:url(#pattern331);fill-opacity:1;stroke:#000000;stroke-width:0.124157;stroke-dasharray:none;stroke-opacity:1"
     d="m 537.24117,307.49077 10.16536,0.46559 8.92381,1.62956 5.50947,-3.02633 5.27669,-0.2328 5.12148,-1.16396 -0.3104,0.46558 -0.38799,5.97507 1.70716,4.19031 -0.3104,8.14781 -1.16397,4.03511 -3.72471,3.95751 -2.56075,-2.25036 1.78476,-4.81108 -5.35428,0.46558 -6.28545,-7.75982 -7.68223,-3.72472 -10.32057,-0.31039 z"
     id="Santa_Catarina" /><path
     style="fill:url(#pattern332);fill-opacity:1;stroke:#000000;stroke-width:0.124157;stroke-dasharray:none;stroke-opacity:1"
     d="m 533.20605,302.83488 5.74228,-12.26053 10.86374,-1.47436 11.40694,0.38799 4.03512,0.0776 2.87114,5.50948 0.38799,2.94873 6.44064,2.79353 -2.40554,3.80232 -5.27668,1.31917 -5.58707,0.15519 -5.35427,2.94874 -9.3118,-1.62956 -10.01018,-0.2328 z"
     id="Parana" /><path
     style="fill:url(#pattern405);fill-opacity:1;stroke:#000000;stroke-width:0.124157;stroke-dasharray:none;stroke-opacity:1"
     d="m 524.36771,53.415759 -3.51167,7.023397 0.21947,5.157801 2.52403,4.828585 -1.31689,2.853257 -0.43896,3.621428 -1.86559,4.170142 3.40196,1.207144 1.53637,-1.755844 1.64609,0.329215 1.09741,1.975328 3.62143,-0.548699 2.74352,-2.963 1.53637,-5.487014 4.60911,-7.791585 -0.98768,-3.072727 -7.24287,-7.023387 z"
     id="French_Guiana" /></svg>
